<?xml version="1.0" encoding="utf-8"?>
<!-- Generator: Adobe Illustrator 27.2.0, SVG Export Plug-In . SVG Version: 6.00 Build 0)  -->
<svg version="1.1" id="Ebene_3" xmlns="http://www.w3.org/2000/svg" xmlns:xlink="http://www.w3.org/1999/xlink" x="0px" y="0px"
	 viewBox="0 0 233.8 233.8" style="enable-background:new 0 0 233.8 233.8;" xml:space="preserve">
<style type="text/css">
	.st0{enable-background:new    ;}
	.st1{fill:#353230;}
	.st2{fill:#FCF4E4;stroke:#353230;stroke-width:4;stroke-linejoin:round;}
	.st3{fill:#FCF4E4;}
	.st4{fill:none;stroke:#353230;stroke-width:4;stroke-linecap:round;stroke-linejoin:round;}
</style>
<g class="st0">
	<path class="st1" d="M26.7,197.7l5.7,15.3l5.7-15.3h4.5v19.9h-3.4v-6.6l0.3-8.8l-5.9,15.3h-2.5l-5.9-15.3l0.3,8.8v6.6h-3.4v-19.9
		H26.7z"/>
	<path class="st1" d="M53,217.9c-2.1,0-3.8-0.7-5.1-2c-1.3-1.3-2-3.1-2-5.3v-0.4c0-1.5,0.3-2.8,0.9-4c0.6-1.2,1.4-2.1,2.4-2.7
		c1-0.6,2.2-1,3.4-1c2,0,3.6,0.6,4.7,1.9c1.1,1.3,1.6,3.1,1.6,5.5v1.3h-9.7c0.1,1.2,0.5,2.2,1.2,2.9c0.7,0.7,1.6,1.1,2.7,1.1
		c1.5,0,2.8-0.6,3.7-1.8l1.8,1.7c-0.6,0.9-1.4,1.6-2.4,2.1C55.3,217.6,54.2,217.9,53,217.9z M52.6,205.2c-0.9,0-1.6,0.3-2.2,1
		s-0.9,1.5-1.1,2.7h6.3v-0.2c-0.1-1.1-0.4-2-0.9-2.5S53.5,205.2,52.6,205.2z"/>
	<path class="st1" d="M61.5,199c0-0.5,0.2-0.9,0.5-1.3c0.3-0.3,0.8-0.5,1.4-0.5s1.1,0.2,1.4,0.5s0.5,0.8,0.5,1.3
		c0,0.5-0.2,0.9-0.5,1.3s-0.8,0.5-1.4,0.5s-1.1-0.2-1.4-0.5C61.6,199.9,61.5,199.5,61.5,199z M65,217.6h-3.3v-14.8H65V217.6z"/>
	<path class="st1" d="M71.7,202.8l0.1,1.7c1.1-1.3,2.5-2,4.3-2c3.1,0,4.6,1.8,4.7,5.3v9.8h-3.3V208c0-0.9-0.2-1.6-0.6-2.1
		c-0.4-0.5-1.1-0.7-2-0.7c-1.3,0-2.3,0.6-3,1.8v10.5h-3.3v-14.8H71.7z"/>
	<path class="st1" d="M106.7,211.1c-0.2,2.1-1,3.8-2.4,5s-3.2,1.8-5.5,1.8c-1.6,0-3-0.4-4.2-1.1c-1.2-0.8-2.1-1.8-2.8-3.2
		s-1-3-1-4.8v-1.9c0-1.9,0.3-3.5,1-5c0.7-1.4,1.6-2.5,2.9-3.3s2.7-1.2,4.3-1.2c2.2,0,4,0.6,5.3,1.8s2.1,2.9,2.3,5.1h-3.4
		c-0.2-1.4-0.6-2.5-1.3-3.1s-1.7-1-2.9-1c-1.5,0-2.7,0.5-3.5,1.6c-0.8,1.1-1.2,2.7-1.2,4.8v1.8c0,2.2,0.4,3.8,1.2,4.9
		c0.8,1.1,1.9,1.7,3.4,1.7c1.4,0,2.4-0.3,3.1-0.9s1.1-1.6,1.3-3H106.7z"/>
	<path class="st1" d="M108.8,210.1c0-1.4,0.3-2.8,0.9-3.9s1.4-2.1,2.4-2.7s2.2-0.9,3.6-0.9c2,0,3.6,0.6,4.9,1.9s1.9,3,2,5.1l0,0.8
		c0,1.5-0.3,2.8-0.8,3.9s-1.4,2-2.4,2.7s-2.2,0.9-3.6,0.9c-2.1,0-3.8-0.7-5-2.1c-1.3-1.4-1.9-3.2-1.9-5.6V210.1z M112.1,210.4
		c0,1.5,0.3,2.7,0.9,3.6s1.5,1.3,2.6,1.3s2-0.4,2.6-1.3s0.9-2.2,0.9-3.8c0-1.5-0.3-2.7-1-3.6c-0.6-0.9-1.5-1.3-2.6-1.3
		c-1.1,0-1.9,0.4-2.6,1.3C112.5,207.4,112.1,208.7,112.1,210.4z"/>
	<path class="st1" d="M128.5,202.8l0.1,1.5c1-1.2,2.5-1.8,4.3-1.8c2,0,3.3,0.8,4.1,2.3c1.1-1.5,2.6-2.3,4.5-2.3
		c1.6,0,2.8,0.5,3.6,1.4s1.2,2.2,1.2,4v9.7H143V208c0-0.9-0.2-1.6-0.6-2.1s-1.1-0.7-2-0.7c-0.8,0-1.4,0.2-1.9,0.6s-0.8,0.9-1,1.6
		l0,10.1h-3.3v-9.7c0-1.7-0.9-2.6-2.7-2.6c-1.3,0-2.3,0.5-2.8,1.6v10.7h-3.3v-14.8H128.5z"/>
	<path class="st1" d="M162.7,210.4c0,2.3-0.5,4.1-1.6,5.5s-2.4,2-4.2,2c-1.6,0-2.9-0.5-3.9-1.6v7h-3.3v-20.5h3.1l0.1,1.5
		c1-1.2,2.3-1.8,4-1.8c1.8,0,3.2,0.7,4.2,2s1.5,3.2,1.5,5.6V210.4z M159.4,210.1c0-1.5-0.3-2.6-0.9-3.5s-1.4-1.3-2.5-1.3
		c-1.4,0-2.3,0.6-2.9,1.7v6.6c0.6,1.1,1.6,1.7,3,1.7c1.1,0,1.9-0.4,2.5-1.3S159.4,211.8,159.4,210.1z"/>
	<path class="st1" d="M174.5,216.2c-1,1.1-2.4,1.7-4.2,1.7c-1.6,0-2.8-0.5-3.6-1.4s-1.2-2.3-1.2-4.1v-9.6h3.3v9.5
		c0,1.9,0.8,2.8,2.3,2.8c1.6,0,2.7-0.6,3.3-1.7v-10.6h3.3v14.8h-3.1L174.5,216.2z"/>
	<path class="st1" d="M185.2,199.2v3.6h2.6v2.5h-2.6v8.3c0,0.6,0.1,1,0.3,1.2s0.6,0.4,1.2,0.4c0.4,0,0.8,0,1.2-0.1v2.6
		c-0.8,0.2-1.5,0.3-2.2,0.3c-2.6,0-3.8-1.4-3.8-4.2v-8.4h-2.4v-2.5h2.4v-3.6H185.2z"/>
	<path class="st1" d="M196.9,217.9c-2.1,0-3.8-0.7-5.1-2s-2-3.1-2-5.3v-0.4c0-1.5,0.3-2.8,0.9-4s1.4-2.1,2.4-2.7s2.2-1,3.4-1
		c2,0,3.6,0.6,4.7,1.9s1.6,3.1,1.6,5.5v1.3h-9.7c0.1,1.2,0.5,2.2,1.2,2.9s1.6,1.1,2.7,1.1c1.5,0,2.8-0.6,3.7-1.8l1.8,1.7
		c-0.6,0.9-1.4,1.6-2.4,2.1S198.1,217.9,196.9,217.9z M196.5,205.2c-0.9,0-1.6,0.3-2.2,1s-0.9,1.5-1.1,2.7h6.3v-0.2
		c-0.1-1.1-0.4-2-0.9-2.5S197.4,205.2,196.5,205.2z"/>
	<path class="st1" d="M213.1,205.9c-0.4-0.1-0.9-0.1-1.4-0.1c-1.5,0-2.5,0.6-3.1,1.8v10.1h-3.3v-14.8h3.2l0.1,1.7
		c0.8-1.3,1.9-1.9,3.3-1.9c0.5,0,0.9,0.1,1.2,0.2L213.1,205.9z"/>
</g>
<g>
	<polygon class="st1" points="189.8,95.4 197.8,95.4 197.8,133.5 156.1,174.7 155.5,161 176.9,112.3 	"/>
	<polyline class="st2" points="176.9,140.9 176.9,112.3 52.2,112.3 52.2,140.9 	"/>
	<g>
		<polygon class="st3" points="33.7,160.3 51.1,142.9 174.1,142.9 156.6,160.3 		"/>
		<path class="st1" d="M169.2,144.9l-13.4,13.4H38.5l13.4-13.4L169.2,144.9 M178.9,140.9H50.2l-21.4,21.4h128.7L178.9,140.9
			L178.9,140.9z"/>
	</g>
	<polyline class="st2" points="30.8,162.3 30.8,173 155.5,173 155.5,162.3 	"/>
	<path class="st1" d="M80.5,7.8h102.2c4.1,0,7.5,3.4,7.5,7.5v83.4H73V15.3C73,11.1,76.4,7.8,80.5,7.8z"/>
	<path class="st2" d="M66.8,21.4h102.3c4.1,0,7.4,3.3,7.4,7.5v83.5H59.4V28.8C59.4,24.7,62.8,21.4,66.8,21.4L66.8,21.4z"/>
	<polygon class="st1" points="61.1,21.3 75.8,9.5 97.1,11.2 75.3,21.5 	"/>
	<line class="st4" x1="62.5" y1="128" x2="68.6" y2="128"/>
	<line class="st4" x1="132.9" y1="128" x2="162.8" y2="128"/>
	<polygon class="st1" points="183.3,92.1 176.9,96.7 176.6,112.3 193.3,109.6 186.8,92.1 	"/>
	<rect x="72.9" y="33.3" class="st2" width="90.3" height="67"/>
	<rect x="104.1" y="45.2" class="st2" width="42.8" height="29.9"/>
	<rect x="88.3" y="58.6" class="st2" width="42.8" height="29.9"/>
</g>
</svg>
