<?xml version="1.0" encoding="utf-8"?>
<!-- Generator: Adobe Illustrator 27.2.0, SVG Export Plug-In . SVG Version: 6.00 Build 0)  -->
<svg version="1.1" id="Ebene_3" xmlns="http://www.w3.org/2000/svg" xmlns:xlink="http://www.w3.org/1999/xlink" x="0px" y="0px"
	 viewBox="0 0 233.8 233.8" style="enable-background:new 0 0 233.8 233.8;" xml:space="preserve">
<style type="text/css">
	.st0{enable-background:new    ;}
	.st1{fill:#353230;}
	.st2{fill:#FCF4E4;}
</style>
<g class="st0">
	<path class="st1" d="M4.6,210.1c0-2.3,0.5-4.1,1.6-5.5c1.1-1.4,2.5-2.1,4.3-2.1c1.6,0,2.8,0.5,3.8,1.6v-7.6h3.3v21h-3l-0.2-1.5
		c-1,1.2-2.3,1.8-4,1.8c-1.7,0-3.1-0.7-4.2-2.1C5.2,214.4,4.6,212.5,4.6,210.1z M7.9,210.4c0,1.5,0.3,2.7,0.9,3.5
		c0.6,0.8,1.4,1.3,2.5,1.3c1.4,0,2.4-0.6,3-1.8v-6.3c-0.6-1.2-1.6-1.8-3-1.8c-1.1,0-1.9,0.4-2.5,1.3C8.2,207.4,7.9,208.7,7.9,210.4z
		"/>
	<path class="st1" d="M29.9,217.6c-0.1-0.3-0.3-0.7-0.4-1.4c-1.1,1.1-2.4,1.7-3.9,1.7c-1.5,0-2.7-0.4-3.6-1.3
		c-0.9-0.8-1.4-1.9-1.4-3.1c0-1.6,0.6-2.8,1.8-3.6c1.2-0.8,2.8-1.3,5-1.3h2v-1c0-0.8-0.2-1.4-0.6-1.8c-0.4-0.5-1.1-0.7-2-0.7
		c-0.8,0-1.4,0.2-1.9,0.6c-0.5,0.4-0.7,0.9-0.7,1.4h-3.3c0-0.8,0.3-1.6,0.8-2.3c0.5-0.7,1.3-1.3,2.2-1.7c0.9-0.4,2-0.6,3.1-0.6
		c1.7,0,3.1,0.4,4.1,1.3c1,0.9,1.6,2.1,1.6,3.7v6.7c0,1.3,0.2,2.4,0.6,3.2v0.2H29.9z M26.2,215.2c0.7,0,1.3-0.2,1.9-0.5
		c0.6-0.3,1-0.7,1.3-1.3v-2.8h-1.8c-1.2,0-2.2,0.2-2.8,0.6c-0.6,0.4-0.9,1-0.9,1.8c0,0.6,0.2,1.1,0.6,1.5S25.5,215.2,26.2,215.2z"/>
	<path class="st1" d="M43.9,205.9c-0.4-0.1-0.9-0.1-1.4-0.1c-1.5,0-2.5,0.6-3.1,1.8v10.1h-3.3v-14.8h3.2l0.1,1.7
		c0.8-1.3,1.9-1.9,3.3-1.9c0.5,0,0.9,0.1,1.2,0.2L43.9,205.9z"/>
	<path class="st1" d="M50.8,211.3l-1.5,1.5v4.8H46v-21h3.3v12.1l1-1.3l4.1-4.6h4L53,209l6.1,8.6h-3.8L50.8,211.3z"/>
	<path class="st1" d="M71.5,220.2H59v-2.6h12.5V220.2z"/>
	<path class="st1" d="M86.2,210.4c0,2.3-0.5,4.1-1.6,5.5s-2.4,2-4.2,2c-1.6,0-2.9-0.5-3.9-1.6v7h-3.3v-20.5h3.1l0.1,1.5
		c1-1.2,2.3-1.8,4-1.8c1.8,0,3.2,0.7,4.2,2s1.5,3.2,1.5,5.6V210.4z M82.9,210.1c0-1.5-0.3-2.6-0.9-3.5s-1.4-1.3-2.5-1.3
		c-1.4,0-2.3,0.6-2.9,1.7v6.6c0.6,1.1,1.6,1.7,3,1.7c1.1,0,1.9-0.4,2.5-1.3C82.6,213.1,82.9,211.8,82.9,210.1z"/>
	<path class="st1" d="M97.9,217.6c-0.1-0.3-0.3-0.7-0.4-1.4c-1.1,1.1-2.4,1.7-3.9,1.7c-1.5,0-2.7-0.4-3.6-1.3
		c-0.9-0.8-1.4-1.9-1.4-3.1c0-1.6,0.6-2.8,1.8-3.6c1.2-0.8,2.8-1.3,5-1.3h2v-1c0-0.8-0.2-1.4-0.6-1.8c-0.4-0.5-1.1-0.7-2-0.7
		c-0.8,0-1.4,0.2-1.9,0.6c-0.5,0.4-0.7,0.9-0.7,1.4h-3.3c0-0.8,0.3-1.6,0.8-2.3c0.5-0.7,1.3-1.3,2.2-1.7c0.9-0.4,2-0.6,3.1-0.6
		c1.7,0,3.1,0.4,4.1,1.3c1,0.9,1.6,2.1,1.6,3.7v6.7c0,1.3,0.2,2.4,0.6,3.2v0.2H97.9z M94.2,215.2c0.7,0,1.3-0.2,1.9-0.5
		c0.6-0.3,1-0.7,1.3-1.3v-2.8h-1.8c-1.2,0-2.2,0.2-2.8,0.6c-0.6,0.4-0.9,1-0.9,1.8c0,0.6,0.2,1.1,0.6,1.5S93.5,215.2,94.2,215.2z"/>
	<path class="st1" d="M108.4,199.2v3.6h2.6v2.5h-2.6v8.3c0,0.6,0.1,1,0.3,1.2c0.2,0.3,0.6,0.4,1.2,0.4c0.4,0,0.8,0,1.2-0.1v2.6
		c-0.8,0.2-1.5,0.3-2.2,0.3c-2.6,0-3.8-1.4-3.8-4.2v-8.4h-2.4v-2.5h2.4v-3.6H108.4z"/>
	<path class="st1" d="M117.7,199.2v3.6h2.6v2.5h-2.6v8.3c0,0.6,0.1,1,0.3,1.2c0.2,0.3,0.6,0.4,1.2,0.4c0.4,0,0.8,0,1.2-0.1v2.6
		c-0.8,0.2-1.5,0.3-2.2,0.3c-2.6,0-3.8-1.4-3.8-4.2v-8.4h-2.4v-2.5h2.4v-3.6H117.7z"/>
	<path class="st1" d="M129.3,217.9c-2.1,0-3.8-0.7-5.1-2c-1.3-1.3-2-3.1-2-5.3v-0.4c0-1.5,0.3-2.8,0.9-4c0.6-1.2,1.4-2.1,2.4-2.7
		c1-0.6,2.2-1,3.4-1c2,0,3.6,0.6,4.7,1.9c1.1,1.3,1.6,3.1,1.6,5.5v1.3h-9.7c0.1,1.2,0.5,2.2,1.2,2.9c0.7,0.7,1.6,1.1,2.7,1.1
		c1.5,0,2.8-0.6,3.7-1.8l1.8,1.7c-0.6,0.9-1.4,1.6-2.4,2.1C131.7,217.6,130.6,217.9,129.3,217.9z M128.9,205.2c-0.9,0-1.6,0.3-2.2,1
		s-0.9,1.5-1.1,2.7h6.3v-0.2c-0.1-1.1-0.4-2-0.9-2.5S129.9,205.2,128.9,205.2z"/>
	<path class="st1" d="M145.6,205.9c-0.4-0.1-0.9-0.1-1.4-0.1c-1.5,0-2.5,0.6-3.1,1.8v10.1h-3.3v-14.8h3.2l0.1,1.7
		c0.8-1.3,1.9-1.9,3.3-1.9c0.5,0,0.9,0.1,1.2,0.2L145.6,205.9z"/>
	<path class="st1" d="M150.8,202.8l0.1,1.7c1.1-1.3,2.5-2,4.3-2c3.1,0,4.6,1.8,4.7,5.3v9.8h-3.3V208c0-0.9-0.2-1.6-0.6-2.1
		c-0.4-0.5-1.1-0.7-2-0.7c-1.3,0-2.3,0.6-3,1.8v10.5h-3.3v-14.8H150.8z"/>
	<path class="st1" d="M171.6,213.6c0-0.6-0.2-1-0.7-1.4c-0.5-0.3-1.3-0.6-2.4-0.8c-1.1-0.2-2.1-0.5-2.8-0.9c-1.7-0.8-2.5-2-2.5-3.5
		c0-1.3,0.5-2.3,1.6-3.2c1.1-0.9,2.4-1.3,4.1-1.3c1.8,0,3.2,0.4,4.3,1.3c1.1,0.9,1.6,2,1.6,3.4h-3.3c0-0.6-0.2-1.2-0.7-1.6
		c-0.5-0.4-1.1-0.6-1.9-0.6c-0.7,0-1.3,0.2-1.8,0.5c-0.5,0.3-0.7,0.8-0.7,1.4c0,0.5,0.2,0.9,0.6,1.2c0.4,0.3,1.3,0.6,2.6,0.9
		c1.3,0.3,2.3,0.6,3.1,1c0.7,0.4,1.3,0.9,1.7,1.4c0.4,0.6,0.5,1.2,0.5,2c0,1.3-0.6,2.4-1.7,3.2c-1.1,0.8-2.5,1.2-4.3,1.2
		c-1.2,0-2.3-0.2-3.2-0.7c-0.9-0.4-1.7-1-2.2-1.8c-0.5-0.8-0.8-1.6-0.8-2.5h3.2c0,0.8,0.3,1.4,0.9,1.8s1.3,0.6,2.2,0.6
		c0.9,0,1.5-0.2,2-0.5C171.3,214.6,171.6,214.1,171.6,213.6z"/>
	<path class="st1" d="M179.8,214.1c0.6,0,1.1,0.2,1.4,0.5c0.3,0.4,0.5,0.8,0.5,1.3c0,0.5-0.2,1-0.5,1.3c-0.3,0.3-0.8,0.5-1.4,0.5
		c-0.6,0-1.1-0.2-1.4-0.5c-0.3-0.3-0.5-0.8-0.5-1.3s0.2-1,0.5-1.3C178.7,214.3,179.2,214.1,179.8,214.1z"/>
	<path class="st1" d="M184.9,210.1c0-2.3,0.5-4.1,1.6-5.5c1.1-1.4,2.5-2.1,4.3-2.1c1.6,0,2.8,0.5,3.8,1.6v-7.6h3.3v21h-3l-0.2-1.5
		c-1,1.2-2.3,1.8-4,1.8c-1.7,0-3.1-0.7-4.2-2.1C185.4,214.4,184.9,212.5,184.9,210.1z M188.2,210.4c0,1.5,0.3,2.7,0.9,3.5
		c0.6,0.8,1.4,1.3,2.5,1.3c1.4,0,2.4-0.6,3-1.8v-6.3c-0.6-1.2-1.6-1.8-3-1.8c-1.1,0-1.9,0.4-2.5,1.3
		C188.5,207.4,188.2,208.7,188.2,210.4z"/>
	<path class="st1" d="M200.7,210.1c0-1.4,0.3-2.8,0.9-3.9s1.4-2.1,2.4-2.7s2.2-0.9,3.6-0.9c2,0,3.6,0.6,4.9,1.9s1.9,3,2,5.1l0,0.8
		c0,1.5-0.3,2.8-0.8,3.9s-1.4,2-2.4,2.7c-1,0.6-2.2,0.9-3.6,0.9c-2.1,0-3.8-0.7-5-2.1c-1.3-1.4-1.9-3.2-1.9-5.6V210.1z M204,210.4
		c0,1.5,0.3,2.7,0.9,3.6s1.5,1.3,2.6,1.3s2-0.4,2.6-1.3c0.6-0.9,0.9-2.2,0.9-3.8c0-1.5-0.3-2.7-1-3.6s-1.5-1.3-2.6-1.3
		c-1.1,0-1.9,0.4-2.6,1.3C204.4,207.4,204,208.7,204,210.4z"/>
	<path class="st1" d="M223.4,215.2c0.8,0,1.5-0.2,2.1-0.7s0.8-1.1,0.9-1.8h3.1c0,0.9-0.3,1.8-0.9,2.6c-0.5,0.8-1.3,1.4-2.2,1.9
		c-0.9,0.5-1.9,0.7-3,0.7c-2.1,0-3.7-0.7-4.9-2c-1.2-1.3-1.8-3.2-1.8-5.6V210c0-2.3,0.6-4.1,1.8-5.4s2.8-2,4.9-2
		c1.8,0,3.2,0.5,4.3,1.5s1.7,2.4,1.7,4h-3.1c0-0.8-0.3-1.5-0.9-2.1c-0.5-0.5-1.2-0.8-2.1-0.8c-1.1,0-1.9,0.4-2.5,1.2
		c-0.6,0.8-0.9,2-0.9,3.5v0.5c0,1.6,0.3,2.8,0.9,3.6C221.4,214.8,222.3,215.2,223.4,215.2z"/>
</g>
<g>
	<g>
		<polygon class="st2" points="55.3,173.8 55.3,18.2 147.2,18.2 178.5,46.5 178.5,173.8 		"/>
		<path class="st1" d="M146.4,20.2l30.1,27.1v124.4H57.3V20.2H146.4 M147.9,16.2H53.3v159.6h127.2V45.6L147.9,16.2L147.9,16.2
			L147.9,16.2z"/>
	</g>
	<g>
		<polygon class="st2" points="149.9,43.6 149.9,20.7 175.3,43.6 		"/>
		<path class="st1" d="M151.9,25.2l18.1,16.4h-18.1V25.2 M147.9,16.2v29.4h32.6L147.9,16.2L147.9,16.2z"/>
	</g>
</g>
<rect x="82.1" y="57.8" class="st1" width="69.6" height="5.3"/>
<rect x="82.1" y="67.9" class="st1" width="69.6" height="5.3"/>
<rect x="82.1" y="78.1" class="st1" width="69.6" height="5.3"/>
<rect x="82.1" y="88.2" class="st1" width="69.6" height="5.3"/>
<rect x="82.1" y="98.4" class="st1" width="69.6" height="5.3"/>
<rect x="82.1" y="108.5" class="st1" width="69.6" height="5.3"/>
<rect x="82.1" y="118.7" class="st1" width="69.6" height="5.3"/>
<rect x="82.1" y="128.8" class="st1" width="22" height="5.3"/>
<g>
	<rect x="38.8" y="40.9" class="st2" width="53.1" height="53.1"/>
	<path class="st1" d="M89.9,42.9V92H40.8V42.9L89.9,42.9 M93.9,38.9H36.8V96h57.1V38.9L93.9,38.9z"/>
</g>
<polygon class="st1" points="91.8,51.3 74.9,51.3 74.9,57 78.7,57 72.8,66.7 72.8,51.3 64.7,51.3 57.4,66.1 57.4,57 61.4,57 
	61.4,51.3 44.5,51.3 44.5,57 48,57 48,85 55.8,85 63.5,71.9 63.5,85 72.8,85 87.9,57 91.8,57 "/>
</svg>
