<?xml version="1.0" encoding="utf-8"?>
<!-- Generator: Adobe Illustrator 27.2.0, SVG Export Plug-In . SVG Version: 6.00 Build 0)  -->
<svg version="1.1" id="Ebene_3" xmlns="http://www.w3.org/2000/svg" xmlns:xlink="http://www.w3.org/1999/xlink" x="0px" y="0px"
	 viewBox="0 0 233.8 233.8" style="enable-background:new 0 0 233.8 233.8;" xml:space="preserve">
<style type="text/css">
	.st0{enable-background:new    ;}
	.st1{fill:#2E2C2A;}
	.st2{fill:#FCF2E0;}
	.st3{fill:#2E2C2B;}
</style>
<g class="st0">
	<path class="st1" d="M45,217.6v-19.9h5.9c1.8,0,3.3,0.4,4.7,1.2c1.4,0.8,2.4,1.9,3.2,3.3c0.7,1.4,1.1,3.1,1.1,4.9v1
		c0,1.9-0.4,3.5-1.1,5s-1.8,2.5-3.2,3.3c-1.4,0.8-3,1.2-4.8,1.2H45z M48.5,200.5v14.4h2.3c1.8,0,3.2-0.6,4.2-1.7s1.5-2.8,1.5-4.9
		v-1.1c0-2.2-0.5-3.8-1.4-4.9c-0.9-1.1-2.3-1.7-4.1-1.7H48.5z"/>
	<path class="st1" d="M69.5,217.9c-2.1,0-3.8-0.7-5.1-2c-1.3-1.3-2-3.1-2-5.3v-0.4c0-1.5,0.3-2.8,0.9-4c0.6-1.2,1.4-2.1,2.4-2.7
		c1-0.6,2.2-1,3.4-1c2,0,3.6,0.6,4.7,1.9c1.1,1.3,1.6,3.1,1.6,5.5v1.3h-9.7c0.1,1.2,0.5,2.2,1.2,2.9c0.7,0.7,1.6,1.1,2.7,1.1
		c1.5,0,2.8-0.6,3.7-1.8l1.8,1.7c-0.6,0.9-1.4,1.6-2.4,2.1C71.8,217.6,70.7,217.9,69.5,217.9z M69.1,205.2c-0.9,0-1.6,0.3-2.2,1
		s-0.9,1.5-1.1,2.7h6.3v-0.2c-0.1-1.1-0.4-2-0.9-2.5S70,205.2,69.1,205.2z"/>
	<path class="st1" d="M86.3,213.6c0-0.6-0.2-1-0.7-1.4c-0.5-0.3-1.3-0.6-2.4-0.8c-1.1-0.2-2.1-0.5-2.8-0.9c-1.7-0.8-2.5-2-2.5-3.5
		c0-1.3,0.5-2.3,1.6-3.2c1.1-0.9,2.4-1.3,4.1-1.3c1.8,0,3.2,0.4,4.3,1.3c1.1,0.9,1.6,2,1.6,3.4h-3.3c0-0.6-0.2-1.2-0.7-1.6
		c-0.5-0.4-1.1-0.6-1.9-0.6c-0.7,0-1.3,0.2-1.8,0.5c-0.5,0.3-0.7,0.8-0.7,1.4c0,0.5,0.2,0.9,0.6,1.2c0.4,0.3,1.3,0.6,2.6,0.9
		c1.3,0.3,2.3,0.6,3.1,1c0.7,0.4,1.3,0.9,1.7,1.4c0.4,0.6,0.5,1.2,0.5,2c0,1.3-0.6,2.4-1.7,3.2c-1.1,0.8-2.5,1.2-4.3,1.2
		c-1.2,0-2.3-0.2-3.2-0.7c-0.9-0.4-1.7-1-2.2-1.8c-0.5-0.8-0.8-1.6-0.8-2.5h3.2c0,0.8,0.3,1.4,0.9,1.8s1.3,0.6,2.2,0.6
		c0.9,0,1.5-0.2,2-0.5C86.1,214.6,86.3,214.1,86.3,213.6z"/>
	<path class="st1" d="M92.5,199c0-0.5,0.2-0.9,0.5-1.3c0.3-0.3,0.8-0.5,1.4-0.5s1.1,0.2,1.4,0.5s0.5,0.8,0.5,1.3
		c0,0.5-0.2,0.9-0.5,1.3s-0.8,0.5-1.4,0.5s-1.1-0.2-1.4-0.5C92.6,199.9,92.5,199.5,92.5,199z M96,217.6h-3.3v-14.8H96V217.6z"/>
	<path class="st1" d="M99,210.1c0-2.3,0.5-4.1,1.6-5.5s2.5-2.1,4.3-2.1c1.7,0,3,0.6,4,1.8l0.2-1.5h3v14.3c0,1.9-0.6,3.5-1.8,4.6
		c-1.2,1.1-2.8,1.7-4.9,1.7c-1.1,0-2.1-0.2-3.2-0.7c-1-0.5-1.8-1-2.4-1.8l1.6-2c1,1.2,2.3,1.8,3.8,1.8c1.1,0,2-0.3,2.6-0.9
		c0.6-0.6,1-1.5,1-2.6v-1c-1,1.1-2.2,1.6-3.8,1.6c-1.7,0-3.1-0.7-4.2-2.1C99.6,214.5,99,212.5,99,210.1z M102.3,210.4
		c0,1.5,0.3,2.7,0.9,3.5c0.6,0.9,1.4,1.3,2.5,1.3c1.3,0,2.3-0.6,3-1.7V207c-0.6-1.1-1.6-1.7-3-1.7c-1.1,0-1.9,0.4-2.5,1.3
		C102.6,207.4,102.3,208.7,102.3,210.4z"/>
	<path class="st1" d="M118.6,202.8l0.1,1.7c1.1-1.3,2.5-2,4.3-2c3.1,0,4.6,1.8,4.7,5.3v9.8h-3.3V208c0-0.9-0.2-1.6-0.6-2.1
		c-0.4-0.5-1.1-0.7-2-0.7c-1.3,0-2.3,0.6-3,1.8v10.5h-3.3v-14.8H118.6z"/>
	<path class="st1" d="M137.6,217.9c-2.1,0-3.8-0.7-5.1-2c-1.3-1.3-2-3.1-2-5.3v-0.4c0-1.5,0.3-2.8,0.9-4c0.6-1.2,1.4-2.1,2.4-2.7
		c1-0.6,2.2-1,3.4-1c2,0,3.6,0.6,4.7,1.9c1.1,1.3,1.6,3.1,1.6,5.5v1.3h-9.7c0.1,1.2,0.5,2.2,1.2,2.9c0.7,0.7,1.6,1.1,2.7,1.1
		c1.5,0,2.8-0.6,3.7-1.8l1.8,1.7c-0.6,0.9-1.4,1.6-2.4,2.1C139.9,217.6,138.8,217.9,137.6,217.9z M137.2,205.2c-0.9,0-1.6,0.3-2.2,1
		s-0.9,1.5-1.1,2.7h6.3v-0.2c-0.1-1.1-0.4-2-0.9-2.5S138.1,205.2,137.2,205.2z"/>
	<path class="st1" d="M153.8,205.9c-0.4-0.1-0.9-0.1-1.4-0.1c-1.5,0-2.5,0.6-3.1,1.8v10.1h-3.3v-14.8h3.2l0.1,1.7
		c0.8-1.3,1.9-1.9,3.3-1.9c0.5,0,0.9,0.1,1.2,0.2L153.8,205.9z"/>
	<path class="st1" d="M171.4,211.1c-0.2,2.1-1,3.8-2.4,5s-3.2,1.8-5.5,1.8c-1.6,0-3-0.4-4.2-1.1c-1.2-0.8-2.1-1.8-2.8-3.2
		s-1-3-1-4.8v-1.9c0-1.9,0.3-3.5,1-5c0.7-1.4,1.6-2.5,2.9-3.3s2.7-1.2,4.3-1.2c2.2,0,4,0.6,5.3,1.8s2.1,2.9,2.3,5.1H168
		c-0.2-1.4-0.6-2.5-1.3-3.1s-1.7-1-2.9-1c-1.5,0-2.7,0.5-3.5,1.6c-0.8,1.1-1.2,2.7-1.2,4.8v1.8c0,2.2,0.4,3.8,1.2,4.9
		c0.8,1.1,1.9,1.7,3.4,1.7c1.4,0,2.4-0.3,3.1-0.9s1.1-1.6,1.3-3H171.4z"/>
	<path class="st1" d="M189.7,211.1c-0.2,2.1-1,3.8-2.4,5s-3.2,1.8-5.5,1.8c-1.6,0-3-0.4-4.2-1.1c-1.2-0.8-2.1-1.8-2.8-3.2
		s-1-3-1-4.8v-1.9c0-1.9,0.3-3.5,1-5c0.7-1.4,1.6-2.5,2.9-3.3s2.7-1.2,4.3-1.2c2.2,0,4,0.6,5.3,1.8s2.1,2.9,2.3,5.1h-3.4
		c-0.2-1.4-0.6-2.5-1.3-3.1s-1.7-1-2.9-1c-1.5,0-2.7,0.5-3.5,1.6c-0.8,1.1-1.2,2.7-1.2,4.8v1.8c0,2.2,0.4,3.8,1.2,4.9
		c0.8,1.1,1.9,1.7,3.4,1.7c1.4,0,2.4-0.3,3.1-0.9s1.1-1.6,1.3-3H189.7z"/>
</g>
<g>
	<rect x="45.8" y="20.2" class="st2" width="142.1" height="142.1"/>
	<path class="st3" d="M185.9,22.2v138.1H47.8V22.2H185.9 M189.9,18.2H43.8v146.1h146.1V18.2L189.9,18.2z"/>
</g>
<rect x="62.4" y="36.8" class="st3" width="109" height="109"/>
<g>
	<g class="st0">
		<path class="st2" d="M77.1,115.7V65h13.7c3.9,0,7.4,1,10.5,3c3.1,2,5.5,4.9,7.3,8.6c1.7,3.7,2.6,7.9,2.6,12.6v2.3
			c0,4.7-0.9,8.9-2.6,12.6c-1.7,3.7-4.1,6.5-7.2,8.5c-3.1,2-6.6,3-10.5,3.1H77.1z M86.3,73.4v33.9h4.4c3.6,0,6.4-1.3,8.3-4
			c1.9-2.7,2.9-6.5,2.9-11.5v-2.7c0-5.2-0.9-9.1-2.8-11.7c-1.9-2.7-4.6-4-8.3-4H86.3z"/>
	</g>
	<g class="st0">
		<path class="st2" d="M128,80.4c0-0.9-0.3-1.5-0.9-2c-0.6-0.5-1.7-0.9-3.3-1.4s-2.8-1-3.7-1.5c-2.5-1.3-3.7-3.2-3.7-5.4
			c0-1.2,0.3-2.2,1-3.2c0.7-0.9,1.6-1.7,2.9-2.2c1.2-0.5,2.7-0.8,4.2-0.8c1.6,0,3,0.3,4.2,0.9c1.2,0.6,2.2,1.4,2.9,2.4
			c0.7,1,1,2.2,1,3.5H128c0-1-0.3-1.8-0.9-2.3c-0.6-0.6-1.5-0.8-2.7-0.8c-1.1,0-2,0.2-2.6,0.7c-0.6,0.5-0.9,1.1-0.9,1.8
			c0,0.7,0.4,1.3,1.1,1.8s1.8,0.9,3.2,1.4c2.6,0.8,4.4,1.7,5.6,2.9c1.2,1.1,1.8,2.6,1.8,4.3c0,1.9-0.7,3.4-2.2,4.5
			c-1.4,1.1-3.4,1.6-5.8,1.6c-1.7,0-3.2-0.3-4.6-0.9c-1.4-0.6-2.4-1.5-3.2-2.5s-1.1-2.3-1.1-3.7h4.5c0,2.4,1.4,3.6,4.3,3.6
			c1.1,0,1.9-0.2,2.5-0.7C127.7,81.8,128,81.2,128,80.4z"/>
	</g>
	<g class="st0">
		<path class="st2" d="M154.1,83.4c-0.8,1-2,1.7-3.4,2.3c-1.5,0.5-3.1,0.8-4.9,0.8c-1.9,0-3.6-0.4-5-1.2c-1.4-0.8-2.5-2-3.3-3.6
			c-0.8-1.6-1.2-3.4-1.2-5.6v-1.5c0-2.2,0.4-4.1,1.1-5.7c0.7-1.6,1.8-2.8,3.2-3.7c1.4-0.8,3-1.3,4.9-1.3c2.6,0,4.6,0.6,6.1,1.9
			c1.5,1.2,2.3,3,2.6,5.4h-4.4c-0.2-1.3-0.6-2.2-1.3-2.8s-1.6-0.9-2.8-0.9c-1.5,0-2.7,0.6-3.5,1.7s-1.2,2.9-1.2,5.1v1.4
			c0,2.3,0.4,4,1.3,5.2c0.9,1.2,2.2,1.8,3.8,1.8c1.7,0,2.9-0.4,3.6-1.1V78h-4.1v-3.3h8.6V83.4z"/>
	</g>
	<g class="st0">
		<path class="st2" d="M134.3,115.7h-4.5l-8.8-14.4v14.4h-4.5V93.8h4.5l8.8,14.5V93.8h4.5V115.7z"/>
		<path class="st2" d="M146.3,107.7h-3.6v8h-4.5V93.8h8.1c2.6,0,4.6,0.6,6,1.7c1.4,1.2,2.1,2.8,2.1,4.9c0,1.5-0.3,2.7-1,3.7
			c-0.6,1-1.6,1.8-2.9,2.4l4.7,9v0.2h-4.8L146.3,107.7z M142.7,104h3.6c1.1,0,2-0.3,2.6-0.9c0.6-0.6,0.9-1.4,0.9-2.4
			c0-1-0.3-1.8-0.9-2.4c-0.6-0.6-1.5-0.9-2.7-0.9h-3.6V104z"/>
	</g>
</g>
</svg>
