<?xml version="1.0" encoding="utf-8"?>
<!-- Generator: Adobe Illustrator 27.2.0, SVG Export Plug-In . SVG Version: 6.00 Build 0)  -->
<svg version="1.1" id="Ebene_3" xmlns="http://www.w3.org/2000/svg" xmlns:xlink="http://www.w3.org/1999/xlink" x="0px" y="0px"
	 viewBox="0 0 233.8 233.8" style="enable-background:new 0 0 233.8 233.8;" xml:space="preserve">
<style type="text/css">
	.st0{enable-background:new    ;}
	.st1{fill:#353230;}
	.st2{fill:#FBF3E4;}
	.st3{fill:#343230;}
	.st4{fill:#FBF3E4;stroke:#343230;stroke-width:4;stroke-linecap:round;stroke-linejoin:round;stroke-miterlimit:10;}
</style>
<g class="st0">
	<path class="st1" d="M64,197.7l5.7,15.3l5.7-15.3h4.5v19.9h-3.4v-6.6l0.3-8.8l-5.9,15.3h-2.5l-5.9-15.3l0.3,8.8v6.6h-3.4v-19.9H64z
		"/>
	<path class="st1" d="M88.8,212.9l3-10h3.5l-5.9,17c-0.9,2.5-2.4,3.7-4.6,3.7c-0.5,0-1-0.1-1.6-0.2v-2.6l0.6,0
		c0.8,0,1.5-0.2,1.9-0.5c0.4-0.3,0.8-0.8,1-1.5l0.5-1.3l-5.2-14.7h3.6L88.8,212.9z"/>
	<path class="st1" d="M113.4,217.6H110l-8.9-14.1v14.1h-3.5v-19.9h3.5l8.9,14.2v-14.2h3.4V217.6z"/>
	<path class="st1" d="M126.1,216.2c-1,1.1-2.4,1.7-4.2,1.7c-1.6,0-2.8-0.5-3.6-1.4c-0.8-0.9-1.2-2.3-1.2-4.1v-9.6h3.3v9.5
		c0,1.9,0.8,2.8,2.3,2.8c1.6,0,2.7-0.6,3.3-1.7v-10.6h3.3v14.8h-3.1L126.1,216.2z"/>
	<path class="st1" d="M132.1,210.1c0-2.3,0.5-4.1,1.6-5.5c1.1-1.4,2.5-2.1,4.3-2.1c1.6,0,2.8,0.5,3.8,1.6v-7.6h3.3v21h-3l-0.2-1.5
		c-1,1.2-2.3,1.8-4,1.8c-1.7,0-3.1-0.7-4.2-2.1C132.6,214.4,132.1,212.5,132.1,210.1z M135.4,210.4c0,1.5,0.3,2.7,0.9,3.5
		c0.6,0.8,1.4,1.3,2.5,1.3c1.4,0,2.4-0.6,3-1.8v-6.3c-0.6-1.2-1.6-1.8-3-1.8c-1.1,0-1.9,0.4-2.5,1.3
		C135.7,207.4,135.4,208.7,135.4,210.4z"/>
	<path class="st1" d="M155.1,217.9c-2.1,0-3.8-0.7-5.1-2c-1.3-1.3-2-3.1-2-5.3v-0.4c0-1.5,0.3-2.8,0.9-4c0.6-1.2,1.4-2.1,2.4-2.7
		c1-0.6,2.2-1,3.4-1c2,0,3.6,0.6,4.7,1.9c1.1,1.3,1.6,3.1,1.6,5.5v1.3h-9.7c0.1,1.2,0.5,2.2,1.2,2.9c0.7,0.7,1.6,1.1,2.7,1.1
		c1.5,0,2.8-0.6,3.7-1.8l1.8,1.7c-0.6,0.9-1.4,1.6-2.4,2.1C157.4,217.6,156.3,217.9,155.1,217.9z M154.7,205.2c-0.9,0-1.6,0.3-2.2,1
		s-0.9,1.5-1.1,2.7h6.3v-0.2c-0.1-1.1-0.4-2-0.9-2.5S155.6,205.2,154.7,205.2z"/>
	<path class="st1" d="M171.9,213.6c0-0.6-0.2-1-0.7-1.4c-0.5-0.3-1.3-0.6-2.4-0.8c-1.1-0.2-2.1-0.5-2.8-0.9c-1.7-0.8-2.5-2-2.5-3.5
		c0-1.3,0.5-2.3,1.6-3.2c1.1-0.9,2.4-1.3,4.1-1.3c1.8,0,3.2,0.4,4.3,1.3c1.1,0.9,1.6,2,1.6,3.4h-3.3c0-0.6-0.2-1.2-0.7-1.6
		c-0.5-0.4-1.1-0.6-1.9-0.6c-0.7,0-1.3,0.2-1.8,0.5c-0.5,0.3-0.7,0.8-0.7,1.4c0,0.5,0.2,0.9,0.6,1.2c0.4,0.3,1.3,0.6,2.6,0.9
		c1.3,0.3,2.3,0.6,3.1,1c0.7,0.4,1.3,0.9,1.7,1.4c0.4,0.6,0.5,1.2,0.5,2c0,1.3-0.6,2.4-1.7,3.2c-1.1,0.8-2.5,1.2-4.3,1.2
		c-1.2,0-2.3-0.2-3.2-0.7c-0.9-0.4-1.7-1-2.2-1.8c-0.5-0.8-0.8-1.6-0.8-2.5h3.2c0,0.8,0.3,1.4,0.9,1.8s1.3,0.6,2.2,0.6
		c0.9,0,1.5-0.2,2-0.5C171.6,214.6,171.9,214.1,171.9,213.6z"/>
</g>
<g>
	<path class="st1" d="M61.7,49h111.8c9.7,0,17.5,7.8,17.5,17.5v111.7H44.2V66.4C44.2,56.8,52,49,61.7,49z"/>
	<g>
		<path class="st2" d="M43.6,176.2L23.9,89.3c-0.5-2.1,0-4.3,1.4-5.9c1.3-1.7,3.3-2.6,5.5-2.6h130.1c3.3,0,6.1,2.2,6.9,5.5l20.4,90
			H43.6V176.2z"/>
		<path class="st3" d="M160.8,82.7c2.4,0,4.4,1.6,4.9,3.9l19.9,87.5H45.2L25.8,88.8c-0.3-1.5,0-3,1-4.3c1-1.2,2.4-1.9,3.9-1.9
			L160.8,82.7 M160.8,78.7H30.7c-5.8,0-10.1,5.4-8.8,11L42,178.2h148.6l-21-92.4C168.7,81.6,165,78.7,160.8,78.7L160.8,78.7z"/>
	</g>
	<polygon class="st4" points="113.6,25.1 88.5,6.9 59,56.9 76.2,85.9 	"/>
	<polygon class="st4" points="120.9,4.9 216.2,101.9 173.2,144.3 69.2,57.5 	"/>
	<polygon class="st4" points="32.8,80.6 28.3,53.3 150,27 159.9,73.4 32.8,104.6 	"/>
	<polygon class="st4" points="36.8,85.5 90.3,58.4 99.2,98.6 47.9,107 	"/>
	<polygon class="st4" points="184,114.9 158.5,122.5 99.2,98.6 170.3,68.6 	"/>
	<g>
		<path class="st2" d="M43.6,176.2L23.9,89.3c-0.5-2.1,0-4.3,1.4-5.9c1.3-1.7,3.3-2.6,5.5-2.6h130.1c3.3,0,6.1,2.2,6.9,5.5l20.4,90
			H43.6V176.2z"/>
		<path class="st3" d="M160.8,82.7c2.4,0,4.4,1.6,4.9,3.9l19.9,87.5H45.2L25.8,88.8c-0.3-1.5,0-3,1-4.3c1-1.2,2.4-1.9,3.9-1.9
			L160.8,82.7 M160.8,78.7H30.7c-5.8,0-10.1,5.4-8.8,11L42,178.2h148.6l-21-92.4C168.7,81.6,165,78.7,160.8,78.7L160.8,78.7z"/>
	</g>
	<polygon class="st4" points="90.3,58.4 99.2,98.6 170.3,68.6 	"/>
</g>
</svg>
