<?xml version="1.0" encoding="utf-8"?>
<!-- Generator: Adobe Illustrator 27.2.0, SVG Export Plug-In . SVG Version: 6.00 Build 0)  -->
<svg version="1.1" id="Ebene_3" xmlns="http://www.w3.org/2000/svg" xmlns:xlink="http://www.w3.org/1999/xlink" x="0px" y="0px"
	 viewBox="0 0 233.8 233.8" style="enable-background:new 0 0 233.8 233.8;" xml:space="preserve">
<style type="text/css">
	.st0{fill:#353230;}
	.st1{font-family:'Roboto-Medium';}
	.st2{font-size:28px;}
	.st3{fill:#FBF3E4;}
	.st4{fill:#343230;}
	.st5{fill:#FBF3E4;stroke:#343230;stroke-width:4;stroke-linecap:round;stroke-linejoin:round;stroke-miterlimit:10;}
</style>
<text transform="matrix(1 0 0 1 57.45 217.62)" class="st0 st1 st2">MyNudes</text>
<g>
	<path class="st0" d="M61.7,49h111.8c9.7,0,17.5,7.8,17.5,17.5v111.7H44.2V66.4C44.2,56.8,52,49,61.7,49z"/>
	<g>
		<path class="st3" d="M43.6,176.2L23.9,89.3c-0.5-2.1,0-4.3,1.4-5.9c1.3-1.7,3.3-2.6,5.5-2.6h130.1c3.3,0,6.1,2.2,6.9,5.5l20.4,90
			H43.6z"/>
		<path class="st4" d="M160.8,82.7c2.4,0,4.4,1.6,4.9,3.9l19.9,87.5H45.2L25.8,88.8c-0.3-1.5,0-3,1-4.3c1-1.2,2.4-1.9,3.9-1.9H160.8
			 M160.8,78.7H30.7c-5.8,0-10.1,5.4-8.8,11L42,178.2h148.6l-21-92.4C168.7,81.6,165,78.7,160.8,78.7L160.8,78.7z"/>
	</g>
	<polygon class="st5" points="113.6,25.1 88.5,6.9 59,56.9 76.2,85.9 	"/>
	<polygon class="st5" points="120.9,4.9 216.2,101.9 173.2,144.3 69.2,57.5 	"/>
	<polygon class="st5" points="32.8,80.6 28.3,53.3 150,27 159.9,73.4 32.8,104.6 	"/>
	<polygon class="st5" points="36.8,85.5 90.3,58.4 99.2,98.6 47.9,107 	"/>
	<polygon class="st5" points="184,114.9 158.5,122.5 99.2,98.6 170.3,68.6 	"/>
	<g>
		<path class="st3" d="M43.6,176.2L23.9,89.3c-0.5-2.1,0-4.3,1.4-5.9c1.3-1.7,3.3-2.6,5.5-2.6h130.1c3.3,0,6.1,2.2,6.9,5.5l20.4,90
			H43.6z"/>
		<path class="st4" d="M160.8,82.7c2.4,0,4.4,1.6,4.9,3.9l19.9,87.5H45.2L25.8,88.8c-0.3-1.5,0-3,1-4.3c1-1.2,2.4-1.9,3.9-1.9H160.8
			 M160.8,78.7H30.7c-5.8,0-10.1,5.4-8.8,11L42,178.2h148.6l-21-92.4C168.7,81.6,165,78.7,160.8,78.7L160.8,78.7z"/>
	</g>
	<polygon class="st5" points="90.3,58.4 99.2,98.6 170.3,68.6 	"/>
</g>
</svg>
