<?xml version="1.0" encoding="UTF-8"?>
<svg id="Ebene_2" data-name="Ebene 2" xmlns="http://www.w3.org/2000/svg" xmlns:xlink="http://www.w3.org/1999/xlink" viewBox="0 0 523.14 151.41">
  <defs>
    <style>
      .cls-1 {
        fill: #2e2c2b;
      }

      .cls-2 {
        fill: url(#Unbenannter_Verlauf_17);
      }

      .cls-3 {
        fill: url(#Unbenannter_Verlauf_9);
      }
    </style>
    <linearGradient id="Unbenannter_Verlauf_9" data-name="Unbenannter Verlauf 9" x1="259.57" y1="145.91" x2="259.57" y2="16.04" gradientUnits="userSpaceOnUse">
      <stop offset=".35" stop-color="#bfdedb"/>
      <stop offset=".58" stop-color="#e0e8dd"/>
      <stop offset=".77" stop-color="#f4efdf"/>
      <stop offset=".9" stop-color="#fcf2e0"/>
    </linearGradient>
    <linearGradient id="Unbenannter_Verlauf_17" data-name="Unbenannter Verlauf 17" x1="125.94" y1="25.21" x2="247.36" y2="25.21" gradientUnits="userSpaceOnUse">
      <stop offset="0" stop-color="#bfdedb"/>
      <stop offset=".3" stop-color="#e4d19e"/>
      <stop offset=".46" stop-color="#f5cc83"/>
      <stop offset=".59" stop-color="#f4b989"/>
      <stop offset=".78" stop-color="#f3a591"/>
      <stop offset=".9" stop-color="#f39e94"/>
    </linearGradient>
  </defs>
  <g id="Ebene_3" data-name="Ebene 3">
    <g>
      <g>
        <path class="cls-1" d="m27.01,136.76c-5.67-1.83-11.34-3.87-17.01-6.14V40.54c5.67,2.27,11.34,4.31,17.01,6.14v90.07Z"/>
        <path class="cls-1" d="m64.7,147.18c-9.31-1.6-16.88-6.22-22.72-13.44-5.84-7.24-8.77-15.76-8.77-25.25v-1.64c0-6.37,1.23-11.7,3.69-16.03,2.47-4.33,5.95-7.26,10.47-8.9,4.52-1.64,9.67-1.9,15.45-.86,8.68,1.54,15.51,5.11,20.5,11.11,4.99,6,7.48,13.93,7.48,23.98,0,2.31,0,4.61,0,6.92-13.47-1.1-26.94-3.07-40.4-6.11.55,4.27,2.2,7.97,4.96,11.04,2.76,3.07,6.25,5,10.47,5.71,6.53,1.09,11.63-.64,15.31-4.95,2.78,3.42,5.55,6.81,8.33,10.15-2.54,3.38-5.98,5.86-10.32,7.35-4.34,1.49-9.15,1.83-14.43.92Zm-1.94-52.47c-3.36-.6-6.09,0-8.18,1.83-2.09,1.84-3.43,4.79-4.02,8.9,7.86,1.77,15.72,3.18,23.57,4.26v-1.36c-.08-3.78-1.09-6.83-3.05-9.18-1.95-2.35-4.73-3.81-8.33-4.45Z"/>
        <path class="cls-1" d="m153.48,117.71c0,10.16-2.17,18.29-6.51,24.28-4.34,5.99-10.4,9.21-18.18,9.42-6.88.18-12.38-2.48-16.48-7.83-.25,2.24-.51,4.49-.76,6.73-5.08-.1-10.16-.3-15.25-.63,0-30.02,0-60.05,0-90.07,5.65.36,11.3.58,16.95.66v32.31c3.91-4.52,9.05-6.79,15.42-6.96,7.74-.21,13.81,2.26,18.21,7.65,4.4,5.38,6.59,13.19,6.6,23.51v.94Zm-16.95-.13c0-6.41-1.02-11.04-3.05-13.92-2.03-2.87-5.06-4.24-9.09-4.18-5.4.08-9.11,2.25-11.14,6.64v25.04c2.07,4.48,5.83,6.76,11.26,6.67,5.47-.09,9.07-2.95,10.79-8.41.82-2.62,1.23-6.56,1.23-11.84Z"/>
        <path class="cls-1" d="m188.25,146c-9.3,1.34-16.88-.61-22.72-5.69-5.85-5.09-8.77-12.45-8.77-21.95v-1.64c0-6.37,1.23-12.18,3.69-17.44,2.46-5.26,5.95-9.49,10.47-12.73,4.51-3.24,9.67-5.26,15.45-6.07,8.68-1.23,15.51.39,20.5,5.03,4.99,4.64,7.48,11.95,7.48,22v6.92c-13.47,2.36-26.94,4.46-40.4,6.1.54,4.08,2.2,7.2,4.95,9.34,2.76,2.14,6.25,2.92,10.47,2.31,6.53-.95,11.63-4.14,15.31-9.48,2.78,2.65,5.55,5.29,8.33,7.91-2.54,4.04-5.98,7.43-10.32,10.15-4.34,2.72-9.15,4.48-14.43,5.24Zm-1.94-51.86c-3.36.47-6.09,1.98-8.18,4.52-2.09,2.55-3.43,5.97-4.02,10.28,7.86-.96,15.72-2.08,23.57-3.31v-1.36c-.08-3.76-1.1-6.51-3.05-8.27-1.96-1.76-4.73-2.37-8.33-1.87Z"/>
        <path class="cls-1" d="m235.66,73.26c.18,2.41.35,4.82.53,7.23,4.54-6.54,10.62-10.56,18.24-12.07,6.73-1.34,11.73-.37,15.01,2.93,3.28,3.29,4.96,8.86,5.04,16.7v40.99c-5.65,1.13-11.3,2.26-16.95,3.39v-40.58c0-3.6-.78-6.05-2.35-7.36-1.56-1.31-4.16-1.6-7.8-.89-4.77.94-8.35,3.66-10.73,8.19v44.74c-5.65,1.08-11.3,2.14-16.95,3.16v-63.45c5.32-.96,10.63-1.95,15.95-2.97Z"/>
        <path class="cls-1" d="m316.54,103.47c0-2.07-1.03-3.52-3.08-4.35-2.05-.82-5.35-1.29-9.88-1.38-15.09-.32-22.64-5.18-22.64-14.85,0-5.63,2.33-10.79,7.01-15.48,4.67-4.69,10.78-7.76,18.33-9.16,8.05-1.5,14.5-.72,19.32,2.26,4.83,2.98,7.24,7.53,7.24,13.59-5.65.9-11.3,1.87-16.95,2.87,0-2.42-.78-4.29-2.35-5.59-1.57-1.3-4.01-1.65-7.33-1.03-2.85.53-5.06,1.59-6.63,3.18-1.56,1.59-2.35,3.38-2.35,5.37,0,1.88.89,3.22,2.67,4.04,1.78.82,4.78,1.24,9,1.31,4.22.07,7.78.38,10.67.93,8.95,1.73,13.43,6.73,13.43,14.82,0,5.79-2.48,10.86-7.45,15.27-4.96,4.41-11.38,7.32-19.23,8.78-5.32.99-10.04.94-14.16-.15-4.12-1.1-7.36-3.05-9.71-5.9-2.35-2.84-3.52-6.17-3.52-10,5.36-1.06,10.71-2.12,16.07-3.15.15,2.98,1.27,5.07,3.34,6.28,2.07,1.21,4.85,1.48,8.33.84,3.25-.6,5.7-1.66,7.36-3.19,1.66-1.53,2.49-3.29,2.49-5.28Z"/>
        <path class="cls-1" d="m356.66,114.82c-5.67.71-11.34,1.51-17.01,2.37V27.11c5.67-.86,11.34-1.65,17.01-2.37v90.07Z"/>
        <path class="cls-1" d="m402.05,111.07c-.78-1.5-1.35-3.37-1.7-5.63-4.1,4.72-9.44,7.27-16.01,7.75-6.22.46-11.37-.84-15.45-4.01-4.08-3.17-6.13-7.45-6.13-12.93,0-6.72,2.5-12.18,7.48-16.3,4.98-4.1,12.19-6.61,21.61-7.19,2.6-.15,5.2-.27,7.8-.37v-3.64c0-2.93-.76-5.25-2.26-6.94-1.51-1.69-3.88-2.46-7.12-2.27-2.86.17-5.09,1.02-6.71,2.51-1.62,1.49-2.44,3.44-2.43,5.82-5.65.45-11.3,1.01-16.95,1.65,0-3.67,1.13-7.21,3.4-10.58,2.27-3.37,5.47-6.16,9.62-8.3,4.15-2.14,8.8-3.4,13.96-3.7,7.82-.46,14.03,1.35,18.62,5.22,4.59,3.87,6.89,9.43,6.89,16.54,0,9.17,0,18.34,0,27.5.04,6.02.88,10.58,2.52,13.69v1c-5.71-.07-11.41,0-17.12.18Zm-14.02-11.09c2.5-.16,4.81-.85,6.92-2.07,2.11-1.22,3.67-2.78,4.69-4.69v-10.91c-2.11.08-4.22.18-6.33.29-8.48.47-13,3.83-13.55,9.73l-.06,1c0,2.11.75,3.79,2.23,5.04,1.48,1.25,3.52,1.78,6.1,1.61Z"/>
        <path class="cls-1" d="m462.48,107.83c-4.18,4.46-9.97,6.21-17.36,5.54-6.8-.61-11.99-2.83-15.57-6.89-3.58-4.06-5.41-9.82-5.48-17.37v-41.58c5.65.15,11.3.43,16.95.87v41.04c0,6.63,3.01,10.12,9.03,10.75,5.75.62,9.69-.8,11.85-4.48v-44.97c5.67.84,11.34,1.85,17.01,3.04,0,21.15,0,42.3,0,63.45-5.32-1.12-10.63-2.08-15.95-2.89-.16-2.17-.31-4.35-.47-6.52Z"/>
        <path class="cls-1" d="m491.24,120.14v-51.02c-3.15-.82-6.29-1.58-9.44-2.28v-12.43c3.15.7,6.29,1.46,9.44,2.28v-5.4c0-7.11,2.04-12.13,6.13-14.9,4.08-2.76,9.8-3.01,17.15-.36,2.35.85,5.22,2.31,8.62,4.45-.06,4.35-.12,8.71-.18,13.07-1.41-.91-3.13-1.76-5.16-2.53-6.38-2.38-9.56-.37-9.56,5.59v5.1c4.2,1.4,8.4,2.91,12.61,4.55v12.43c-4.2-1.64-8.41-3.15-12.61-4.55v51.02c-5.67-1.88-11.34-3.56-17.01-5.03Z"/>
      </g>
      <g>
        <path class="cls-3" d="m121.13,145.91c-5.81,0-10.74-1.95-14.7-5.82l-.54,4.74-1.37-.03c-5.15-.1-10.31-.31-15.31-.63l-1.4-.09V51.01l1.6.1c5.5.35,11.18.57,16.87.65l1.48.02v30.23c3.76-3.11,8.42-4.75,13.88-4.9.32,0,.63-.01.94-.01,7.81,0,14.02,2.76,18.47,8.21,4.6,5.63,6.93,13.86,6.94,24.46v.94c0,10.47-2.29,18.93-6.79,25.16-4.67,6.44-11.18,9.81-19.35,10.04-.24,0-.47,0-.71,0Zm-13.37-22.09c1.82,3.71,4.92,5.51,9.47,5.51h.27c4.78-.08,7.85-2.49,9.38-7.37.77-2.46,1.16-6.29,1.16-11.39,0-6.06-.93-10.45-2.77-13.05-1.69-2.39-4.17-3.55-7.6-3.55h-.24c-4.71.07-7.88,1.87-9.67,5.48v24.36Zm-44.4,18.35c-1.91,0-3.9-.18-5.91-.52-9.5-1.63-17.45-6.33-23.64-13.98-6.04-7.48-9.1-16.29-9.1-26.19v-1.64c0-6.59,1.31-12.24,3.89-16.77,2.61-4.58,6.4-7.8,11.26-9.57,2.86-1.04,6.03-1.57,9.4-1.57,2.15,0,4.45.21,6.82.64,9.26,1.65,16.26,5.45,21.39,11.63,5.26,6.33,7.82,14.49,7.82,24.94v8.55s-1.62-.13-1.62-.13c-13.15-1.07-26.06-2.98-38.41-5.66.72,3.07,2.13,5.79,4.2,8.09,2.54,2.83,5.77,4.59,9.6,5.23,1.18.2,2.33.3,3.4.3,4.35,0,7.79-1.55,10.51-4.74l1.17-1.37,1.14,1.4c2.69,3.32,5.49,6.74,8.32,10.14l.76.91-.71.95c-2.75,3.65-6.46,6.3-11.03,7.87-2.9,1-6.02,1.5-9.26,1.5Zm-18.07-44.89c6.65,1.46,13.47,2.7,20.34,3.68-.13-3.25-1.01-5.83-2.69-7.85-1.71-2.06-4.14-3.35-7.44-3.94-.75-.13-1.48-.2-2.14-.2-1.93,0-3.49.55-4.78,1.68-1.58,1.39-2.68,3.61-3.29,6.62Zm130.46,43.63c-7.15,0-13.27-2.18-18.21-6.47-6.16-5.36-9.28-13.12-9.28-23.08v-1.64c0-6.55,1.29-12.63,3.84-18.08,2.55-5.45,6.23-9.93,10.95-13.32,4.67-3.36,10.09-5.49,16.12-6.34,1.93-.27,3.79-.41,5.54-.41,6.58,0,12.03,1.96,16.19,5.83,5.28,4.91,7.96,12.68,7.96,23.1v8.18l-1.24.22c-14.26,2.5-27.01,4.44-38.91,5.92.66,2.94,2.04,5.25,4.12,6.87,1.9,1.48,4.14,2.2,6.86,2.2.79,0,1.62-.06,2.48-.19,6.04-.88,10.85-3.86,14.29-8.85l1-1.45,1.27,1.21c2.77,2.65,5.55,5.28,8.32,7.91l.9.85-.66,1.04c-2.66,4.23-6.29,7.8-10.79,10.62-4.52,2.84-9.57,4.67-15.01,5.45-1.96.28-3.89.43-5.71.43Zm5.88-52.44c-.66,0-1.36.05-2.11.16-3.01.42-5.37,1.73-7.23,3.99-1.58,1.93-2.71,4.48-3.36,7.59,6.51-.82,13.17-1.75,20.26-2.86v-.07c-.07-3.28-.93-5.7-2.55-7.16-1.23-1.11-2.87-1.65-5.01-1.65Zm29.58-20.49l1.23-.22c4.98-.9,10.19-1.87,15.93-2.97l1.66-.32.37,5.04c4.43-5.02,10.05-8.23,16.73-9.56,2.03-.4,3.95-.61,5.7-.61,4.47,0,8.06,1.33,10.67,3.95,3.55,3.56,5.4,9.53,5.48,17.75v42.24s-19.95,3.98-19.95,3.98v-42.41c0-3.07-.63-5.22-1.81-6.21-.73-.61-1.86-.92-3.36-.92-.92,0-2,.12-3.18.35-4.23.83-7.35,3.15-9.52,7.09v45.6l-1.22.23c-6.09,1.17-11.64,2.2-16.96,3.16l-1.77.32v-66.5ZM19.55,131.19c-5.74-1.85-11.49-3.93-17.1-6.18l-.94-.38V31.33l2.06.82c5.55,2.22,11.24,4.27,16.91,6.11l1.04.34v93.23l-1.96-.63Zm481.23-11.6c-5.54-1.84-11.23-3.53-16.91-5l-1.12-.29v-51.02c-2.73-.7-5.51-1.36-8.27-1.97l-1.07-.24v51.01l-1.81-.38c-5.19-1.1-10.53-2.06-15.87-2.87l-1.19-.18-.33-4.66c-3.52,2.67-7.92,4.02-13.13,4.02-.99,0-2.03-.05-3.08-.14-7.35-.66-12.76-3.08-16.56-7.39-3.81-4.31-5.78-10.49-5.86-18.35v-43.13l1.54.04c5.75.15,11.48.44,17.02.87l1.38.11v42.43c0,5.85,2.37,8.7,7.69,9.26.81.09,1.59.13,2.31.13,3.74,0,6.32-1.16,7.88-3.55v-46.28l1.72.25c5.74.85,11.49,1.88,17.1,3.06l1.09.23h0s1.83.4,1.83.4c2.54.56,5.09,1.17,7.62,1.81v-3.46c0-7.65,2.28-13.08,6.79-16.14,2.43-1.64,5.35-2.47,8.68-2.47,2.94,0,6.25.65,9.83,1.94,2.51.91,5.51,2.45,8.91,4.59l.71.45-.22,16.62-2.28-1.48c-1.35-.87-2.99-1.67-4.87-2.38-1.57-.58-2.92-.88-4.01-.88-1.58,0-2.23.61-2.57,1.07-.63.83-.95,2.17-.95,4v4.02c3.9,1.32,7.82,2.74,11.65,4.23l.96.37v15.65l-2.04-.8c-3.47-1.35-7.02-2.65-10.56-3.86v51.01l-1.97-.66Zm-208.64-.36c-2.61,0-5.08-.31-7.35-.91-4.42-1.17-7.95-3.32-10.48-6.39-2.56-3.1-3.86-6.79-3.86-10.96v-1.23s1.21-.24,1.21-.24c5.36-1.06,10.72-2.12,16.08-3.15l1.69-.33.09,1.72c.13,2.46.98,4.11,2.6,5.06,1.11.65,2.51.97,4.18.97h0c.95,0,2-.11,3.12-.31,2.95-.55,5.18-1.5,6.62-2.82,1.35-1.24,2.01-2.61,2.01-4.18,0-1.45-.66-2.36-2.14-2.95-1.9-.76-5.04-1.19-9.35-1.27-16-.33-24.11-5.84-24.11-16.35,0-6.02,2.5-11.58,7.45-16.54,4.9-4.91,11.33-8.13,19.11-9.58,2.74-.51,5.34-.77,7.74-.77,4.92,0,9.18,1.08,12.64,3.22,5.28,3.26,7.96,8.26,7.95,14.86v1.28s-1.26.2-1.26.2c-5.44.87-10.97,1.81-16.92,2.87l-1.76.31v-1.79c0-1.97-.59-3.43-1.81-4.44-.78-.65-1.95-.98-3.45-.98-.79,0-1.68.09-2.64.27-2.53.47-4.49,1.4-5.83,2.76-1.29,1.31-1.92,2.72-1.91,4.32,0,1.3.54,2.1,1.79,2.67,1.56.72,4.39,1.11,8.4,1.17,4.27.07,7.95.39,10.93.96,9.58,1.85,14.65,7.48,14.65,16.29,0,6.19-2.68,11.7-7.95,16.39-5.12,4.55-11.84,7.62-19.96,9.13-2.62.49-5.13.73-7.47.73Zm39.02-100.42l1.28-.19c5.83-.88,11.57-1.68,17.04-2.37l1.69-.21v93.1l-1.31.17c-5.45.69-11.16,1.48-16.97,2.36l-1.72.26V18.82Zm43.82,88.97c-5.51,0-10.22-1.49-14-4.42-4.45-3.45-6.71-8.2-6.71-14.12,0-7.19,2.7-13.06,8.02-17.45,5.36-4.41,12.92-6.94,22.47-7.53,2.14-.12,4.28-.23,6.39-.32v-2.2c0-2.53-.63-4.54-1.88-5.95-1.07-1.2-2.72-1.79-5.05-1.79-.28,0-.57,0-.87.03-2.48.15-4.43.86-5.79,2.12-1.31,1.21-1.95,2.75-1.95,4.71v1.39s-1.38.11-1.38.11c-5.46.44-11.14.99-16.9,1.64l-1.67.19v-1.68c0-3.96,1.23-7.8,3.66-11.42,2.42-3.59,5.84-6.55,10.17-8.8,4.35-2.25,9.25-3.55,14.56-3.86.82-.05,1.63-.07,2.42-.07,7.01,0,12.81,1.9,17.25,5.64,4.93,4.15,7.43,10.1,7.42,17.69v27.5c.03,5.73.82,10.1,2.35,12.98l.17.33v2.89l-1.52-.02c-1.48-.02-2.97-.03-4.45-.03-4.12,0-8.36.07-12.61.21l-.94.03-.44-.84c-.5-.96-.92-2.05-1.26-3.27-4.03,3.68-9.07,5.76-15.01,6.19-.84.06-1.68.09-2.48.09Zm16.17-30.92c-1.58.07-3.17.14-4.75.23-7.68.43-11.65,3.16-12.13,8.37l-.05.95c0,1.57.55,2.84,1.7,3.8,1.03.87,2.41,1.29,4.22,1.29.26,0,.54,0,.82-.03,2.29-.15,4.34-.76,6.27-1.87,1.76-1.02,3.06-2.26,3.94-3.78v-8.96Z"/>
        <path class="cls-1" d="m349.66,17.74v90.07c-5.67.71-11.34,1.51-17.01,2.37V20.11c5.67-.86,11.34-1.65,17.01-2.37m148.54,9.44c2.74,0,5.85.6,9.32,1.85,2.35.85,5.22,2.31,8.62,4.45-.06,4.35-.12,8.71-.18,13.07-1.41-.91-3.13-1.76-5.16-2.53-1.75-.65-3.26-.98-4.54-.98-3.35,0-5.02,2.24-5.02,6.57v5.1c4.2,1.4,8.4,2.91,12.61,4.55v12.43c-4.2-1.64-8.41-3.15-12.61-4.55v51.02c-5.67-1.88-11.34-3.56-17.01-5.03v-51.02c-3.15-.82-6.29-1.58-9.44-2.28v-12.43c3.15.7,6.29,1.46,9.44,2.28v-5.4c0-7.11,2.04-12.13,6.13-14.9,2.16-1.46,4.77-2.21,7.84-2.21M3,33.54c5.67,2.27,11.34,4.31,17.01,6.14v90.07c-5.67-1.83-11.34-3.87-17.01-6.14V33.54m383.47,6.34c6.73,0,12.16,1.81,16.29,5.29,4.59,3.87,6.89,9.43,6.89,16.54,0,9.17,0,18.34,0,27.5.04,6.02.88,10.58,2.52,13.69v1c-1.49-.02-2.98-.03-4.48-.03-4.22,0-8.43.07-12.65.21-.78-1.5-1.35-3.37-1.7-5.63-4.1,4.72-9.44,7.27-16.01,7.75-.81.06-1.6.09-2.37.09-5.17,0-9.53-1.34-13.08-4.1-4.08-3.17-6.13-7.45-6.13-12.93,0-6.72,2.5-12.18,7.48-16.3,4.98-4.1,12.19-6.61,21.61-7.19,2.6-.15,5.2-.27,7.8-.37v-3.64c0-2.93-.76-5.25-2.26-6.94-1.35-1.52-3.41-2.29-6.17-2.29-.31,0-.63,0-.96.03-2.86.17-5.09,1.02-6.71,2.51-1.62,1.49-2.44,3.44-2.43,5.82-5.65.45-11.3,1.01-16.95,1.65,0-3.67,1.13-7.21,3.4-10.58,2.27-3.37,5.47-6.16,9.62-8.3,4.15-2.14,8.8-3.4,13.96-3.7.79-.05,1.57-.07,2.33-.07m-6.35,53.13c.3,0,.6-.01.91-.03,2.5-.16,4.81-.85,6.92-2.07,2.11-1.22,3.67-2.78,4.69-4.69v-10.91c-2.11.08-4.22.18-6.33.29-8.48.47-13,3.83-13.55,9.73l-.06,1c0,2.11.75,3.79,2.23,5.04,1.3,1.1,3.03,1.64,5.19,1.64m36.95-52.48c5.65.15,11.3.43,16.95.87v41.04c0,6.63,3.01,10.12,9.03,10.75.86.09,1.69.14,2.47.14,4.42,0,7.55-1.5,9.38-4.62v-44.97c5.67.84,11.34,1.85,17.01,3.04,0,21.15,0,42.3,0,63.45-5.32-1.12-10.63-2.08-15.95-2.89-.16-2.17-.31-4.35-.47-6.52-3.61,3.85-8.41,5.68-14.41,5.68-.95,0-1.94-.05-2.95-.14-6.8-.61-11.99-2.83-15.57-6.89-3.58-4.06-5.41-9.82-5.48-17.37v-41.58m-110.33,9.97c4.67,0,8.63,1.01,11.86,3,4.83,2.98,7.24,7.53,7.24,13.59-5.65.9-11.3,1.87-16.95,2.87,0-2.42-.78-4.29-2.35-5.59-1.07-.89-2.54-1.33-4.41-1.33-.88,0-1.86.1-2.92.3-2.85.53-5.06,1.59-6.63,3.18-1.56,1.59-2.35,3.38-2.35,5.37,0,1.88.89,3.22,2.67,4.04,1.78.82,4.78,1.24,9,1.31,4.22.07,7.78.38,10.67.93,8.95,1.73,13.43,6.73,13.43,14.82,0,5.79-2.48,10.86-7.45,15.27-4.96,4.41-11.38,7.32-19.23,8.78-2.53.47-4.93.71-7.2.71-2.49,0-4.81-.29-6.96-.86-4.12-1.1-7.36-3.05-9.71-5.9-2.35-2.84-3.52-6.17-3.52-10,5.36-1.06,10.71-2.12,16.07-3.15.15,2.98,1.27,5.07,3.34,6.28,1.35.79,2.99,1.18,4.93,1.18,1.05,0,2.18-.11,3.39-.34,3.25-.6,5.7-1.66,7.36-3.19,1.66-1.53,2.49-3.29,2.49-5.28,0-2.07-1.03-3.52-3.08-4.35-2.05-.82-5.35-1.29-9.88-1.38-15.09-.32-22.64-5.18-22.64-14.85,0-5.63,2.33-10.79,7.01-15.48,4.67-4.69,10.78-7.76,18.33-9.16,2.67-.5,5.15-.74,7.47-.74m-217.43,2.1c5.65.36,11.3.58,16.95.66v32.31c3.91-4.52,9.05-6.79,15.42-6.96.3,0,.6-.01.9-.01,7.31,0,13.08,2.48,17.31,7.66,4.4,5.38,6.59,13.19,6.6,23.51v.94c0,10.16-2.17,18.29-6.51,24.28-4.34,5.99-10.4,9.21-18.18,9.42-.22,0-.45,0-.67,0-6.57,0-11.84-2.66-15.81-7.84-.25,2.24-.51,4.49-.76,6.73-5.08-.1-10.16-.3-15.25-.63,0-30.02,0-60.05,0-90.07m27.91,78.23c.1,0,.19,0,.29,0,5.47-.09,9.07-2.95,10.79-8.41.82-2.62,1.23-6.56,1.23-11.84,0-6.41-1.02-11.04-3.05-13.92-1.99-2.81-4.93-4.18-8.82-4.18-.09,0-.18,0-.27,0-5.4.08-9.11,2.25-11.14,6.64v25.04c2.03,4.4,5.69,6.68,10.97,6.68M252.83,60.84c4.07,0,7.27,1.17,9.6,3.51,3.28,3.29,4.96,8.86,5.04,16.7v40.99c-5.65,1.13-11.3,2.26-16.95,3.39v-40.58c0-3.6-.78-6.05-2.35-7.36-1.01-.85-2.45-1.27-4.33-1.27-1.03,0-2.19.13-3.47.38-4.77.94-8.35,3.66-10.73,8.19v44.74c-5.65,1.08-11.3,2.14-16.95,3.16v-63.45c5.32-.96,10.63-1.95,15.95-2.97.18,2.41.35,4.82.53,7.23,4.54-6.54,10.62-10.56,18.24-12.07,1.95-.39,3.75-.58,5.41-.58m-68.13,12.24c6.19,0,11.25,1.78,15.17,5.43,4.99,4.64,7.48,11.95,7.48,22v6.92c-13.47,2.36-26.94,4.46-40.4,6.1.54,4.08,2.2,7.2,4.95,9.34,2.15,1.67,4.74,2.51,7.78,2.51.86,0,1.76-.07,2.69-.2,6.53-.95,11.63-4.14,15.31-9.48,2.78,2.65,5.55,5.29,8.33,7.91-2.54,4.04-5.98,7.43-10.32,10.15-4.34,2.72-9.15,4.48-14.43,5.24-1.9.27-3.74.41-5.5.41-6.84,0-12.58-2.06-17.23-6.1-5.85-5.09-8.77-12.45-8.77-21.95v-1.64c0-6.37,1.23-12.18,3.69-17.44,2.46-5.26,5.95-9.49,10.47-12.73,4.51-3.24,9.67-5.26,15.45-6.07,1.86-.26,3.64-.4,5.33-.4m-17.59,28.87c7.86-.96,15.72-2.08,23.57-3.31v-1.36c-.08-3.76-1.1-6.51-3.05-8.27-1.51-1.36-3.52-2.04-6.01-2.04-.73,0-1.5.06-2.31.17-3.36.47-6.09,1.98-8.18,4.52-2.09,2.55-3.43,5.97-4.02,10.28m-117.85-28.51c2.09,0,4.27.21,6.56.61,8.68,1.54,15.51,5.11,20.5,11.11,4.99,6,7.48,13.93,7.48,23.98,0,2.31,0,4.61,0,6.92-13.47-1.1-26.94-3.07-40.4-6.11.55,4.27,2.2,7.97,4.96,11.04,2.76,3.07,6.25,5,10.47,5.71,1.27.21,2.49.32,3.65.32,4.81,0,8.7-1.8,11.65-5.27,2.78,3.42,5.55,6.81,8.33,10.15-2.54,3.38-5.98,5.86-10.32,7.35-2.74.94-5.66,1.42-8.77,1.42-1.82,0-3.71-.17-5.66-.5-9.31-1.6-16.88-6.22-22.72-13.44-5.84-7.24-8.77-15.76-8.77-25.25v-1.64c0-6.37,1.23-11.7,3.69-16.03,2.47-4.33,5.95-7.26,10.47-8.9,2.73-.99,5.7-1.48,8.89-1.48m17.88,29.26v-1.36c-.08-3.78-1.09-6.83-3.05-9.18-1.95-2.35-4.73-3.81-8.33-4.45-.84-.15-1.65-.23-2.41-.23-2.28,0-4.2.68-5.77,2.06-2.09,1.84-3.43,4.79-4.02,8.9,7.86,1.77,15.72,3.18,23.57,4.26M352.66,14.34l-3.38.43c-5.49.69-11.24,1.49-17.08,2.38l-2.55.39v96.14l3.45-.52c5.79-.88,11.49-1.67,16.93-2.36l2.62-.33V14.34h0Zm145.54,9.84c-3.64,0-6.84.92-9.51,2.73-4.94,3.35-7.45,9.2-7.45,17.38v1.54c-1.92-.47-3.86-.92-5.79-1.35l-.55-.12h0s-.91-.2-.91-.2l-2.2-.49v.03c-5.4-1.12-10.94-2.11-16.46-2.92l-3.44-.51v47.56c-.91,1.22-2.6,2.51-6.38,2.51-.67,0-1.39-.04-2.15-.12-4.51-.47-6.35-2.73-6.35-7.77v-43.81l-2.77-.21c-5.57-.43-11.33-.73-17.1-.88l-3.08-.08v44.66c.08,8.26,2.18,14.76,6.23,19.35,4.06,4.62,9.8,7.2,17.55,7.9,1.1.1,2.18.15,3.22.15,4.51,0,8.47-.96,11.82-2.86l.07.91.17,2.39,2.37.36c5.31.8,10.61,1.76,15.78,2.85l3.62.76v-50.99c2.12.48,4.24.98,6.34,1.51v51.01l2.25.58c5.65,1.47,11.3,3.14,16.82,4.97l3.95,1.31v-50.98c2.86,1,5.71,2.06,8.52,3.15l4.09,1.59v-18.87l-1.91-.74c-3.52-1.37-7.11-2.68-10.7-3.91v-2.95c0-2.02.45-2.84.64-3.09.12-.15.36-.48,1.38-.48.63,0,1.74.14,3.49.79,1.78.67,3.32,1.42,4.58,2.23l4.56,2.95.07-5.43.18-13.06.02-1.68-1.42-.9c-3.49-2.2-6.59-3.79-9.2-4.73-3.75-1.35-7.22-2.03-10.33-2.03h0ZM0,29.11v96.54l1.89.75c5.64,2.26,11.43,4.35,17.2,6.21l3.92,1.27V37.5l-2.08-.67c-5.64-1.82-11.3-3.87-16.81-6.07l-4.11-1.65h0Zm386.47,7.77c-.82,0-1.66.03-2.5.07-5.52.32-10.62,1.68-15.16,4.03-4.56,2.36-8.17,5.49-10.73,9.29-2.6,3.87-3.92,7.99-3.91,12.26v3.36s3.34-.38,3.34-.38c5.74-.65,11.41-1.2,16.85-1.64l2.76-.22v-2.77c0-1.54.46-2.69,1.46-3.61,1.1-1.01,2.74-1.59,4.86-1.72.26-.02.52-.02.78-.02,1.87,0,3.15.42,3.93,1.29,1.01,1.14,1.5,2.76,1.5,4.94v.76c-1.65.07-3.31.16-4.97.25-9.89.61-17.74,3.25-23.34,7.87-5.69,4.69-8.57,10.96-8.57,18.61,0,6.4,2.45,11.55,7.29,15.3,4.05,3.14,9.07,4.73,14.92,4.73.84,0,1.71-.03,2.59-.1,5.47-.4,10.22-2.13,14.18-5.14.2.49.42.96.65,1.41l.87,1.67,1.89-.06c4.23-.14,8.45-.21,12.55-.21,1.48,0,2.96,0,4.44.03l3.04.04v-4.78l-.35-.66c-1.41-2.67-2.14-6.81-2.17-12.3v-27.49c0-8.04-2.67-14.38-7.96-18.83-4.72-3.98-10.85-5.99-18.22-5.99h0Zm-10.72,48.67c.15-1.64.7-6.4,10.72-6.96,1.06-.06,2.12-.11,3.17-.16v6.97c-.74,1.14-1.79,2.1-3.19,2.91-1.72.99-3.56,1.54-5.62,1.67-.25.02-.48.02-.72.02-1.44,0-2.5-.31-3.25-.94-.79-.67-1.15-1.49-1.16-2.66l.02-.42.03-.44h0Zm-69.02-38.05h0c-2.49,0-5.19.27-8.01.79-8.09,1.5-14.78,4.87-19.9,10-5.23,5.25-7.89,11.18-7.88,17.6,0,5.88,2.36,10.4,7.02,13.44,4.27,2.79,10.34,4.23,18.56,4.41,5.14.1,7.64.69,8.83,1.16,1.11.45,1.2.93,1.2,1.56,0,.72-.16,1.82-1.52,3.08-1.23,1.13-3.2,1.95-5.87,2.45-1.03.19-1.99.29-2.85.29-1.4,0-2.55-.26-3.42-.77-.74-.43-1.73-1.29-1.86-3.84l-.18-3.44-3.39.65c-4.77.92-9.88,1.92-16.09,3.15l-.88.17v-17.16c-.09-8.77-2.03-14.92-5.92-18.82-2.9-2.91-6.85-4.39-11.73-4.39-1.85,0-3.86.21-5.99.64-5.88,1.17-10.96,3.72-15.19,7.61v-.04s-.25-3.36-.25-3.36l-3.31.63c-5.75,1.1-10.95,2.07-15.92,2.96l-2.47.44v25.47c-1.12-6.78-3.73-12.11-7.8-15.88-4.44-4.13-10.23-6.23-17.21-6.23-1.82,0-3.76.14-5.75.43-6.27.89-11.91,3.11-16.78,6.61-4.93,3.54-8.78,8.22-11.43,13.9-1,2.14-1.82,4.38-2.44,6.7-1.17-5.36-3.2-9.83-6.08-13.35-4.75-5.81-11.35-8.76-19.63-8.76-.33,0-.65,0-.98.01-4.69.12-8.81,1.29-12.34,3.47v-28.78l-2.96-.04c-5.67-.08-11.32-.3-16.8-.65l-3.19-.21v52.28c-1.01-7.33-3.58-13.52-7.68-18.45-5.36-6.46-12.65-10.44-22.28-12.15-2.46-.44-4.84-.66-7.08-.66-3.55,0-6.89.56-9.92,1.66-5.21,1.89-9.26,5.34-12.05,10.23-2.71,4.76-4.09,10.65-4.09,17.51v1.64c0,10.25,3.17,19.38,9.43,27.13,6.42,7.94,14.68,12.82,24.55,14.52,2.1.36,4.17.54,6.17.54,3.4,0,6.68-.53,9.74-1.58,4.86-1.67,8.81-4.49,11.74-8.39l1.43-1.89-1.51-1.83c-2.82-3.4-5.62-6.81-8.31-10.13l-1.3-1.61c2.79.3,5.59.57,8.4.8l2.75.22v26.21l2.81.18c5.03.32,10.2.54,15.38.64l2.73.05.31-2.71.06-.57c3.82,2.88,8.35,4.33,13.53,4.33.25,0,.5,0,.75-.01,8.67-.24,15.57-3.82,20.53-10.66,2.81-3.88,4.79-8.57,5.93-14.01,1.57,5.15,4.32,9.44,8.23,12.84,5.22,4.54,11.68,6.84,19.19,6.84,1.9,0,3.89-.15,5.93-.44,5.65-.81,10.89-2.72,15.59-5.67,4.69-2.94,8.48-6.68,11.27-11.1l1.17-1.86v12.93l3.53-.64c5.32-.96,10.87-1.99,16.98-3.17l2.43-.47v-46.45c1.94-3.33,4.66-5.3,8.31-6.02,1.09-.21,2.06-.32,2.89-.32,1.11,0,1.96.2,2.4.57.81.68,1.28,2.53,1.28,5.06v44.24l3.59-.71c3-.6,6-1.2,8.99-1.8l7.96-1.59,2.41-.48v-15.92c.67,1.53,1.56,2.97,2.67,4.31,2.73,3.31,6.52,5.63,11.25,6.88,2.4.64,5,.96,7.73.96,2.43,0,5.04-.25,7.75-.76,8.39-1.56,15.35-4.75,20.68-9.49,5.61-4.98,8.45-10.87,8.45-17.51,0-6.71-2.75-15.24-15.86-17.76-3.07-.59-6.84-.92-11.19-.98-4.74-.07-6.86-.6-7.8-1.03-.79-.36-.92-.68-.92-1.31,0-1.2.47-2.24,1.48-3.27,1.12-1.14,2.82-1.93,5.04-2.34.88-.16,1.67-.25,2.37-.25,1.15,0,1.99.21,2.49.64.54.45,1.26,1.28,1.26,3.28v3.58s3.53-.63,3.53-.63c5.94-1.06,11.47-1.99,16.9-2.86l2.53-.4v-2.56c0-7.06-3-12.64-8.67-16.14-3.71-2.29-8.23-3.45-13.43-3.45h0Zm-135.8,50.94c.61-1.94,1.45-3.57,2.52-4.87,1.61-1.96,3.66-3.09,6.28-3.46.67-.09,1.31-.14,1.9-.14,1.75,0,3.06.41,4,1.27,1.11,1,1.77,2.62,1.99,4.84-5.79.89-11.3,1.67-16.68,2.36h0Zm-123.83-2.3c.56-1.95,1.38-3.41,2.46-4.36,1.02-.89,2.22-1.31,3.79-1.31.58,0,1.21.06,1.88.18,2.93.52,5.07,1.64,6.55,3.42,1.14,1.37,1.86,3.06,2.18,5.13-5.68-.86-11.33-1.88-16.86-3.06h0Zm62.15,3.68c1.56-2.9,4.18-4.28,8.19-4.34h.22c2.94,0,4.97.92,6.37,2.91,1.14,1.61,2.5,5.03,2.5,12.18,0,4.95-.37,8.63-1.09,10.94-1.35,4.3-3.81,6.24-7.98,6.31h-.24c-3.84,0-6.38-1.39-7.97-4.37v-23.64h0Zm88.92,12.2c3.16-.52,6.38-1.07,9.69-1.65l1.84-.32v12.93l-1.65-1.56c-2.77-2.62-5.54-5.26-8.32-7.9l-1.57-1.5h0Zm-27.56,4.06c8.11-1.03,16.62-2.28,25.74-3.76l-1.15,1.67c-3.24,4.7-7.58,7.38-13.27,8.21-.78.11-1.54.17-2.26.17-2.37,0-4.31-.62-5.93-1.88-1.43-1.11-2.47-2.57-3.13-4.41h0Zm-108.14,7.93c-1,0-2.06-.09-3.16-.28-3.53-.59-6.39-2.15-8.73-4.75-1.35-1.51-2.4-3.21-3.13-5.09,8.42,1.75,17.07,3.13,25.88,4.15l-1.49,1.75c-2.42,2.84-5.48,4.22-9.37,4.22h0Z"/>
      </g>
      <path class="cls-2" d="m165.97,49.14c-1.7,0-2.69-.9-2.98-2.7-.37-2.28-.75-5.49-1.12-9.63l-1.06-9.64c-.21-1.43-.56-2.83-1.06-4.2-.7-1.86-1.47-2.8-2.3-2.8-.77,0-2.2.65-4.29,1.96-1.99,1.2-3.29,2.17-3.92,2.89-.02,1.95.03,3.9.16,5.84l.93,8.3c.39,3.27.59,5.98.59,8.11,0,.91-.29,1.66-.85,2.25-.57.59-1.3.89-2.19.89s-1.62-.3-2.19-.89c-.57-.59-.85-1.34-.85-2.25,0-2.51-.25-6.21-.76-11.11-.51-4.9-.76-8.6-.76-11.11,0-2.2-.31-3.91-.93-5.13-1.45.66-2.92,1.74-4.41,3.23l-3.67,4.1c-.33.5-.86,1.15-1.59,1.96,0,1.24-.11,3.08-.34,5.5-.23,2.42-.34,4.22-.34,5.38,0,.62.1,1.49.3,2.61.2,1.12.3,1.93.3,2.42,0,.85-.32,1.56-.95,2.14-.63.58-1.37.87-2.22.87-2.34,0-3.51-2.66-3.51-7.99,0-1.24.11-3.1.34-5.56.23-2.47.34-4.32.34-5.56,0-1.1-.1-2.75-.3-4.94-.2-2.2-.3-3.85-.3-4.97,0-4.7,1.06-7.06,3.17-7.06.81,0,1.55.35,2.22,1.06.67.7,1.01,1.47,1.01,2.3,0,.39-.05,1.01-.16,1.83-.1.83-.16,1.46-.16,1.9l.06,3.26c1.08-2.22,2.66-4.22,4.76-6.01,2.09-1.79,3.87-2.69,5.35-2.69,3.25,0,5.49,1.62,6.71,4.85,1.14-1.51,2.5-2.65,4.07-3.4,1.57-.76,3.38-1.13,5.41-1.13,3.46,0,5.82,1.86,7.09,5.59.25.75.67,3.66,1.27,8.73.58,3.56,1.33,9.5,2.24,17.81.06.83-.22,1.53-.84,2.11-.62.58-1.38.87-2.27.87Zm22.13-1.15c-4.68,0-8.47-1.17-11.38-3.51-3.17-2.59-4.76-6.22-4.76-10.88,0-5.39,1.31-9.9,3.92-13.55,2.84-3.98,6.63-5.97,11.38-5.97,3.44,0,6.25.58,8.42,1.74,2.67,1.43,4.01,3.63,4.01,6.59,0,2.07-1.17,3.96-3.51,5.66-1.04.75-3.23,1.91-6.59,3.48l-11.87,5.63c1.16,1.72,2.61,3.01,4.34,3.88,1.73.87,3.75,1.31,6.05,1.31,1.43,0,3.11-.27,5.04-.81,2.44-.68,4.02-1.58,4.72-2.69.7-1.11,1.46-1.66,2.27-1.66.73,0,1.37.27,1.94.82.57.55.85,1.19.85,1.91,0,2.3-1.85,4.28-5.56,5.94-3.17,1.41-6.26,2.11-9.26,2.11Zm-.84-28.31c-2.53,0-4.63.98-6.31,2.94s-2.93,4.91-3.76,8.84l9.54-4.54c3.75-1.82,6.42-3.41,8.02-4.76-1.78-1.66-4.28-2.49-7.49-2.49Zm25.64,12.77c0,1.24.04,3.1.11,5.58.07,2.48.11,4.34.11,5.58,0,.91-.28,1.66-.84,2.24s-1.3.87-2.21.87-1.62-.29-2.19-.87c-.57-.58-.85-1.33-.85-2.24,0-1.24-.04-3.1-.11-5.58-.07-2.48-.11-4.34-.11-5.58,0-1.95.1-4.38.31-7.29.21-2.91.31-5.34.31-7.29,0-.93.28-1.69.85-2.27.57-.58,1.3-.87,2.19-.87s1.62.29,2.19.87c.57.58.85,1.34.85,2.27,0,1.95-.1,4.38-.31,7.29-.21,2.91-.31,5.34-.31,7.29Zm-1.4-25.24c-.99,0-1.85-.35-2.58-1.06-.73-.7-1.09-1.55-1.09-2.55s.36-1.84,1.09-2.55c.72-.7,1.59-1.06,2.58-1.06s1.85.35,2.56,1.06c.71.7,1.07,1.55,1.07,2.55s-.36,1.84-1.07,2.55c-.71.7-1.57,1.06-2.56,1.06Zm32.76,41.56c-1.78,0-2.79-.97-3.01-2.92l-.87-6.81c-.29-2.42-.44-4.69-.44-6.81,0-.58.04-1.56.11-2.95.07-1.39.11-2.37.11-2.95,0-4.48-.83-6.71-2.49-6.71-2.32,0-4.54,1.38-6.65,4.13-1.91,2.51-3.4,5.68-4.48,9.51-.04.81-.13,1.82-.28,3.05-.12,1.04-.19,2.04-.19,3.02,0,.62.06,1.55.19,2.8.12,1.24.19,2.18.19,2.8,0,.93-.29,1.69-.85,2.27-.57.58-1.3.87-2.19.87s-1.65-.29-2.21-.87-.84-1.34-.84-2.27c0-.62-.07-1.55-.2-2.8-.14-1.24-.2-2.18-.2-2.8,0-2.13.15-5.09.45-8.87.3-3.78.45-6.74.45-8.87,0-.66-.04-1.65-.11-2.95-.07-1.31-.11-2.29-.11-2.95,0-.89.3-1.62.89-2.19.59-.57,1.32-.85,2.19-.85,1.91,0,2.95,1.35,3.14,4.04l.09,3.64c3.48-4.64,7.06-6.96,10.72-6.96,3.32,0,5.63,1.46,6.93,4.38.89,1.95,1.38,4.83,1.46,8.64v3.14l-.03,2.89c0,1.72.22,3.94.67,6.67.45,2.72.67,4.94.67,6.64,0,.91-.3,1.65-.89,2.22-.59.57-1.33.85-2.22.85Z"/>
    </g>
  </g>
</svg>