<?xml version="1.0" encoding="UTF-8"?>
<svg id="Ebene_3" data-name="Ebene 3" xmlns="http://www.w3.org/2000/svg" viewBox="0 0 233.76 233.76">
  <defs>
    <style>
      .cls-1 {
        fill: #fcf4e4;
      }

      .cls-2, .cls-3 {
        fill: #353230;
      }

      .cls-3 {
        font-family: Roboto-Medium, Roboto;
        font-size: 28px;
        font-weight: 500;
      }
    </style>
  </defs>
  <text class="cls-3" transform="translate(59.28 217.62)"><tspan x="0" y="0">selfie.jpg</tspan></text>
  <g>
    <g>
      <polygon class="cls-1" points="55.28 173.81 55.28 18.23 147.16 18.23 178.49 46.49 178.49 173.81 55.28 173.81"/>
      <path class="cls-2" d="m146.39,20.23l30.09,27.14v124.44H57.28V20.23h89.11m1.54-4H53.28v159.58h127.21V45.6l-32.56-29.36h0Z"/>
    </g>
    <g>
      <polygon class="cls-1" points="149.93 43.6 149.93 20.73 175.28 43.6 149.93 43.6"/>
      <path class="cls-2" d="m151.93,25.23l18.15,16.37h-18.15v-16.37m-4-8.99v29.36h32.56l-32.56-29.36h0Z"/>
    </g>
  </g>
  <polygon class="cls-2" points="132.04 69.92 106.67 95.3 98.36 86.99 82.12 103.22 82.12 134.47 151.68 134.47 151.68 101.44 151.68 89.55 132.04 69.92"/>
  <circle class="cls-2" cx="95.41" cy="63.08" r="12.09"/>
</svg>