<?xml version="1.0" encoding="utf-8"?>
<!-- Generator: Adobe Illustrator 27.2.0, SVG Export Plug-In . SVG Version: 6.00 Build 0)  -->
<svg version="1.1" id="Ebene_3" xmlns="http://www.w3.org/2000/svg" xmlns:xlink="http://www.w3.org/1999/xlink" x="0px" y="0px"
	 viewBox="0 0 233.8 233.8" style="enable-background:new 0 0 233.8 233.8;" xml:space="preserve">
<style type="text/css">
	.st0{enable-background:new    ;}
	.st1{fill:#353230;}
	.st2{fill:#FCF4E4;}
</style>
<g class="st0">
	<path class="st1" d="M69.3,213.6c0-0.6-0.2-1-0.7-1.4c-0.5-0.3-1.3-0.6-2.4-0.8c-1.1-0.2-2.1-0.5-2.8-0.9c-1.7-0.8-2.5-2-2.5-3.5
		c0-1.3,0.5-2.3,1.6-3.2c1.1-0.9,2.4-1.3,4.1-1.3c1.8,0,3.2,0.4,4.3,1.3c1.1,0.9,1.6,2,1.6,3.4h-3.3c0-0.6-0.2-1.2-0.7-1.6
		c-0.5-0.4-1.1-0.6-1.9-0.6c-0.7,0-1.3,0.2-1.8,0.5c-0.5,0.3-0.7,0.8-0.7,1.4c0,0.5,0.2,0.9,0.6,1.2c0.4,0.3,1.3,0.6,2.6,0.9
		c1.3,0.3,2.3,0.6,3.1,1c0.7,0.4,1.3,0.9,1.7,1.4c0.4,0.6,0.5,1.2,0.5,2c0,1.3-0.6,2.4-1.7,3.2c-1.1,0.8-2.5,1.2-4.3,1.2
		c-1.2,0-2.3-0.2-3.2-0.7c-0.9-0.4-1.7-1-2.2-1.8c-0.5-0.8-0.8-1.6-0.8-2.5h3.2c0,0.8,0.3,1.4,0.9,1.8s1.3,0.6,2.2,0.6
		c0.9,0,1.5-0.2,2-0.5C69,214.6,69.3,214.1,69.3,213.6z"/>
	<path class="st1" d="M81.9,217.9c-2.1,0-3.8-0.7-5.1-2c-1.3-1.3-2-3.1-2-5.3v-0.4c0-1.5,0.3-2.8,0.9-4c0.6-1.2,1.4-2.1,2.4-2.7
		c1-0.6,2.2-1,3.4-1c2,0,3.6,0.6,4.7,1.9c1.1,1.3,1.6,3.1,1.6,5.5v1.3h-9.7c0.1,1.2,0.5,2.2,1.2,2.9c0.7,0.7,1.6,1.1,2.7,1.1
		c1.5,0,2.8-0.6,3.7-1.8l1.8,1.7c-0.6,0.9-1.4,1.6-2.4,2.1C84.3,217.6,83.2,217.9,81.9,217.9z M81.6,205.2c-0.9,0-1.6,0.3-2.2,1
		s-0.9,1.5-1.1,2.7h6.3v-0.2c-0.1-1.1-0.4-2-0.9-2.5S82.5,205.2,81.6,205.2z"/>
	<path class="st1" d="M94,217.6h-3.3v-21H94V217.6z"/>
	<path class="st1" d="M98.8,217.6v-12.3h-2.3v-2.5h2.3v-1.4c0-1.6,0.5-2.9,1.4-3.8c0.9-0.9,2.2-1.3,3.8-1.3c0.6,0,1.2,0.1,1.9,0.2
		l-0.1,2.6c-0.4-0.1-0.8-0.1-1.3-0.1c-1.6,0-2.4,0.8-2.4,2.4v1.3h3v2.5h-3v12.3H98.8z"/>
	<path class="st1" d="M107.5,199c0-0.5,0.2-0.9,0.5-1.3c0.3-0.3,0.8-0.5,1.4-0.5s1.1,0.2,1.4,0.5s0.5,0.8,0.5,1.3
		c0,0.5-0.2,0.9-0.5,1.3s-0.8,0.5-1.4,0.5s-1.1-0.2-1.4-0.5C107.7,199.9,107.5,199.5,107.5,199z M111.1,217.6h-3.3v-14.8h3.3V217.6z
		"/>
	<path class="st1" d="M121.2,217.9c-2.1,0-3.8-0.7-5.1-2c-1.3-1.3-2-3.1-2-5.3v-0.4c0-1.5,0.3-2.8,0.9-4c0.6-1.2,1.4-2.1,2.4-2.7
		c1-0.6,2.2-1,3.4-1c2,0,3.6,0.6,4.7,1.9c1.1,1.3,1.6,3.1,1.6,5.5v1.3h-9.7c0.1,1.2,0.5,2.2,1.2,2.9c0.7,0.7,1.6,1.1,2.7,1.1
		c1.5,0,2.8-0.6,3.7-1.8l1.8,1.7c-0.6,0.9-1.4,1.6-2.4,2.1C123.5,217.6,122.4,217.9,121.2,217.9z M120.8,205.2c-0.9,0-1.6,0.3-2.2,1
		s-0.9,1.5-1.1,2.7h6.3v-0.2c-0.1-1.1-0.4-2-0.9-2.5S121.7,205.2,120.8,205.2z"/>
	<path class="st1" d="M131.8,214.1c0.6,0,1.1,0.2,1.4,0.5c0.3,0.4,0.5,0.8,0.5,1.3c0,0.5-0.2,1-0.5,1.3c-0.3,0.3-0.8,0.5-1.4,0.5
		c-0.6,0-1.1-0.2-1.4-0.5c-0.3-0.3-0.5-0.8-0.5-1.3s0.2-1,0.5-1.3C130.7,214.3,131.2,214.1,131.8,214.1z"/>
	<path class="st1" d="M141,202.8v16.1c0,1.5-0.4,2.7-1.1,3.5s-1.9,1.2-3.3,1.2c-0.6,0-1.2-0.1-1.8-0.2v-2.6c0.3,0.1,0.7,0.1,1.2,0.1
		c1.1,0,1.7-0.6,1.7-1.8v-16.2H141z M137.4,199c0-0.5,0.2-0.9,0.5-1.3c0.3-0.3,0.8-0.5,1.4-0.5s1.1,0.2,1.4,0.5s0.5,0.8,0.5,1.3
		c0,0.5-0.2,0.9-0.5,1.3s-0.8,0.5-1.4,0.5s-1.1-0.2-1.4-0.5C137.5,199.9,137.4,199.5,137.4,199z"/>
	<path class="st1" d="M157.5,210.4c0,2.3-0.5,4.1-1.6,5.5s-2.4,2-4.2,2c-1.6,0-2.9-0.5-3.9-1.6v7h-3.3v-20.5h3.1l0.1,1.5
		c1-1.2,2.3-1.8,4-1.8c1.8,0,3.2,0.7,4.2,2s1.5,3.2,1.5,5.6V210.4z M154.2,210.1c0-1.5-0.3-2.6-0.9-3.5s-1.4-1.3-2.5-1.3
		c-1.4,0-2.3,0.6-2.9,1.7v6.6c0.6,1.1,1.6,1.7,3,1.7c1.1,0,1.9-0.4,2.5-1.3C153.9,213.1,154.2,211.8,154.2,210.1z"/>
	<path class="st1" d="M159.7,210.1c0-2.3,0.5-4.1,1.6-5.5s2.5-2.1,4.3-2.1c1.7,0,3,0.6,4,1.8l0.2-1.5h3v14.3c0,1.9-0.6,3.5-1.8,4.6
		c-1.2,1.1-2.8,1.7-4.9,1.7c-1.1,0-2.1-0.2-3.2-0.7c-1-0.5-1.8-1-2.4-1.8l1.6-2c1,1.2,2.3,1.8,3.8,1.8c1.1,0,2-0.3,2.6-0.9
		c0.6-0.6,1-1.5,1-2.6v-1c-1,1.1-2.2,1.6-3.8,1.6c-1.7,0-3.1-0.7-4.2-2.1C160.3,214.5,159.7,212.5,159.7,210.1z M163,210.4
		c0,1.5,0.3,2.7,0.9,3.5c0.6,0.9,1.4,1.3,2.5,1.3c1.3,0,2.3-0.6,3-1.7V207c-0.6-1.1-1.6-1.7-3-1.7c-1.1,0-1.9,0.4-2.5,1.3
		C163.3,207.4,163,208.7,163,210.4z"/>
</g>
<g>
	<g>
		<polygon class="st2" points="55.3,173.8 55.3,18.2 147.2,18.2 178.5,46.5 178.5,173.8 		"/>
		<path class="st1" d="M146.4,20.2l30.1,27.1v124.4H57.3V20.2H146.4 M147.9,16.2H53.3v159.6h127.2V45.6L147.9,16.2L147.9,16.2
			L147.9,16.2z"/>
	</g>
	<g>
		<polygon class="st2" points="149.9,43.6 149.9,20.7 175.3,43.6 		"/>
		<path class="st1" d="M151.9,25.2l18.1,16.4h-18.1V25.2 M147.9,16.2v29.4h32.6L147.9,16.2L147.9,16.2z"/>
	</g>
</g>
<polygon class="st1" points="132,69.9 106.7,95.3 98.4,87 82.1,103.2 82.1,134.5 151.7,134.5 151.7,101.4 151.7,89.6 "/>
<circle class="st1" cx="95.4" cy="63.1" r="12.1"/>
</svg>
