<?xml version="1.0" encoding="utf-8"?>
<!-- Generator: Adobe Illustrator 27.2.0, SVG Export Plug-In . SVG Version: 6.00 Build 0)  -->
<svg version="1.1" id="Ebene_3" xmlns="http://www.w3.org/2000/svg" xmlns:xlink="http://www.w3.org/1999/xlink" x="0px" y="0px"
	 viewBox="0 0 233.8 233.8" style="enable-background:new 0 0 233.8 233.8;" xml:space="preserve">
<style type="text/css">
	.st0{enable-background:new    ;}
	.st1{fill:#353230;}
	.st2{fill:#FCF4E4;}
</style>
<g class="st0">
	<path class="st1" d="M36.5,217.6h-3.3v-21h3.3V217.6z"/>
	<path class="st1" d="M46.6,217.9c-2.1,0-3.8-0.7-5.1-2c-1.3-1.3-2-3.1-2-5.3v-0.4c0-1.5,0.3-2.8,0.9-4c0.6-1.2,1.4-2.1,2.4-2.7
		c1-0.6,2.2-1,3.4-1c2,0,3.6,0.6,4.7,1.9c1.1,1.3,1.6,3.1,1.6,5.5v1.3h-9.7c0.1,1.2,0.5,2.2,1.2,2.9c0.7,0.7,1.6,1.1,2.7,1.1
		c1.5,0,2.8-0.6,3.7-1.8l1.8,1.7c-0.6,0.9-1.4,1.6-2.4,2.1C48.9,217.6,47.8,217.9,46.6,217.9z M46.2,205.2c-0.9,0-1.6,0.3-2.2,1
		s-0.9,1.5-1.1,2.7h6.3v-0.2c-0.1-1.1-0.4-2-0.9-2.5S47.1,205.2,46.2,205.2z"/>
	<path class="st1" d="M68.1,210.4c0,2.3-0.5,4.1-1.5,5.5s-2.4,2-4.2,2c-1.7,0-3.1-0.6-4-1.9l-0.2,1.6h-3v-21h3.3v7.6
		c1-1.1,2.2-1.7,3.9-1.7c1.8,0,3.2,0.7,4.3,2c1,1.3,1.5,3.2,1.5,5.6V210.4z M64.8,210.1c0-1.6-0.3-2.8-0.8-3.6
		c-0.6-0.8-1.4-1.2-2.5-1.2c-1.4,0-2.5,0.6-3,1.9v6.1c0.6,1.3,1.6,1.9,3.1,1.9c1,0,1.8-0.4,2.4-1.2c0.6-0.8,0.9-1.9,0.9-3.5V210.1z"
		/>
	<path class="st1" d="M77.4,217.9c-2.1,0-3.8-0.7-5.1-2c-1.3-1.3-2-3.1-2-5.3v-0.4c0-1.5,0.3-2.8,0.9-4c0.6-1.2,1.4-2.1,2.4-2.7
		c1-0.6,2.2-1,3.4-1c2,0,3.6,0.6,4.7,1.9c1.1,1.3,1.6,3.1,1.6,5.5v1.3h-9.7c0.1,1.2,0.5,2.2,1.2,2.9c0.7,0.7,1.6,1.1,2.7,1.1
		c1.5,0,2.8-0.6,3.7-1.8l1.8,1.7c-0.6,0.9-1.4,1.6-2.4,2.1C79.7,217.6,78.6,217.9,77.4,217.9z M77,205.2c-0.9,0-1.6,0.3-2.2,1
		s-0.9,1.5-1.1,2.7H80v-0.2c-0.1-1.1-0.4-2-0.9-2.5S77.9,205.2,77,205.2z"/>
	<path class="st1" d="M89,202.8l0.1,1.7c1.1-1.3,2.5-2,4.3-2c3.1,0,4.6,1.8,4.7,5.3v9.8h-3.3V208c0-0.9-0.2-1.6-0.6-2.1
		c-0.4-0.5-1.1-0.7-2-0.7c-1.3,0-2.3,0.6-3,1.8v10.5h-3.3v-14.8H89z"/>
	<path class="st1" d="M109.8,213.6c0-0.6-0.2-1-0.7-1.4c-0.5-0.3-1.3-0.6-2.4-0.8c-1.1-0.2-2.1-0.5-2.8-0.9c-1.7-0.8-2.5-2-2.5-3.5
		c0-1.3,0.5-2.3,1.6-3.2c1.1-0.9,2.4-1.3,4.1-1.3c1.8,0,3.2,0.4,4.3,1.3c1.1,0.9,1.6,2,1.6,3.4h-3.3c0-0.6-0.2-1.2-0.7-1.6
		c-0.5-0.4-1.1-0.6-1.9-0.6c-0.7,0-1.3,0.2-1.8,0.5c-0.5,0.3-0.7,0.8-0.7,1.4c0,0.5,0.2,0.9,0.6,1.2c0.4,0.3,1.3,0.6,2.6,0.9
		c1.3,0.3,2.3,0.6,3.1,1c0.7,0.4,1.3,0.9,1.7,1.4c0.4,0.6,0.5,1.2,0.5,2c0,1.3-0.6,2.4-1.7,3.2c-1.1,0.8-2.5,1.2-4.3,1.2
		c-1.2,0-2.3-0.2-3.2-0.7c-0.9-0.4-1.7-1-2.2-1.8c-0.5-0.8-0.8-1.6-0.8-2.5h3.2c0,0.8,0.3,1.4,0.9,1.8s1.3,0.6,2.2,0.6
		c0.9,0,1.5-0.2,2-0.5C109.5,214.6,109.8,214.1,109.8,213.6z"/>
	<path class="st1" d="M119.5,217.6h-3.3v-21h3.3V217.6z"/>
	<path class="st1" d="M131.9,217.6c-0.1-0.3-0.3-0.7-0.4-1.4c-1.1,1.1-2.4,1.7-3.9,1.7c-1.5,0-2.7-0.4-3.6-1.3
		c-0.9-0.8-1.4-1.9-1.4-3.1c0-1.6,0.6-2.8,1.8-3.6c1.2-0.8,2.8-1.3,5-1.3h2v-1c0-0.8-0.2-1.4-0.6-1.8c-0.4-0.5-1.1-0.7-2-0.7
		c-0.8,0-1.4,0.2-1.9,0.6c-0.5,0.4-0.7,0.9-0.7,1.4h-3.3c0-0.8,0.3-1.6,0.8-2.3c0.5-0.7,1.3-1.3,2.2-1.7c0.9-0.4,2-0.6,3.1-0.6
		c1.7,0,3.1,0.4,4.1,1.3c1,0.9,1.6,2.1,1.6,3.7v6.7c0,1.3,0.2,2.4,0.6,3.2v0.2H131.9z M128.3,215.2c0.7,0,1.3-0.2,1.9-0.5
		c0.6-0.3,1-0.7,1.3-1.3v-2.8h-1.8c-1.2,0-2.2,0.2-2.8,0.6c-0.6,0.4-0.9,1-0.9,1.8c0,0.6,0.2,1.1,0.6,1.5S127.5,215.2,128.3,215.2z"
		/>
	<path class="st1" d="M147.2,216.2c-1,1.1-2.4,1.7-4.2,1.7c-1.6,0-2.8-0.5-3.6-1.4c-0.8-0.9-1.2-2.3-1.2-4.1v-9.6h3.3v9.5
		c0,1.9,0.8,2.8,2.3,2.8c1.6,0,2.7-0.6,3.3-1.7v-10.6h3.3v14.8h-3.1L147.2,216.2z"/>
	<path class="st1" d="M154.9,217.6v-12.3h-2.3v-2.5h2.3v-1.4c0-1.6,0.5-2.9,1.4-3.8c0.9-0.9,2.2-1.3,3.8-1.3c0.6,0,1.2,0.1,1.9,0.2
		l-0.1,2.6c-0.4-0.1-0.8-0.1-1.3-0.1c-1.6,0-2.4,0.8-2.4,2.4v1.3h3v2.5h-3v12.3H154.9z"/>
	<path class="st1" d="M165.8,214.1c0.6,0,1.1,0.2,1.4,0.5c0.3,0.4,0.5,0.8,0.5,1.3c0,0.5-0.2,1-0.5,1.3c-0.3,0.3-0.8,0.5-1.4,0.5
		c-0.6,0-1.1-0.2-1.4-0.5c-0.3-0.3-0.5-0.8-0.5-1.3s0.2-1,0.5-1.3C164.7,214.3,165.2,214.1,165.8,214.1z"/>
	<path class="st1" d="M175.7,199.2v3.6h2.6v2.5h-2.6v8.3c0,0.6,0.1,1,0.3,1.2c0.2,0.3,0.6,0.4,1.2,0.4c0.4,0,0.8,0,1.2-0.1v2.6
		c-0.8,0.2-1.5,0.3-2.2,0.3c-2.6,0-3.8-1.4-3.8-4.2v-8.4h-2.4v-2.5h2.4v-3.6H175.7z"/>
	<path class="st1" d="M186.1,207.7l2.8-4.9h3.7l-4.5,7.3l4.7,7.5h-3.7l-3-5.1l-2.9,5.1h-3.7l4.7-7.5l-4.5-7.3h3.7L186.1,207.7z"/>
	<path class="st1" d="M199.1,199.2v3.6h2.6v2.5h-2.6v8.3c0,0.6,0.1,1,0.3,1.2c0.2,0.3,0.6,0.4,1.2,0.4c0.4,0,0.8,0,1.2-0.1v2.6
		c-0.8,0.2-1.5,0.3-2.2,0.3c-2.6,0-3.8-1.4-3.8-4.2v-8.4h-2.4v-2.5h2.4v-3.6H199.1z"/>
</g>
<g>
	<g>
		<polygon class="st2" points="55.3,173.8 55.3,18.2 147.2,18.2 178.5,46.5 178.5,173.8 		"/>
		<path class="st1" d="M146.4,20.2l30.1,27.1v124.4H57.3V20.2H146.4 M147.9,16.2H53.3v159.6h127.2V45.6L147.9,16.2L147.9,16.2
			L147.9,16.2z"/>
	</g>
	<g>
		<polygon class="st2" points="149.9,43.6 149.9,20.7 175.3,43.6 		"/>
		<path class="st1" d="M151.9,25.2l18.1,16.4h-18.1V25.2 M147.9,16.2v29.4h32.6L147.9,16.2L147.9,16.2z"/>
	</g>
</g>
<rect x="82.1" y="57.8" class="st1" width="69.6" height="5.3"/>
<rect x="82.1" y="67.9" class="st1" width="69.6" height="5.3"/>
<rect x="82.1" y="78.1" class="st1" width="69.6" height="5.3"/>
<rect x="82.1" y="88.2" class="st1" width="69.6" height="5.3"/>
<rect x="82.1" y="98.4" class="st1" width="69.6" height="5.3"/>
<rect x="82.1" y="108.5" class="st1" width="69.6" height="5.3"/>
<rect x="82.1" y="118.7" class="st1" width="69.6" height="5.3"/>
<rect x="82.1" y="128.8" class="st1" width="22" height="5.3"/>
</svg>
