<?xml version="1.0" encoding="utf-8"?>
<!-- Generator: Adobe Illustrator 27.2.0, SVG Export Plug-In . SVG Version: 6.00 Build 0)  -->
<svg version="1.1" id="Ebene_3" xmlns="http://www.w3.org/2000/svg" xmlns:xlink="http://www.w3.org/1999/xlink" x="0px" y="0px"
	 viewBox="0 0 233.8 233.8" style="enable-background:new 0 0 233.8 233.8;" xml:space="preserve">
<style type="text/css">
	.st0{fill:#FCF2E0;}
	.st1{fill:#2E2C2B;}
	.st2{fill-rule:evenodd;clip-rule:evenodd;fill:#FCF2E0;}
	.st3{fill:#353230;}
</style>
<g>
	<rect x="45.8" y="20.2" class="st0" width="142.1" height="142.1"/>
	<path class="st1" d="M185.9,22.2v138.1H47.8V22.2H185.9 M189.9,18.2H43.8v146.1h146.1L189.9,18.2L189.9,18.2z"/>
</g>
<path class="st1" d="M116.9,36.8L116.9,36.8c30.1,0,54.5,24.4,54.5,54.5v0c0,30.1-24.4,54.5-54.5,54.5h0
	c-30.1,0-54.5-24.4-54.5-54.5v0C62.4,61.2,86.8,36.8,116.9,36.8z"/>
<g>
	<path id="path28" class="st2" d="M103.9,114V78h-12v36H103.9z M97.9,73.1c4.2,0,6.8-2.8,6.8-6.2c-0.1-3.5-2.6-6.2-6.7-6.2
		c-4.1,0-6.8,2.7-6.8,6.2C91.2,70.3,93.8,73.1,97.9,73.1L97.9,73.1L97.9,73.1z"/>
	<path id="path30" class="st2" d="M110.5,114h12V93.9c0-1.1,0.1-2.1,0.4-2.9c0.9-2.1,2.8-4.4,6.1-4.4c4.3,0,6.1,3.3,6.1,8.1V114h12
		V93.3c0-11.1-5.9-16.2-13.8-16.2c-6.5,0-9.3,3.6-10.9,6.1h0.1V78h-12C110.6,81.4,110.5,114,110.5,114L110.5,114z"/>
</g>
<g>
	<path class="st3" d="M69.1,214.9h9v2.8H65.6v-19.9h3.5V214.9z"/>
	<path class="st3" d="M80.5,199c0-0.5,0.2-0.9,0.5-1.3c0.3-0.3,0.8-0.5,1.4-0.5s1.1,0.2,1.4,0.5c0.3,0.3,0.5,0.8,0.5,1.3
		c0,0.5-0.2,0.9-0.5,1.3c-0.3,0.3-0.8,0.5-1.4,0.5s-1.1-0.2-1.4-0.5C80.6,199.9,80.5,199.5,80.5,199z M84,217.6h-3.3v-14.8H84V217.6
		z"/>
	<path class="st3" d="M90.7,202.8l0.1,1.7c1.1-1.3,2.5-2,4.3-2c3.1,0,4.6,1.8,4.7,5.3v9.8h-3.3V208c0-0.9-0.2-1.6-0.6-2.1
		s-1.1-0.7-2-0.7c-1.3,0-2.3,0.6-3,1.8v10.5h-3.3v-14.8H90.7z"/>
	<path class="st3" d="M108,211.3l-1.5,1.5v4.8h-3.3v-21h3.3v12.1l1-1.3l4.1-4.6h4l-5.5,6.2l6.1,8.6h-3.8L108,211.3z"/>
	<path class="st3" d="M124.1,217.9c-2.1,0-3.8-0.7-5.1-2c-1.3-1.3-2-3.1-2-5.3v-0.4c0-1.5,0.3-2.8,0.9-4s1.4-2.1,2.4-2.7
		c1-0.6,2.2-1,3.4-1c2,0,3.6,0.6,4.7,1.9c1.1,1.3,1.6,3.1,1.6,5.5v1.3h-9.7c0.1,1.2,0.5,2.2,1.2,2.9c0.7,0.7,1.6,1.1,2.7,1.1
		c1.5,0,2.8-0.6,3.7-1.8l1.8,1.7c-0.6,0.9-1.4,1.6-2.4,2.1C126.4,217.6,125.3,217.9,124.1,217.9z M123.7,205.2c-0.9,0-1.6,0.3-2.2,1
		c-0.6,0.6-0.9,1.5-1.1,2.7h6.3v-0.2c-0.1-1.1-0.4-2-0.9-2.5C125.3,205.5,124.6,205.2,123.7,205.2z"/>
	<path class="st3" d="M131.9,210.1c0-2.3,0.5-4.1,1.6-5.5c1.1-1.4,2.5-2.1,4.3-2.1c1.6,0,2.8,0.5,3.8,1.6v-7.6h3.3v21h-3l-0.2-1.5
		c-1,1.2-2.3,1.8-4,1.8c-1.7,0-3.1-0.7-4.2-2.1C132.5,214.4,131.9,212.5,131.9,210.1z M135.3,210.4c0,1.5,0.3,2.7,0.9,3.5
		c0.6,0.8,1.4,1.3,2.5,1.3c1.4,0,2.4-0.6,3-1.8v-6.3c-0.6-1.2-1.6-1.8-3-1.8c-1.1,0-1.9,0.4-2.5,1.3
		C135.6,207.4,135.3,208.7,135.3,210.4z"/>
	<path class="st3" d="M152.3,217.6h-3.4v-19.9h3.4V217.6z"/>
	<path class="st3" d="M159.4,202.8l0.1,1.7c1.1-1.3,2.5-2,4.3-2c3.1,0,4.6,1.8,4.7,5.3v9.8h-3.3V208c0-0.9-0.2-1.6-0.6-2.1
		c-0.4-0.5-1.1-0.7-2-0.7c-1.3,0-2.3,0.6-3,1.8v10.5h-3.3v-14.8H159.4z"/>
</g>
</svg>
