<?xml version="1.0" encoding="utf-8"?>
<!-- Generator: Adobe Illustrator 27.2.0, SVG Export Plug-In . SVG Version: 6.00 Build 0)  -->
<svg version="1.1" id="Ebene_3" xmlns="http://www.w3.org/2000/svg" xmlns:xlink="http://www.w3.org/1999/xlink" x="0px" y="0px"
	 viewBox="0 0 233.8 233.8" style="enable-background:new 0 0 233.8 233.8;" xml:space="preserve">
<style type="text/css">
	.st0{enable-background:new    ;}
	.st1{fill:#353230;}
	.st2{fill:#FCF4E4;stroke:#353230;stroke-width:4;stroke-linecap:round;stroke-linejoin:round;}
	.st3{fill:#FCF4E4;}
</style>
<g class="st0">
	<path class="st1" d="M53.9,210.2v7.4h-3.5v-19.9h7.6c2.2,0,4,0.6,5.3,1.7c1.3,1.2,2,2.7,2,4.6c0,2-0.6,3.5-1.9,4.6
		c-1.3,1.1-3.1,1.6-5.4,1.6H53.9z M53.9,207.4h4.2c1.2,0,2.2-0.3,2.8-0.9c0.6-0.6,1-1.4,1-2.5c0-1.1-0.3-1.9-1-2.6s-1.6-1-2.7-1
		h-4.3V207.4z"/>
</g>
<g class="st0">
	<path class="st1" d="M76.8,217.6c-0.1-0.3-0.3-0.7-0.4-1.4c-1.1,1.1-2.4,1.7-3.9,1.7c-1.5,0-2.7-0.4-3.6-1.3
		c-0.9-0.8-1.4-1.9-1.4-3.1c0-1.6,0.6-2.8,1.8-3.6c1.2-0.8,2.8-1.3,5-1.3h2v-1c0-0.8-0.2-1.4-0.6-1.8c-0.4-0.5-1.1-0.7-2-0.7
		c-0.8,0-1.4,0.2-1.9,0.6c-0.5,0.4-0.7,0.9-0.7,1.4h-3.3c0-0.8,0.3-1.6,0.8-2.3c0.5-0.7,1.3-1.3,2.2-1.7c0.9-0.4,2-0.6,3.1-0.6
		c1.7,0,3.1,0.4,4.1,1.3c1,0.9,1.6,2.1,1.6,3.7v6.7c0,1.3,0.2,2.4,0.6,3.2v0.2H76.8z M73.1,215.2c0.7,0,1.3-0.2,1.9-0.5
		c0.6-0.3,1-0.7,1.3-1.3v-2.8h-1.8c-1.2,0-2.2,0.2-2.8,0.6c-0.6,0.4-0.9,1-0.9,1.8c0,0.6,0.2,1.1,0.6,1.5S72.4,215.2,73.1,215.2z"/>
	<path class="st1" d="M96,210.4c0,2.3-0.5,4.1-1.6,5.5s-2.4,2-4.2,2c-1.6,0-2.9-0.5-3.9-1.6v7h-3.3v-20.5h3.1l0.1,1.5
		c1-1.2,2.3-1.8,4-1.8c1.8,0,3.2,0.7,4.2,2s1.5,3.2,1.5,5.6V210.4z M92.7,210.1c0-1.5-0.3-2.6-0.9-3.5s-1.4-1.3-2.5-1.3
		c-1.4,0-2.3,0.6-2.9,1.7v6.6c0.6,1.1,1.6,1.7,3,1.7c1.1,0,1.9-0.4,2.5-1.3C92.4,213.1,92.7,211.8,92.7,210.1z"/>
	<path class="st1" d="M98.8,199c0-0.5,0.2-0.9,0.5-1.3c0.3-0.3,0.8-0.5,1.4-0.5s1.1,0.2,1.4,0.5s0.5,0.8,0.5,1.3
		c0,0.5-0.2,0.9-0.5,1.3s-0.8,0.5-1.4,0.5s-1.1-0.2-1.4-0.5C99,199.9,98.8,199.5,98.8,199z M102.4,217.6H99v-14.8h3.3V217.6z"/>
	<path class="st1" d="M112.5,217.9c-2.1,0-3.8-0.7-5.1-2c-1.3-1.3-2-3.1-2-5.3v-0.4c0-1.5,0.3-2.8,0.9-4c0.6-1.2,1.4-2.1,2.4-2.7
		c1-0.6,2.2-1,3.4-1c2,0,3.6,0.6,4.7,1.9c1.1,1.3,1.6,3.1,1.6,5.5v1.3h-9.7c0.1,1.2,0.5,2.2,1.2,2.9c0.7,0.7,1.6,1.1,2.7,1.1
		c1.5,0,2.8-0.6,3.7-1.8l1.8,1.7c-0.6,0.9-1.4,1.6-2.4,2.1C114.8,217.6,113.7,217.9,112.5,217.9z M112.1,205.2c-0.9,0-1.6,0.3-2.2,1
		s-0.9,1.5-1.1,2.7h6.3v-0.2c-0.1-1.1-0.4-2-0.9-2.5S113,205.2,112.1,205.2z"/>
	<path class="st1" d="M128.7,205.9c-0.4-0.1-0.9-0.1-1.4-0.1c-1.5,0-2.5,0.6-3.1,1.8v10.1H121v-14.8h3.2l0.1,1.7
		c0.8-1.3,1.9-1.9,3.3-1.9c0.5,0,0.9,0.1,1.2,0.2L128.7,205.9z"/>
	<path class="st1" d="M135.6,211.3l-1.5,1.5v4.8h-3.3v-21h3.3v12.1l1-1.3l4.1-4.6h4l-5.5,6.2l6.1,8.6H140L135.6,211.3z"/>
	<path class="st1" d="M144.8,210.1c0-1.4,0.3-2.8,0.9-3.9s1.4-2.1,2.4-2.7s2.2-0.9,3.6-0.9c2,0,3.6,0.6,4.9,1.9s1.9,3,2,5.1l0,0.8
		c0,1.5-0.3,2.8-0.8,3.9s-1.4,2-2.4,2.7s-2.2,0.9-3.6,0.9c-2.1,0-3.8-0.7-5-2.1s-1.9-3.2-1.9-5.6V210.1z M148.2,210.4
		c0,1.5,0.3,2.7,0.9,3.6s1.5,1.3,2.6,1.3s2-0.4,2.6-1.3s0.9-2.2,0.9-3.8c0-1.5-0.3-2.7-1-3.6s-1.5-1.3-2.6-1.3
		c-1.1,0-1.9,0.4-2.6,1.3S148.2,208.7,148.2,210.4z"/>
	<path class="st1" d="M169.1,205.9c-0.4-0.1-0.9-0.1-1.4-0.1c-1.5,0-2.5,0.6-3.1,1.8v10.1h-3.3v-14.8h3.2l0.1,1.7
		c0.8-1.3,1.9-1.9,3.3-1.9c0.5,0,0.9,0.1,1.2,0.2L169.1,205.9z"/>
	<path class="st1" d="M184.2,210.4c0,2.3-0.5,4.1-1.5,5.5s-2.4,2-4.2,2c-1.7,0-3.1-0.6-4-1.9l-0.2,1.6h-3v-21h3.3v7.6
		c1-1.1,2.2-1.7,3.9-1.7c1.8,0,3.2,0.7,4.3,2s1.5,3.2,1.5,5.6V210.4z M180.9,210.1c0-1.6-0.3-2.8-0.8-3.6s-1.4-1.2-2.5-1.2
		c-1.4,0-2.5,0.6-3,1.9v6.1c0.6,1.3,1.6,1.9,3.1,1.9c1,0,1.8-0.4,2.4-1.2s0.9-1.9,0.9-3.5V210.1z"/>
</g>
<g>
	<polygon class="st1" points="195.2,17.6 174.5,152.4 150.4,178.3 134,70.6 	"/>
	<polyline class="st2" points="164.2,42.1 192.3,17.1 66.7,17.1 41.5,39.6 	"/>
	<g>
		<polygon class="st3" points="57,176.3 40.8,41.6 163.8,41.6 148.7,176.3 		"/>
		<path class="st1" d="M161.6,43.6l-14.7,130.8H58.7L43.1,43.6L161.6,43.6 M166,39.6L166,39.6L166,39.6z M166,39.6H38.6l16.6,138.8
			h95.2L166,39.6L166,39.6z"/>
	</g>
	<polygon class="st1" points="67.4,19.2 97.5,42.1 41.5,42.1 	"/>
	<g>
		<path class="st1" d="M95.7,76c-0.4,0.1-0.6,0.1-0.9,0.1c-0.3,0-0.6,0-0.8,0.3c-0.1,0.1-0.4,0.3-0.7,0.4c-0.4,0.2-0.8,0.4-1.4,0.8
			c-0.5,0.3-0.9,0.6-1,0.7c-0.2,0.2-7.6,11.3-7.8,11.6c-0.2,0.4,0,0.9,0.4,1.2c0.1,0.1,3,1.8,6.3,3.8c5.7,3.4,6.1,3.7,6.3,3.7
			c0.3,0,0.5-0.1,0.7-0.2c0.1,0,1.5-2.3,3.3-5c1.8-2.7,3.2-4.9,3.2-4.9s3.2,5.5,3.2,5.6c0,0-1.1,0.7-2.5,1.5
			c-2.8,1.6-2.8,1.6-2.8,2.1c0,0.3,0,0.4,0.2,0.5c0.3,0.4-0.1,0.3,6.6,0.7c3.3,0.2,7,0.3,8.3,0.4c2.5,0.1,2.5,0.1,2.8-0.2
			c0.1-0.1,8.1-14.1,8.6-15.1c0-0.1,0.1-0.2,0.1-0.4c0-0.5-0.4-0.9-0.9-0.9c-0.2,0-0.5,0.2-2.8,1.5c-1.4,0.8-2.6,1.4-2.6,1.4
			s-1-1.7-2.2-3.8l-2.1-3.8l-0.4-0.4c-0.6-0.6-1.2-0.9-1.9-1.1c-0.4-0.1-0.8-0.1-9.9-0.6c-1.8-0.1-4.5-0.2-5.9-0.3
			c-1.4-0.1-2.7-0.1-2.8-0.1C96.3,75.8,96,75.9,95.7,76L95.7,76z"/>
		<path class="st1" d="M84.2,97c-2.8,0.1-4.1,0.2-11.3,0.4c-2.6,0.1-2.7,0.1-2.9,0.2c-0.5,0.3-0.7,1-0.2,1.4
			c0.1,0.1,1.2,0.8,2.6,1.5c1.4,0.7,2.5,1.4,2.5,1.4c0.1,0-0.1,0.3-0.6,1.2c-3.7,6.8-3.6,6.5-3.7,7.1c-0.1,0.5-0.1,0.6-0.1,1.1
			c0.1,1-0.2,0.6,4.7,9.4l4.3,7.9l0.5,0.5c0.3,0.3,0.6,0.6,0.6,0.7c0.2,0.3,0.3,0.4,0.7,0.5c0.2,0,0.4,0.2,0.6,0.3
			c0.4,0.3,1.8,1,2.3,1.2c0.4,0.1-0.1,0.1,7.7,0.4c7.4,0.3,6.7,0.3,6.9,0.2c0.1-0.1,0.3-0.2,0.3-0.3l0.2-0.2l0-7.4
			c0-4.9,0-7.5-0.1-7.6c-0.1-0.3-0.2-0.5-0.5-0.6c-0.2-0.1-0.6-0.1-6.1-0.3c-3.2-0.1-5.9-0.2-5.9-0.2c0,0,3.1-5.6,3.1-5.7
			c0-0.1,0.7,0.3,2.4,1.2c1.3,0.7,2.4,1.3,2.5,1.4c0.3,0.2,0.7,0.1,0.9,0c0.3-0.2,0.5-0.6,0.4-0.9c-0.1-0.2-7.9-14.5-8.1-14.7
			c-0.2-0.2-0.3-0.3-0.6-0.3C87.3,96.9,85.9,96.9,84.2,97L84.2,97z"/>
		<path class="st1" d="M126.5,96.9c-0.2,0.1-12.7,7-12.9,7.2c-0.2,0.2-0.4,0.5-0.3,0.8c0,0.2,0.7,1.6,2.7,5.4
			c1.5,2.9,2.7,5.2,2.7,5.2s-1.5,0-3.3,0h-3.3l0-2.9l0-2.9l-0.1-0.2c-0.2-0.3-0.5-0.4-0.8-0.4c-0.2,0-0.5,0.2-0.7,0.3
			c-0.1,0.1-8.6,13.5-8.8,13.9c-0.2,0.3-0.2,0.7-0.1,0.9c0.2,0.5,8.8,14.7,8.9,14.8c0.3,0.3,0.8,0.4,1.1,0.2
			c0.2-0.1,0.3-0.4,0.4-0.6c0-0.1,0.1-1.3,0.1-3.1v-2.9l4.4,0l4.4,0l0.5-0.1c0.8-0.2,1.3-0.6,1.8-1.1c0.2-0.3,1.7-2.5,5.1-7.8
			c2.6-4.1,4.8-7.5,4.8-7.6c0.1-0.1,0.2-0.4,0.3-0.8c0.1-0.4,0.2-0.7,0.3-0.8c0.1-0.2,0.1-0.2,0.1-0.5c0-0.4,0-0.6,0-1.6
			c0-0.9,0-1.1-0.1-1.7l-0.1-0.7l-3.1-6.3l-3.1-6.3l-0.2-0.2C127,96.9,126.7,96.9,126.5,96.9L126.5,96.9z"/>
	</g>
</g>
</svg>
