<?xml version="1.0" encoding="UTF-8"?>
<svg id="Ebene_3" data-name="Ebene 3" xmlns="http://www.w3.org/2000/svg" viewBox="0 0 233.76 233.76">
  <defs>
    <style>
      .cls-1, .cls-2 {
        fill: #fcf4e4;
      }

      .cls-3, .cls-4 {
        fill: #353230;
      }

      .cls-4 {
        font-family: Roboto-Medium, Roboto;
        font-size: 28px;
        font-weight: 500;
      }

      .cls-2 {
        stroke: #353230;
        stroke-linecap: round;
        stroke-linejoin: round;
        stroke-width: 4px;
      }

      .cls-5 {
        letter-spacing: 0em;
      }
    </style>
  </defs>
  <text class="cls-4" transform="translate(48.46 217.62)"><tspan class="cls-5" x="0" y="0">P</tspan><tspan x="17.75" y="0">apierkorb</tspan></text>
  <g>
    <polygon class="cls-3" points="195.17 17.62 174.47 152.42 150.45 178.34 133.98 70.57 195.17 17.62"/>
    <polyline class="cls-2" points="164.17 42.14 192.27 17.08 66.71 17.08 41.53 39.57"/>
    <g>
      <polygon class="cls-1" points="56.97 176.34 40.85 41.57 163.8 41.57 148.66 176.34 56.97 176.34"/>
      <path class="cls-3" d="m161.56,43.57l-14.69,130.77H58.74l-15.64-130.77h118.46m4.47-4h0,0Zm0,0H38.6l16.59,138.77h95.25l15.59-138.77h0Z"/>
    </g>
    <polygon class="cls-3" points="67.41 19.2 97.47 42.14 41.53 42.14 67.41 19.2"/>
    <g>
      <path class="cls-3" d="m95.67,76c-.44.12-.61.14-.86.12-.34-.04-.55.04-.78.28-.07.08-.4.26-.73.4-.43.19-.85.43-1.44.83-.46.31-.89.63-.96.72-.15.16-7.64,11.34-7.78,11.59-.21.41-.04.92.42,1.21.13.08,2.97,1.81,6.32,3.84,5.66,3.44,6.11,3.7,6.35,3.72.26.02.49-.06.69-.23.05-.04,1.53-2.27,3.3-4.96,1.76-2.69,3.22-4.88,3.25-4.88.03,0,3.18,5.51,3.21,5.61,0,.03-1.1.69-2.47,1.47-2.84,1.62-2.79,1.58-2.79,2.13,0,.3.02.36.15.53.3.39-.1.35,6.56.66,3.3.15,7.02.32,8.28.38,2.49.12,2.53.12,2.81-.16.12-.11,8.11-14.13,8.58-15.06.04-.07.07-.22.07-.36.02-.53-.41-.94-.95-.9-.23.02-.54.18-2.8,1.46-1.4.8-2.55,1.45-2.57,1.45s-.99-1.69-2.16-3.76l-2.14-3.76-.45-.44c-.56-.55-1.23-.94-1.89-1.1-.45-.11-.77-.13-9.88-.55-1.81-.09-4.48-.21-5.92-.28-1.44-.07-2.68-.13-2.75-.12-.07,0-.38.07-.69.15Z"/>
      <path class="cls-3" d="m84.23,96.99c-2.77.11-4.1.16-11.29.43-2.6.1-2.73.11-2.95.22-.54.27-.66.98-.23,1.41.09.09,1.25.75,2.62,1.5,1.36.73,2.49,1.36,2.53,1.39.06.04-.06.28-.57,1.21-3.73,6.79-3.57,6.49-3.72,7.09-.12.48-.13.64-.11,1.07.05,1.02-.16.61,4.68,9.38l4.35,7.91.49.5c.27.28.55.61.61.74.15.28.31.4.67.51.15.04.42.19.61.33.41.29,1.82,1.02,2.33,1.19.4.14-.13.11,7.7.42,7.39.3,6.65.28,6.87.17.11-.06.27-.18.35-.29l.16-.2-.02-7.39c-.01-4.91-.04-7.46-.07-7.59-.08-.29-.23-.48-.48-.59-.21-.1-.57-.11-6.1-.28-3.23-.1-5.88-.19-5.89-.19-.02-.02,3.06-5.62,3.13-5.69.04-.05.67.28,2.37,1.22,1.27.71,2.41,1.33,2.53,1.38.31.15.68.14.92-.03.34-.23.48-.56.4-.94-.06-.24-7.91-14.46-8.1-14.67-.18-.19-.34-.27-.61-.3-.13-.02-1.56.03-3.2.09Z"/>
      <path class="cls-3" d="m126.53,96.95c-.16.06-12.73,7.04-12.89,7.16-.23.17-.38.51-.34.8.02.16.74,1.61,2.7,5.43,1.47,2.87,2.68,5.23,2.68,5.25s-1.47.03-3.28.03h-3.27l-.02-2.91-.02-2.91-.14-.24c-.16-.26-.46-.44-.75-.44-.21,0-.54.15-.68.31-.12.14-8.58,13.48-8.8,13.89-.16.3-.2.66-.09.87.25.47,8.81,14.71,8.91,14.82.27.29.77.36,1.12.16.16-.1.34-.35.4-.58.03-.1.05-1.34.05-3.05v-2.88l4.45-.02,4.44-.02.48-.15c.79-.25,1.35-.6,1.82-1.14.24-.26,1.68-2.5,5.05-7.83,2.6-4.1,4.77-7.53,4.83-7.62.06-.1.19-.45.29-.8.11-.36.25-.72.33-.84.13-.18.15-.25.14-.5-.02-.45-.02-.55.01-1.63.03-.86.02-1.11-.07-1.69l-.1-.68-3.13-6.26-3.13-6.26-.24-.15c-.23-.15-.55-.2-.77-.12Z"/>
    </g>
  </g>
</svg>