<?xml version="1.0" encoding="utf-8"?>
<!-- Generator: Adobe Illustrator 27.2.0, SVG Export Plug-In . SVG Version: 6.00 Build 0)  -->
<svg version="1.1" id="Ebene_3" xmlns="http://www.w3.org/2000/svg" xmlns:xlink="http://www.w3.org/1999/xlink" x="0px" y="0px"
	 viewBox="0 0 233.8 233.8" style="enable-background:new 0 0 233.8 233.8;" xml:space="preserve">
<style type="text/css">
	.st0{enable-background:new    ;}
	.st1{fill:#353230;}
	.st2{fill:#FCF4E4;}
</style>
<g class="st0">
	<path class="st1" d="M46.2,210.4c0,2.3-0.5,4.1-1.6,5.5s-2.4,2-4.2,2c-1.6,0-2.9-0.5-3.9-1.6v7h-3.3v-20.5h3.1l0.1,1.5
		c1-1.2,2.3-1.8,4-1.8c1.8,0,3.2,0.7,4.2,2s1.5,3.2,1.5,5.6V210.4z M42.9,210.1c0-1.5-0.3-2.6-0.9-3.5s-1.4-1.3-2.5-1.3
		c-1.4,0-2.3,0.6-2.9,1.7v6.6c0.6,1.1,1.6,1.7,3,1.7c1.1,0,1.9-0.4,2.5-1.3C42.6,213.1,42.9,211.8,42.9,210.1z"/>
	<path class="st1" d="M57.9,217.6c-0.1-0.3-0.3-0.7-0.4-1.4c-1.1,1.1-2.4,1.7-3.9,1.7c-1.5,0-2.7-0.4-3.6-1.3
		c-0.9-0.8-1.4-1.9-1.4-3.1c0-1.6,0.6-2.8,1.8-3.6c1.2-0.8,2.8-1.3,5-1.3h2v-1c0-0.8-0.2-1.4-0.6-1.8c-0.4-0.5-1.1-0.7-2-0.7
		c-0.8,0-1.4,0.2-1.9,0.6c-0.5,0.4-0.7,0.9-0.7,1.4h-3.3c0-0.8,0.3-1.6,0.8-2.3c0.5-0.7,1.3-1.3,2.2-1.7c0.9-0.4,2-0.6,3.1-0.6
		c1.7,0,3.1,0.4,4.1,1.3c1,0.9,1.6,2.1,1.6,3.7v6.7c0,1.3,0.2,2.4,0.6,3.2v0.2H57.9z M54.2,215.2c0.7,0,1.3-0.2,1.9-0.5
		c0.6-0.3,1-0.7,1.3-1.3v-2.8h-1.8c-1.2,0-2.2,0.2-2.8,0.6c-0.6,0.4-0.9,1-0.9,1.8c0,0.6,0.2,1.1,0.6,1.5S53.5,215.2,54.2,215.2z"/>
	<path class="st1" d="M72.5,213.6c0-0.6-0.2-1-0.7-1.4c-0.5-0.3-1.3-0.6-2.4-0.8c-1.1-0.2-2.1-0.5-2.8-0.9c-1.7-0.8-2.5-2-2.5-3.5
		c0-1.3,0.5-2.3,1.6-3.2c1.1-0.9,2.4-1.3,4.1-1.3c1.8,0,3.2,0.4,4.3,1.3c1.1,0.9,1.6,2,1.6,3.4h-3.3c0-0.6-0.2-1.2-0.7-1.6
		c-0.5-0.4-1.1-0.6-1.9-0.6c-0.7,0-1.3,0.2-1.8,0.5c-0.5,0.3-0.7,0.8-0.7,1.4c0,0.5,0.2,0.9,0.6,1.2c0.4,0.3,1.3,0.6,2.6,0.9
		c1.3,0.3,2.3,0.6,3.1,1c0.7,0.4,1.3,0.9,1.7,1.4c0.4,0.6,0.5,1.2,0.5,2c0,1.3-0.6,2.4-1.7,3.2c-1.1,0.8-2.5,1.2-4.3,1.2
		c-1.2,0-2.3-0.2-3.2-0.7c-0.9-0.4-1.7-1-2.2-1.8c-0.5-0.8-0.8-1.6-0.8-2.5h3.2c0,0.8,0.3,1.4,0.9,1.8s1.3,0.6,2.2,0.6
		c0.9,0,1.5-0.2,2-0.5C72.2,214.6,72.5,214.1,72.5,213.6z"/>
	<path class="st1" d="M86.9,213.6c0-0.6-0.2-1-0.7-1.4c-0.5-0.3-1.3-0.6-2.4-0.8c-1.1-0.2-2.1-0.5-2.8-0.9c-1.7-0.8-2.5-2-2.5-3.5
		c0-1.3,0.5-2.3,1.6-3.2c1.1-0.9,2.4-1.3,4.1-1.3c1.8,0,3.2,0.4,4.3,1.3c1.1,0.9,1.6,2,1.6,3.4h-3.3c0-0.6-0.2-1.2-0.7-1.6
		c-0.5-0.4-1.1-0.6-1.9-0.6c-0.7,0-1.3,0.2-1.8,0.5c-0.5,0.3-0.7,0.8-0.7,1.4c0,0.5,0.2,0.9,0.6,1.2c0.4,0.3,1.3,0.6,2.6,0.9
		c1.3,0.3,2.3,0.6,3.1,1c0.7,0.4,1.3,0.9,1.7,1.4c0.4,0.6,0.5,1.2,0.5,2c0,1.3-0.6,2.4-1.7,3.2c-1.1,0.8-2.5,1.2-4.3,1.2
		c-1.2,0-2.3-0.2-3.2-0.7c-0.9-0.4-1.7-1-2.2-1.8c-0.5-0.8-0.8-1.6-0.8-2.5h3.2c0,0.8,0.3,1.4,0.9,1.8s1.3,0.6,2.2,0.6
		c0.9,0,1.5-0.2,2-0.5C86.7,214.6,86.9,214.1,86.9,213.6z"/>
	<path class="st1" d="M106.1,213l2.4-10.2h3.2l-4,14.8h-2.7l-3.2-10.2l-3.1,10.2h-2.7l-4-14.8h3.2l2.4,10.1l3-10.1h2.5L106.1,213z"
		/>
	<path class="st1" d="M113.3,210.1c0-1.4,0.3-2.8,0.9-3.9s1.4-2.1,2.4-2.7s2.2-0.9,3.6-0.9c2,0,3.6,0.6,4.9,1.9s1.9,3,2,5.1l0,0.8
		c0,1.5-0.3,2.8-0.8,3.9s-1.4,2-2.4,2.7c-1,0.6-2.2,0.9-3.6,0.9c-2.1,0-3.8-0.7-5-2.1c-1.3-1.4-1.9-3.2-1.9-5.6V210.1z M116.6,210.4
		c0,1.5,0.3,2.7,0.9,3.6c0.6,0.9,1.5,1.3,2.6,1.3s2-0.4,2.6-1.3c0.6-0.9,0.9-2.2,0.9-3.8c0-1.5-0.3-2.7-1-3.6s-1.5-1.3-2.6-1.3
		c-1.1,0-1.9,0.4-2.6,1.3S116.6,208.7,116.6,210.4z"/>
</g>
<g class="st0">
	<path class="st1" d="M137.6,205.9c-0.4-0.1-0.9-0.1-1.4-0.1c-1.5,0-2.5,0.6-3.1,1.8v10.1h-3.3v-14.8h3.2l0.1,1.7
		c0.8-1.3,1.9-1.9,3.3-1.9c0.5,0,0.9,0.1,1.2,0.2L137.6,205.9z"/>
</g>
<g class="st0">
	<path class="st1" d="M144.5,199.2v3.6h2.6v2.5h-2.6v8.3c0,0.6,0.1,1,0.3,1.2c0.2,0.3,0.6,0.4,1.2,0.4c0.4,0,0.8,0,1.2-0.1v2.6
		c-0.8,0.2-1.5,0.3-2.2,0.3c-2.6,0-3.8-1.4-3.8-4.2v-8.4h-2.4v-2.5h2.4v-3.6H144.5z"/>
	<path class="st1" d="M151.7,214.1c0.6,0,1.1,0.2,1.4,0.5c0.3,0.4,0.5,0.8,0.5,1.3c0,0.5-0.2,1-0.5,1.3c-0.3,0.3-0.8,0.5-1.4,0.5
		c-0.6,0-1.1-0.2-1.4-0.5c-0.3-0.3-0.5-0.8-0.5-1.3s0.2-1,0.5-1.3C150.7,214.3,151.1,214.1,151.7,214.1z"/>
	<path class="st1" d="M156.9,210.1c0-2.3,0.5-4.1,1.6-5.5c1.1-1.4,2.5-2.1,4.3-2.1c1.6,0,2.8,0.5,3.8,1.6v-7.6h3.3v21h-3l-0.2-1.5
		c-1,1.2-2.3,1.8-4,1.8c-1.7,0-3.1-0.7-4.2-2.1C157.4,214.4,156.9,212.5,156.9,210.1z M160.2,210.4c0,1.5,0.3,2.7,0.9,3.5
		c0.6,0.8,1.4,1.3,2.5,1.3c1.4,0,2.4-0.6,3-1.8v-6.3c-0.6-1.2-1.6-1.8-3-1.8c-1.1,0-1.9,0.4-2.5,1.3
		C160.5,207.4,160.2,208.7,160.2,210.4z"/>
	<path class="st1" d="M172.7,210.1c0-1.4,0.3-2.8,0.9-3.9s1.4-2.1,2.4-2.7s2.2-0.9,3.6-0.9c2,0,3.6,0.6,4.9,1.9s1.9,3,2,5.1l0,0.8
		c0,1.5-0.3,2.8-0.8,3.9s-1.4,2-2.4,2.7c-1,0.6-2.2,0.9-3.6,0.9c-2.1,0-3.8-0.7-5-2.1c-1.3-1.4-1.9-3.2-1.9-5.6V210.1z M176,210.4
		c0,1.5,0.3,2.7,0.9,3.6s1.5,1.3,2.6,1.3s2-0.4,2.6-1.3c0.6-0.9,0.9-2.2,0.9-3.8c0-1.5-0.3-2.7-1-3.6s-1.5-1.3-2.6-1.3
		c-1.1,0-1.9,0.4-2.6,1.3C176.3,207.4,176,208.7,176,210.4z"/>
	<path class="st1" d="M195.3,215.2c0.8,0,1.5-0.2,2.1-0.7s0.8-1.1,0.9-1.8h3.1c0,0.9-0.3,1.8-0.9,2.6c-0.5,0.8-1.3,1.4-2.2,1.9
		c-0.9,0.5-1.9,0.7-3,0.7c-2.1,0-3.7-0.7-4.9-2c-1.2-1.3-1.8-3.2-1.8-5.6V210c0-2.3,0.6-4.1,1.8-5.4s2.8-2,4.9-2
		c1.8,0,3.2,0.5,4.3,1.5s1.7,2.4,1.7,4h-3.1c0-0.8-0.3-1.5-0.9-2.1c-0.5-0.5-1.2-0.8-2.1-0.8c-1.1,0-1.9,0.4-2.5,1.2
		c-0.6,0.8-0.9,2-0.9,3.5v0.5c0,1.6,0.3,2.8,0.9,3.6C193.4,214.8,194.2,215.2,195.3,215.2z"/>
</g>
<g>
	<g>
		<polygon class="st2" points="55.3,173.8 55.3,18.2 147.2,18.2 178.5,46.5 178.5,173.8 		"/>
		<path class="st1" d="M146.4,20.2l30.1,27.1v124.4H57.3V20.2H146.4 M147.9,16.2H53.3v159.6h127.2V45.6L147.9,16.2L147.9,16.2
			L147.9,16.2z"/>
	</g>
	<g>
		<polygon class="st2" points="149.9,43.6 149.9,20.7 175.3,43.6 		"/>
		<path class="st1" d="M151.9,25.2l18.1,16.4h-18.1V25.2 M147.9,16.2v29.4h32.6L147.9,16.2L147.9,16.2z"/>
	</g>
</g>
<rect x="82.1" y="57.8" class="st1" width="69.6" height="5.3"/>
<rect x="82.1" y="67.9" class="st1" width="69.6" height="5.3"/>
<rect x="82.1" y="78.1" class="st1" width="69.6" height="5.3"/>
<rect x="82.1" y="88.2" class="st1" width="69.6" height="5.3"/>
<rect x="82.1" y="98.4" class="st1" width="69.6" height="5.3"/>
<rect x="82.1" y="108.5" class="st1" width="69.6" height="5.3"/>
<rect x="82.1" y="118.7" class="st1" width="69.6" height="5.3"/>
<rect x="82.1" y="128.8" class="st1" width="22" height="5.3"/>
</svg>
