<?xml version="1.0" encoding="utf-8"?>
<!-- Generator: Adobe Illustrator 27.2.0, SVG Export Plug-In . SVG Version: 6.00 Build 0)  -->
<svg version="1.1" id="Ebene_2_00000175314760961293572050000018167245800329452676_"
	 xmlns="http://www.w3.org/2000/svg" xmlns:xlink="http://www.w3.org/1999/xlink" x="0px" y="0px" viewBox="0 0 471.1 452"
	 style="enable-background:new 0 0 471.1 452;" xml:space="preserve">
<style type="text/css">
	.st0{fill:#353230;}
	.st1{fill:#FCF4E4;}
	.st2{fill:#FCF4E4;stroke:#353230;stroke-width:5;stroke-linecap:round;stroke-linejoin:round;}
	.st3{fill:#AFDAD6;stroke:#353230;stroke-width:5;stroke-linecap:round;stroke-linejoin:round;}
	.st4{fill:#343230;}
	.st5{fill:none;stroke:#343230;stroke-width:5;stroke-linecap:round;stroke-linejoin:round;stroke-miterlimit:10;}
	.st6{fill:none;stroke:#343230;stroke-width:3.25;stroke-linecap:round;stroke-linejoin:round;stroke-miterlimit:10;}
</style>
<g id="Ebene_3">
	<g>
		<g>
			<g>
				<rect x="168.8" y="383.4" class="st0" width="133.6" height="43.1"/>
				<g>
					<path class="st1" d="M78.9,449.5v-8.7c0-13.2,10.7-23.9,23.9-23.9h265.5c13.2,0,23.9,10.7,23.9,23.9v8.7H78.9z"/>
					<path class="st0" d="M368.3,419.4c11.8,0,21.4,9.6,21.4,21.4v6.2H81.4v-6.2c0-11.8,9.6-21.4,21.4-21.4H368.3 M368.3,414.4
						H102.8c-14.6,0-26.4,11.8-26.4,26.4V452h318.4v-11.2C394.7,426.2,382.9,414.4,368.3,414.4L368.3,414.4z"/>
				</g>
			</g>
			<g>
				<path class="st1" d="M235.6,405.5c-40.9,0-80.8-10.9-115.7-31.7h231.4C316.3,394.6,276.5,405.5,235.6,405.5L235.6,405.5z"/>
				<path class="st0" d="M343.7,375.9c-33,18.1-70.1,27.7-108.2,27.7s-75.1-9.5-108.2-27.7H343.7 M358.3,371.9L358.3,371.9
					L358.3,371.9z M358.3,371.9H112.8c35.5,22.6,77.6,35.7,122.8,35.7S322.9,394.4,358.3,371.9L358.3,371.9L358.3,371.9z"/>
			</g>
		</g>
		<g>
			<g>
				<rect x="56.9" y="364.1" class="st2" width="99.1" height="28.9"/>
				<rect x="315.3" y="364.1" class="st2" width="99.1" height="28.9"/>
				<rect x="155.9" y="364.1" class="st2" width="159.3" height="28.9"/>
			</g>
			<rect x="55.2" y="351.5" class="st0" width="360.8" height="27"/>
		</g>
		<rect x="2.5" y="2.5" class="st2" width="466.1" height="367.3"/>
		<rect x="40.6" y="40.6" class="st3" width="389.9" height="291"/>
	</g>
</g>
<g>
	<polyline class="st1" points="181.3,100 139,257.8 231.4,254.6 254,180.9 277.2,185.3 272,96.6 181.3,100 	"/>
	<g>
		<path class="st4" d="M98,247.6c-0.4,0-0.7-0.1-1-0.3c-2.8-2.2-5.4-4.7-7.7-7.5c-0.6-0.7-0.3-2,0.7-2.8c1-0.9,2.2-1,2.8-0.3
			c2.2,2.7,4.7,5.1,7.3,7.2c0.7,0.6,0.6,1.8-0.3,2.8C99.4,247.2,98.6,247.5,98,247.6z"/>
		<path class="st4" d="M120.2,257.8c-0.2,0-0.4,0-0.5,0c-5.4-1.3-10.2-3.1-14.6-5.3c-0.8-0.4-0.9-1.6-0.1-2.7c0.8-1,2.1-1.5,2.9-1.1
			c4.2,2.2,8.8,3.9,14,5.1c1,0.2,1.2,1.3,0.6,2.4C122,257.1,121,257.8,120.2,257.8z"/>
		<path class="st4" d="M311.9,285.5c-0.4,0-0.8-0.1-1-0.3c-30.7-25-87.6-29.8-127-26.6c-20.1,1.6-39.1,3.2-55.8,0.8
			c-1-0.1-1.4-1.2-0.9-2.3c0.5-1.1,1.8-1.9,2.8-1.8c16.4,2.3,35.2,0.8,55-0.8c40-3.2,97.5,1.5,129,27.2c0.7,0.6,0.6,1.8-0.3,2.8
			C313.2,285.1,312.5,285.4,311.9,285.5z"/>
	</g>
	<g>
		<path class="st4" d="M104.4,225c-0.4,0-0.7-0.1-1-0.3c-2.8-2.2-5.4-4.7-7.7-7.5c-0.6-0.7-0.3-2,0.7-2.8c1-0.9,2.2-1,2.8-0.3
			c2.2,2.7,4.7,5.1,7.3,7.2c0.7,0.6,0.6,1.8-0.3,2.8C105.8,224.6,105,225,104.4,225z"/>
		<path class="st4" d="M126.6,235.3c-0.2,0-0.4,0-0.5,0c-5.4-1.3-10.3-3.1-14.6-5.3c-0.8-0.4-0.9-1.6-0.1-2.7c0.8-1,2.1-1.5,2.9-1.1
			c4.2,2.2,8.8,3.9,14,5.1c1,0.2,1.2,1.3,0.6,2.4C128.4,234.6,127.4,235.2,126.6,235.3z"/>
	</g>
	<g>
		<path class="st4" d="M110.8,202.5c-0.4,0-0.7-0.1-1-0.3c-2.8-2.2-5.4-4.7-7.7-7.5c-0.6-0.7-0.3-2,0.7-2.8c1-0.9,2.2-1,2.8-0.3
			c2.2,2.7,4.7,5.1,7.3,7.2c0.7,0.6,0.6,1.8-0.3,2.8C112.1,202.1,111.4,202.4,110.8,202.5z"/>
		<path class="st4" d="M133,212.7c-0.2,0-0.4,0-0.5,0c-5.4-1.3-10.3-3.1-14.6-5.3c-0.8-0.4-0.9-1.6-0.1-2.7c0.8-1,2.1-1.5,2.9-1.1
			c4.2,2.2,8.8,3.9,14,5.1c1,0.2,1.2,1.3,0.6,2.4C134.8,212,133.8,212.7,133,212.7z"/>
	</g>
	<g>
		<path class="st4" d="M117.2,179.9c-0.4,0-0.7-0.1-1-0.3c-2.8-2.2-5.4-4.7-7.7-7.5c-0.6-0.7-0.3-2,0.7-2.8c1-0.9,2.2-1,2.8-0.3
			c2.2,2.7,4.7,5.1,7.3,7.2c0.7,0.6,0.6,1.8-0.3,2.8C118.5,179.5,117.8,179.9,117.2,179.9z"/>
		<path class="st4" d="M139.4,190.2c-0.2,0-0.4,0-0.5,0c-5.4-1.3-10.2-3.1-14.6-5.3c-0.8-0.4-0.9-1.6-0.1-2.7c0.8-1,2.1-1.5,2.9-1.1
			c4.2,2.2,8.8,3.9,14,5.1c1,0.2,1.2,1.3,0.6,2.4C141.2,189.5,140.2,190.1,139.4,190.2z"/>
	</g>
	<g>
		<path class="st4" d="M123.6,157.4c-0.4,0-0.7-0.1-1-0.3c-2.8-2.2-5.4-4.7-7.7-7.5c-0.6-0.7-0.3-2,0.7-2.8c1-0.9,2.2-1,2.8-0.3
			c2.2,2.7,4.7,5.1,7.3,7.2c0.7,0.6,0.6,1.8-0.3,2.8C124.9,157,124.2,157.3,123.6,157.4z"/>
		<path class="st4" d="M145.8,167.6c-0.2,0-0.4,0-0.5,0c-5.4-1.3-10.3-3.1-14.6-5.3c-0.8-0.4-0.9-1.6-0.1-2.7c0.8-1,2.1-1.5,2.9-1.1
			c4.2,2.2,8.8,3.9,14,5.1c1,0.2,1.2,1.3,0.6,2.4C147.6,166.9,146.6,167.6,145.8,167.6z"/>
	</g>
	<g>
		<path class="st4" d="M130,134.8c-0.4,0-0.7-0.1-1-0.3c-2.8-2.2-5.4-4.7-7.7-7.5c-0.6-0.7-0.3-2,0.7-2.8c1-0.9,2.2-1,2.8-0.3
			c2.2,2.7,4.7,5.1,7.3,7.2c0.7,0.6,0.6,1.8-0.3,2.8C131.3,134.4,130.6,134.8,130,134.8z"/>
		<path class="st4" d="M152.2,145.1c-0.2,0-0.4,0-0.5,0c-5.4-1.3-10.2-3.1-14.6-5.3c-0.8-0.4-0.9-1.6-0.1-2.7c0.8-1,2.1-1.5,2.9-1.1
			c4.2,2.2,8.8,3.9,14,5.1c1,0.2,1.2,1.3,0.6,2.4C154,144.4,153,145,152.2,145.1z"/>
	</g>
	<g>
		<path class="st4" d="M136.4,112.3c-0.4,0-0.7-0.1-1-0.3c-2.8-2.2-5.4-4.7-7.7-7.5c-0.6-0.7-0.3-2,0.7-2.8c1-0.9,2.2-1,2.8-0.3
			c2.2,2.7,4.7,5.1,7.3,7.2c0.7,0.6,0.6,1.8-0.3,2.8C137.7,111.9,137,112.2,136.4,112.3z"/>
		<path class="st4" d="M158.6,122.5c-0.2,0-0.4,0-0.5,0c-5.4-1.3-10.3-3.1-14.6-5.3c-0.8-0.4-0.9-1.6-0.1-2.7c0.8-1,2.1-1.5,2.9-1.1
			c4.2,2.2,8.8,3.9,14,5.1c1,0.2,1.2,1.3,0.6,2.4C160.4,121.8,159.4,122.5,158.6,122.5z"/>
	</g>
	<g>
		<path class="st4" d="M142.8,89.7c-0.4,0-0.7-0.1-1-0.3c-2.8-2.2-5.4-4.7-7.7-7.5c-0.6-0.7-0.3-2,0.7-2.8c1-0.9,2.2-1,2.8-0.3
			c2.2,2.7,4.7,5.1,7.3,7.2c0.7,0.6,0.6,1.8-0.3,2.8C144.1,89.3,143.4,89.7,142.8,89.7z"/>
		<path class="st4" d="M165,100c-0.2,0-0.4,0-0.5,0c-5.4-1.3-10.3-3.1-14.6-5.3c-0.8-0.4-0.9-1.6-0.1-2.7c0.8-1,2.1-1.5,2.9-1.1
			c4.2,2.2,8.8,3.9,14,5.1c1,0.2,1.2,1.3,0.6,2.4C166.8,99.3,165.8,99.9,165,100z"/>
		<path class="st4" d="M356.7,127.6c-0.4,0-0.8-0.1-1-0.3c-30.7-25-87.6-29.8-127-26.6c-20.1,1.6-39.1,3.2-55.8,0.8
			c-1-0.1-1.4-1.2-0.9-2.3c0.5-1.1,1.8-1.9,2.8-1.8c16.4,2.3,35.2,0.8,55-0.8c40-3.2,97.5,1.5,129,27.2c0.7,0.6,0.6,1.8-0.3,2.8
			C358,127.2,357.3,127.6,356.7,127.6z"/>
	</g>
	<path class="st4" d="M177.8,213.5c0.3-1.3-0.7-2.5-2-2.5c-11.7,0.6-22.7,0.7-32.8-0.7c-1-0.1-2.2,0.5-2.8,1.5
		c-0.7,1.2-0.3,2.3,0.8,2.5c10.8,1.5,22.6,1.4,35,0.7C176.8,214.9,177.6,214.3,177.8,213.5L177.8,213.5z"/>
	<path class="st4" d="M189.2,168.4L189.2,168.4c0.3-1.3-0.7-2.5-2-2.5c-11.2,0.6-21.8,0.5-31.5-0.8c-1-0.1-2.3,0.7-2.8,1.9
		c-0.5,1.1,0,2,1,2.2c10.4,1.4,21.7,1.4,33.5,0.8C188.2,169.9,189,169.3,189.2,168.4z"/>
	<path class="st4" d="M194.9,145.9L194.9,145.9c0.3-1.3-0.7-2.5-2-2.5c-10.9,0.5-21.3,0.5-30.9-0.9c-1.1-0.1-2.4,0.7-2.9,2
		c-0.4,1.1,0.1,1.9,1.1,2.1c10.2,1.4,21.2,1.4,32.9,0.8C193.9,147.4,194.7,146.8,194.9,145.9z"/>
	<path class="st4" d="M311.5,285l0.1-1.5c-1.3-0.4-2.1-0.2-1.7-1.4l44.6-155.9c0.4-1.3,1.8-3.6,3.1-3.3l-0.1,1.6
		c1.3,0.4,2.1,0,1.7,1.3l-44.7,157.6C314.1,284.6,312.7,285.4,311.5,285z"/>
	<line class="st5" x1="297.3" y1="174.9" x2="302.2" y2="157.4"/>
	<line class="st5" x1="225.6" y1="165.1" x2="230.5" y2="147.6"/>
	<path class="st4" d="M200.6,123.4L200.6,123.4c0.3-1.3-0.7-2.5-2-2.5c-10.7,0.5-20.8,0.4-30.2-0.9c-1-0.1-2.3,0.7-2.8,1.9
		c-0.5,1.1,0,2,1,2.2c10,1.4,20.8,1.4,32.2,0.8C199.6,124.9,200.4,124.3,200.6,123.4z"/>
	<path class="st4" d="M183.5,191c0.3-1.3-0.7-2.5-2-2.5c-11.4,0.6-22.2,0.6-32.1-0.8c-1-0.1-2.2,0.5-2.8,1.5
		c-0.7,1.2-0.3,2.3,0.8,2.5c10.6,1.5,22.2,1.4,34.3,0.7C182.5,192.4,183.3,191.8,183.5,191L183.5,191z"/>
	<path class="st4" d="M172.1,236c0.3-1.3-0.7-2.5-2-2.5c-11.9,0.7-23.3,0.7-33.6-0.7c-1-0.1-2.3,0.7-2.8,1.9c-0.5,1.1,0,2,1,2.2
		c11,1.5,23,1.4,35.6,0.6C171.1,237.4,171.8,236.8,172.1,236L172.1,236z"/>
	<polyline class="st6" points="272.4,100 277.2,185.3 254,180.9 229.7,255.7 	"/>
	<g>
		<path class="st6" d="M288.7,243.6c-4-16.9-17.5-30.8-35.6-34.3s-35.8,4.3-45.8,18.5"/>
	</g>
</g>
</svg>
