<?xml version="1.0" encoding="utf-8"?>
<!-- Generator: Adobe Illustrator 27.2.0, SVG Export Plug-In . SVG Version: 6.00 Build 0)  -->
<svg version="1.1" id="Ebene_3" xmlns="http://www.w3.org/2000/svg" xmlns:xlink="http://www.w3.org/1999/xlink" x="0px" y="0px"
	 viewBox="0 0 233.8 233.8" style="enable-background:new 0 0 233.8 233.8;" xml:space="preserve">
<style type="text/css">
	.st0{enable-background:new    ;}
	.st1{fill:#353230;}
	.st2{fill:#FBF3E4;}
	.st3{fill:#343230;}
	.st4{fill:#343231;}
</style>
<g class="st0">
	<path class="st1" d="M67.9,212.5c0-0.9-0.3-1.5-0.9-2s-1.7-1-3.3-1.4c-1.6-0.5-2.9-1-3.8-1.6c-1.8-1.1-2.7-2.6-2.7-4.5
		c0-1.6,0.7-2.9,2-4c1.3-1,3-1.6,5.1-1.6c1.4,0,2.6,0.3,3.7,0.8c1.1,0.5,1.9,1.2,2.6,2.2c0.6,0.9,0.9,2,0.9,3.1h-3.4
		c0-1-0.3-1.9-1-2.4c-0.7-0.6-1.6-0.9-2.8-0.9c-1.1,0-2,0.2-2.6,0.7c-0.6,0.5-0.9,1.2-0.9,2c0,0.7,0.3,1.3,1,1.8
		c0.7,0.5,1.8,1,3.3,1.4c1.5,0.5,2.8,1,3.7,1.6c0.9,0.6,1.6,1.3,2.1,2s0.7,1.7,0.7,2.7c0,1.7-0.6,3-1.9,4s-3,1.5-5.2,1.5
		c-1.4,0-2.8-0.3-4-0.8c-1.2-0.5-2.1-1.3-2.8-2.2s-1-2-1-3.3H60c0,1.1,0.4,2,1.1,2.6c0.7,0.6,1.8,0.9,3.2,0.9c1.2,0,2.1-0.2,2.7-0.7
		C67.6,213.9,67.9,213.3,67.9,212.5z"/>
	<path class="st1" d="M87,210.4c0,2.3-0.5,4.1-1.6,5.5s-2.4,2-4.2,2c-1.6,0-2.9-0.5-3.9-1.6v7h-3.3v-20.5h3.1l0.1,1.5
		c1-1.2,2.3-1.8,4-1.8c1.8,0,3.2,0.7,4.2,2s1.5,3.2,1.5,5.6V210.4z M83.7,210.1c0-1.5-0.3-2.6-0.9-3.5s-1.4-1.3-2.5-1.3
		c-1.4,0-2.3,0.6-2.9,1.7v6.6c0.6,1.1,1.6,1.7,3,1.7c1.1,0,1.9-0.4,2.5-1.3C83.4,213.1,83.7,211.8,83.7,210.1z"/>
	<path class="st1" d="M89.2,210.1c0-1.4,0.3-2.8,0.9-3.9s1.4-2.1,2.4-2.7s2.2-0.9,3.6-0.9c2,0,3.6,0.6,4.9,1.9s1.9,3,2,5.1l0,0.8
		c0,1.5-0.3,2.8-0.8,3.9s-1.4,2-2.4,2.7c-1,0.6-2.2,0.9-3.6,0.9c-2.1,0-3.8-0.7-5-2.1c-1.3-1.4-1.9-3.2-1.9-5.6V210.1z M92.5,210.4
		c0,1.5,0.3,2.7,0.9,3.6s1.5,1.3,2.6,1.3s2-0.4,2.6-1.3c0.6-0.9,0.9-2.2,0.9-3.8c0-1.5-0.3-2.7-1-3.6s-1.5-1.3-2.6-1.3
		c-1.1,0-1.9,0.4-2.6,1.3C92.9,207.4,92.5,208.7,92.5,210.4z"/>
	<path class="st1" d="M110,199.2v3.6h2.6v2.5H110v8.3c0,0.6,0.1,1,0.3,1.2c0.2,0.3,0.6,0.4,1.2,0.4c0.4,0,0.8,0,1.2-0.1v2.6
		c-0.8,0.2-1.5,0.3-2.2,0.3c-2.6,0-3.8-1.4-3.8-4.2v-8.4h-2.4v-2.5h2.4v-3.6H110z"/>
	<path class="st1" d="M119.3,199.2v3.6h2.6v2.5h-2.6v8.3c0,0.6,0.1,1,0.3,1.2s0.6,0.4,1.2,0.4c0.4,0,0.8,0,1.2-0.1v2.6
		c-0.8,0.2-1.5,0.3-2.2,0.3c-2.6,0-3.8-1.4-3.8-4.2v-8.4h-2.4v-2.5h2.4v-3.6H119.3z"/>
	<path class="st1" d="M130.9,217.9c-2.1,0-3.8-0.7-5.1-2s-2-3.1-2-5.3v-0.4c0-1.5,0.3-2.8,0.9-4s1.4-2.1,2.4-2.7s2.2-1,3.4-1
		c2,0,3.6,0.6,4.7,1.9s1.6,3.1,1.6,5.5v1.3h-9.7c0.1,1.2,0.5,2.2,1.2,2.9s1.6,1.1,2.7,1.1c1.5,0,2.8-0.6,3.7-1.8l1.8,1.7
		c-0.6,0.9-1.4,1.6-2.4,2.1S132.2,217.9,130.9,217.9z M130.5,205.2c-0.9,0-1.6,0.3-2.2,1s-0.9,1.5-1.1,2.7h6.3v-0.2
		c-0.1-1.1-0.4-2-0.9-2.5S131.4,205.2,130.5,205.2z"/>
	<path class="st1" d="M147.2,205.9c-0.4-0.1-0.9-0.1-1.4-0.1c-1.5,0-2.5,0.6-3.1,1.8v10.1h-3.3v-14.8h3.2l0.1,1.7
		c0.8-1.3,1.9-1.9,3.3-1.9c0.5,0,0.9,0.1,1.2,0.2L147.2,205.9z"/>
	<path class="st1" d="M150.7,217.6v-12.3h-2.3v-2.5h2.3v-1.4c0-1.6,0.5-2.9,1.4-3.8s2.2-1.3,3.8-1.3c0.6,0,1.2,0.1,1.9,0.2l-0.1,2.6
		c-0.4-0.1-0.8-0.1-1.3-0.1c-1.6,0-2.4,0.8-2.4,2.4v1.3h3v2.5h-3v12.3H150.7z"/>
	<path class="st1" d="M163,217.6h-3.3v-21h3.3V217.6z"/>
	<path class="st1" d="M171.8,212.9l3-10h3.5l-5.9,17c-0.9,2.5-2.4,3.7-4.6,3.7c-0.5,0-1-0.1-1.6-0.2v-2.6l0.6,0
		c0.8,0,1.5-0.2,1.9-0.5c0.4-0.3,0.8-0.8,1-1.5l0.5-1.3l-5.2-14.7h3.6L171.8,212.9z"/>
</g>
<g>
	<g>
		<path class="st2" d="M107.7,106.6"/>
	</g>
	<g>
		<g>
			<path class="st2" d="M116.9,7.6C73.6,7.6,38.5,42.7,38.5,86s35.1,78.4,78.4,78.4s78.4-35.1,78.4-78.4S160.2,7.6,116.9,7.6z"/>
		</g>
	</g>
	<g>
		<g>
			<path class="st3" d="M116.9,11.6c41,0,74.4,33.4,74.4,74.4s-33.4,74.4-74.4,74.4S42.5,127,42.5,86S75.8,11.6,116.9,11.6
				 M116.9,7.6C73.6,7.6,38.5,42.7,38.5,86s35.1,78.4,78.4,78.4s78.4-35.1,78.4-78.4S160.2,7.6,116.9,7.6L116.9,7.6z"/>
		</g>
	</g>
</g>
<g>
	<g>
		<path class="st4" d="M147.7,122.8c-0.5,0-1.1-0.2-1.5-0.4c-12-7.5-24.2-11-38.3-11c-7.8,0-16.1,1.1-25.4,3.3
			c-0.2,0.1-0.5,0.1-0.7,0.1c-1.4,0-2.5-0.9-2.8-2.3c-0.2-0.8-0.1-1.5,0.4-2.2c0.4-0.7,1.1-1.1,1.8-1.3c9.5-2.3,18.2-3.4,26.5-3.4
			c15.3,0,28.9,3.9,41.6,11.8c0.7,0.4,1.1,1.1,1.3,1.8c0.2,0.8,0,1.5-0.4,2.2C149.7,122.3,148.7,122.8,147.7,122.8z"/>
		<path class="st3" d="M107.7,106.6c15.2,0,28.6,3.8,41.1,11.6c0.9,0.6,1.2,1.8,0.6,2.7c-0.4,0.6-1,0.9-1.6,0.9
			c-0.3,0-0.7-0.1-1-0.3c-12-7.5-24.5-11.1-38.8-11.1c-7.9,0-16.4,1.1-25.6,3.3c-0.2,0-0.3,0.1-0.4,0.1c-0.9,0-1.7-0.6-1.9-1.5
			c-0.2-1,0.4-2.1,1.4-2.3C90.8,107.7,99.5,106.6,107.7,106.6L107.7,106.6 M107.7,104.6L107.7,104.6c-8.4,0-17.1,1.1-26.7,3.4
			c-1,0.2-1.9,0.9-2.4,1.8c-0.6,0.9-0.7,1.9-0.5,3c0.4,1.8,2,3,3.8,3c0.3,0,0.6,0,0.9-0.1c9.2-2.2,17.4-3.2,25.1-3.2
			c13.9,0,25.9,3.4,37.7,10.8c0.6,0.4,1.3,0.6,2.1,0.6c1.4,0,2.6-0.7,3.3-1.9c1.1-1.8,0.6-4.3-1.3-5.4
			C136.9,108.5,123.1,104.6,107.7,104.6L107.7,104.6z"/>
	</g>
	<g>
		<path class="st4" d="M160,101.1c-0.8,0-1.6-0.2-2.2-0.6c-15.2-9.5-31.3-14.1-49.2-14.1c-10,0-20.7,1.4-32.6,4.2
			c-0.3,0.1-0.7,0.1-1,0.1c-2,0-3.6-1.3-4.1-3.2c-0.3-1.1-0.1-2.2,0.5-3.2s1.5-1.6,2.6-1.9c12.4-2.9,23.6-4.4,34.3-4.4
			c19.8,0,37.5,5,54,15.3c1,0.6,1.6,1.5,1.9,2.6c0.3,1.1,0.1,2.2-0.5,3.2C162.8,100.3,161.5,101.1,160,101.1z"/>
		<path class="st3" d="M108.3,79c19.7,0,37.2,5,53.4,15.1c1.5,0.9,2,2.9,1,4.4c-0.6,1-1.7,1.5-2.7,1.5c-0.6,0-1.2-0.2-1.7-0.5
			C143,90,126.9,85.3,108.6,85.3c-10.2,0-21,1.4-32.9,4.2c-0.3,0.1-0.5,0.1-0.7,0.1c-1.5,0-2.8-1-3.1-2.5c-0.4-1.7,0.7-3.5,2.4-3.9
			C86.3,80.4,97.6,79,108.3,79L108.3,79 M108.3,77L108.3,77c-10.8,0-22.1,1.4-34.6,4.4c-1.4,0.3-2.5,1.2-3.2,2.3
			c-0.7,1.2-1,2.6-0.6,3.9c0.6,2.4,2.6,4,5.1,4c0.4,0,0.8,0,1.2-0.1c11.9-2.8,22.5-4.2,32.4-4.2c18,0,33.5,4.4,48.7,13.9
			c0.8,0.5,1.8,0.8,2.8,0.8c1.8,0,3.5-0.9,4.4-2.5c0.7-1.2,1-2.6,0.7-3.9c-0.3-1.4-1.1-2.5-2.3-3.2C146.1,82,128.3,77,108.3,77
			L108.3,77z"/>
	</g>
	<g>
		<path class="st4" d="M167.5,77.5c-1,0-2-0.3-2.9-0.8c-17.4-10.8-35.7-16.1-56.2-16.1c-11.5,0-23.7,1.6-37.3,4.8
			c-0.4,0.1-0.8,0.2-1.3,0.2c-2.6,0-4.8-1.7-5.4-4.2c-0.7-3,1.1-5.9,4.1-6.6c14.3-3.4,27.2-5,39.6-5c22.8,0,43.2,5.8,62.3,17.6
			c1.2,0.8,2.1,2,2.5,3.4c0.3,1.4,0.1,2.9-0.7,4.2C171.2,76.5,169.4,77.5,167.5,77.5z"/>
		<path class="st3" d="M108.2,50.7c22.8,0,42.9,5.8,61.7,17.5c2.1,1.3,2.8,4.1,1.4,6.2c-0.9,1.4-2.3,2.1-3.8,2.1
			c-0.8,0-1.6-0.2-2.4-0.7c-17.5-10.9-35.8-16.2-56.7-16.2l0,0c-11.6,0-24,1.6-37.5,4.8c-0.4,0.1-0.7,0.1-1,0.1
			c-2,0-3.9-1.4-4.4-3.5c-0.6-2.4,0.9-4.8,3.3-5.4C82.8,52.3,95.9,50.7,108.2,50.7C108.1,50.7,108.1,50.7,108.2,50.7 M108.2,48.7
			L108.2,48.7c-12.5,0-25.5,1.7-39.8,5.1c-3.5,0.8-5.7,4.3-4.8,7.8c0.7,2.9,3.3,5,6.3,5c0.5,0,1-0.1,1.5-0.2
			c13.6-3.2,25.7-4.8,37.1-4.8c20.5,0,38.2,5.1,55.7,15.9c1,0.6,2.2,1,3.4,1c2.3,0,4.3-1.1,5.5-3.1c1.9-3,1-7.1-2.1-9
			C151.7,54.5,131.2,48.7,108.2,48.7L108.2,48.7z"/>
	</g>
</g>
</svg>
