<?xml version="1.0" encoding="UTF-8"?>
<svg id="Ebene_3" data-name="Ebene 3" xmlns="http://www.w3.org/2000/svg" viewBox="0 0 233.76 233.76">
  <defs>
    <style>
      .cls-1 {
        letter-spacing: .02em;
      }

      .cls-2, .cls-3 {
        fill: #fcf4e4;
      }

      .cls-4, .cls-5 {
        fill: #353230;
      }

      .cls-5 {
        font-family: Roboto-Medium, Roboto;
        font-size: 28px;
        font-weight: 500;
      }

      .cls-3 {
        stroke: #353230;
        stroke-linecap: round;
        stroke-linejoin: round;
        stroke-width: 4px;
      }

      .cls-6 {
        letter-spacing: 0em;
      }
    </style>
  </defs>
  <text class="cls-5" transform="translate(43.01 217.62)"><tspan x="0" y="0">My</tspan><tspan class="cls-6" x="38.14" y="0">P</tspan><tspan x="55.86" y="0">o</tspan><tspan class="cls-1" x="71.8" y="0">r</tspan><tspan x="82.33" y="0">tfolio</tspan></text>
  <g>
    <g>
      <rect class="cls-2" x="42.52" y="13.16" width="58.98" height="125.2" rx="9.21" ry="9.21"/>
      <path class="cls-4" d="m92.28,15.16c3.98,0,7.21,3.23,7.21,7.21v106.78c0,3.98-3.23,7.21-7.21,7.21h-40.55c-3.98,0-7.21-3.23-7.21-7.21V22.38c0-3.98,3.24-7.21,7.21-7.21h40.55m0-4h-40.55c-6.19,0-11.21,5.02-11.21,11.21v106.78c0,6.19,5.02,11.21,11.21,11.21h40.55c6.19,0,11.21-5.02,11.21-11.21V22.38c0-6.19-5.02-11.21-11.21-11.21h0Z"/>
    </g>
    <g>
      <rect class="cls-2" x="42.94" y="21.58" width="161.99" height="125.2" rx="9.21" ry="9.21"/>
      <path class="cls-4" d="m195.72,23.58c3.98,0,7.21,3.23,7.21,7.21v106.78c0,3.98-3.24,7.21-7.21,7.21H52.15c-3.98,0-7.21-3.23-7.21-7.21V30.79c0-3.98,3.24-7.21,7.21-7.21h143.57m0-4H52.15c-6.19,0-11.21,5.02-11.21,11.21v106.78c0,6.19,5.02,11.21,11.21,11.21h143.57c6.19,0,11.21-5.02,11.21-11.21V30.79c0-6.19-5.02-11.21-11.21-11.21h0Z"/>
    </g>
    <g>
      <rect class="cls-2" x="28.83" y="35.69" width="161.99" height="125.2" rx="9.21" ry="9.21"/>
      <path class="cls-4" d="m181.61,37.69c3.98,0,7.21,3.23,7.21,7.21v106.78c0,3.98-3.24,7.21-7.21,7.21H38.04c-3.98,0-7.21-3.23-7.21-7.21V44.9c0-3.98,3.23-7.21,7.21-7.21h143.57m0-4H38.04c-6.19,0-11.21,5.02-11.21,11.21v106.78c0,6.19,5.02,11.21,11.21,11.21h143.57c6.19,0,11.21-5.02,11.21-11.21V44.9c0-6.19-5.02-11.21-11.21-11.21h0Z"/>
    </g>
    <line class="cls-3" x1="30.51" y1="59.87" x2="189.14" y2="59.87"/>
    <path class="cls-4" d="m47.04,93.78l12.98-20.42c.98-1.53,3.22-1.53,4.19,0l12.98,20.42c1.05,1.65-.14,3.82-2.1,3.82h-25.96c-1.96,0-3.15-2.16-2.1-3.82Z"/>
    <path class="cls-4" d="m124.9,116.65l-12.98,20.42c-.98,1.53-3.22,1.53-4.19,0l-12.98-20.42c-1.05-1.65.14-3.82,2.1-3.82h25.96c1.96,0,3.15,2.16,2.1,3.82Z"/>
    <rect class="cls-4" x="96.06" y="70.07" width="27.53" height="27.53" rx="2.48" ry="2.48"/>
    <circle class="cls-4" cx="155.2" cy="83.83" r="13.76"/>
    <circle class="cls-4" cx="62.11" cy="126.6" r="13.76"/>
    <circle class="cls-4" cx="42.84" cy="47.31" r="4.69"/>
    <circle class="cls-4" cx="57.43" cy="47.31" r="4.69"/>
    <circle class="cls-4" cx="72.01" cy="47.31" r="4.69"/>
  </g>
</svg>