<?xml version="1.0" encoding="utf-8"?>
<!-- Generator: Adobe Illustrator 27.2.0, SVG Export Plug-In . SVG Version: 6.00 Build 0)  -->
<svg version="1.1" id="Ebene_3" xmlns="http://www.w3.org/2000/svg" xmlns:xlink="http://www.w3.org/1999/xlink" x="0px" y="0px"
	 viewBox="0 0 233.8 233.8" style="enable-background:new 0 0 233.8 233.8;" xml:space="preserve">
<style type="text/css">
	.st0{enable-background:new    ;}
	.st1{fill:#353230;}
	.st2{fill:#FCF4E4;}
	.st3{fill:none;stroke:#353230;stroke-width:4;stroke-linecap:round;stroke-linejoin:round;}
</style>
<g class="st0">
	<path class="st1" d="M49.5,197.7l5.7,15.3l5.7-15.3h4.5v19.9H62v-6.6l0.3-8.8l-5.9,15.3H54l-5.9-15.3l0.3,8.8v6.6H45v-19.9H49.5z"
		/>
	<path class="st1" d="M74.4,212.9l3-10h3.5l-5.9,17c-0.9,2.5-2.4,3.7-4.6,3.7c-0.5,0-1-0.1-1.6-0.2v-2.6l0.6,0
		c0.8,0,1.5-0.2,1.9-0.5c0.4-0.3,0.8-0.8,1-1.5l0.5-1.3l-5.2-14.7h3.6L74.4,212.9z"/>
</g>
<g class="st0">
	<path class="st1" d="M86.6,210.2v7.4h-3.5v-19.9h7.6c2.2,0,4,0.6,5.3,1.7c1.3,1.2,2,2.7,2,4.6c0,2-0.6,3.5-1.9,4.6
		c-1.3,1.1-3.1,1.6-5.4,1.6H86.6z M86.6,207.4h4.2c1.2,0,2.2-0.3,2.8-0.9c0.6-0.6,1-1.4,1-2.5c0-1.1-0.3-1.9-1-2.6s-1.6-1-2.7-1
		h-4.3V207.4z"/>
</g>
<g class="st0">
	<path class="st1" d="M100,210.1c0-1.4,0.3-2.8,0.9-3.9s1.4-2.1,2.4-2.7s2.2-0.9,3.6-0.9c2,0,3.6,0.6,4.9,1.9s1.9,3,2,5.1l0,0.8
		c0,1.5-0.3,2.8-0.8,3.9s-1.4,2-2.4,2.7c-1,0.6-2.2,0.9-3.6,0.9c-2.1,0-3.8-0.7-5-2.1c-1.3-1.4-1.9-3.2-1.9-5.6V210.1z M103.3,210.4
		c0,1.5,0.3,2.7,0.9,3.6s1.5,1.3,2.6,1.3s2-0.4,2.6-1.3c0.6-0.9,0.9-2.2,0.9-3.8c0-1.5-0.3-2.7-1-3.6s-1.5-1.3-2.6-1.3
		c-1.1,0-1.9,0.4-2.6,1.3C103.6,207.4,103.3,208.7,103.3,210.4z"/>
</g>
<g class="st0">
	<path class="st1" d="M124.3,205.9c-0.4-0.1-0.9-0.1-1.4-0.1c-1.5,0-2.5,0.6-3.1,1.8v10.1h-3.3v-14.8h3.2l0.1,1.7
		c0.8-1.3,1.9-1.9,3.3-1.9c0.5,0,0.9,0.1,1.2,0.2L124.3,205.9z"/>
</g>
<g class="st0">
	<path class="st1" d="M131.2,199.2v3.6h2.6v2.5h-2.6v8.3c0,0.6,0.1,1,0.3,1.2s0.6,0.4,1.2,0.4c0.4,0,0.8,0,1.2-0.1v2.6
		c-0.8,0.2-1.5,0.3-2.2,0.3c-2.6,0-3.8-1.4-3.8-4.2v-8.4h-2.4v-2.5h2.4v-3.6H131.2z"/>
	<path class="st1" d="M137.5,217.6v-12.3h-2.3v-2.5h2.3v-1.4c0-1.6,0.5-2.9,1.4-3.8s2.2-1.3,3.8-1.3c0.6,0,1.2,0.1,1.9,0.2l-0.1,2.6
		c-0.4-0.1-0.8-0.1-1.3-0.1c-1.6,0-2.4,0.8-2.4,2.4v1.3h3v2.5h-3v12.3H137.5z"/>
	<path class="st1" d="M145.7,210.1c0-1.4,0.3-2.8,0.9-3.9s1.4-2.1,2.4-2.7s2.2-0.9,3.6-0.9c2,0,3.6,0.6,4.9,1.9s1.9,3,2,5.1l0,0.8
		c0,1.5-0.3,2.8-0.8,3.9s-1.4,2-2.4,2.7s-2.2,0.9-3.6,0.9c-2.1,0-3.8-0.7-5-2.1s-1.9-3.2-1.9-5.6V210.1z M149,210.4
		c0,1.5,0.3,2.7,0.9,3.6s1.5,1.3,2.6,1.3s2-0.4,2.6-1.3s0.9-2.2,0.9-3.8c0-1.5-0.3-2.7-1-3.6s-1.5-1.3-2.6-1.3
		c-1.1,0-1.9,0.4-2.6,1.3S149,208.7,149,210.4z"/>
	<path class="st1" d="M165.8,217.6h-3.3v-21h3.3V217.6z"/>
	<path class="st1" d="M169.4,199c0-0.5,0.2-0.9,0.5-1.3s0.8-0.5,1.4-0.5s1.1,0.2,1.4,0.5s0.5,0.8,0.5,1.3c0,0.5-0.2,0.9-0.5,1.3
		s-0.8,0.5-1.4,0.5s-1.1-0.2-1.4-0.5S169.4,199.5,169.4,199z M172.9,217.6h-3.3v-14.8h3.3V217.6z"/>
	<path class="st1" d="M175.9,210.1c0-1.4,0.3-2.8,0.9-3.9s1.4-2.1,2.4-2.7s2.2-0.9,3.6-0.9c2,0,3.6,0.6,4.9,1.9s1.9,3,2,5.1l0,0.8
		c0,1.5-0.3,2.8-0.8,3.9s-1.4,2-2.4,2.7s-2.2,0.9-3.6,0.9c-2.1,0-3.8-0.7-5-2.1s-1.9-3.2-1.9-5.6V210.1z M179.2,210.4
		c0,1.5,0.3,2.7,0.9,3.6s1.5,1.3,2.6,1.3s2-0.4,2.6-1.3s0.9-2.2,0.9-3.8c0-1.5-0.3-2.7-1-3.6s-1.5-1.3-2.6-1.3
		c-1.1,0-1.9,0.4-2.6,1.3S179.2,208.7,179.2,210.4z"/>
</g>
<g>
	<g>
		<path class="st2" d="M51.7,13.2h40.6c5.1,0,9.2,4.1,9.2,9.2v106.8c0,5.1-4.1,9.2-9.2,9.2H51.7c-5.1,0-9.2-4.1-9.2-9.2V22.4
			C42.5,17.3,46.6,13.2,51.7,13.2z"/>
		<path class="st1" d="M92.3,15.2c4,0,7.2,3.2,7.2,7.2v106.8c0,4-3.2,7.2-7.2,7.2H51.7c-4,0-7.2-3.2-7.2-7.2V22.4
			c0-4,3.2-7.2,7.2-7.2L92.3,15.2 M92.3,11.2H51.7c-6.2,0-11.2,5-11.2,11.2v106.8c0,6.2,5,11.2,11.2,11.2h40.5
			c6.2,0,11.2-5,11.2-11.2V22.4C103.5,16.2,98.5,11.2,92.3,11.2L92.3,11.2z"/>
	</g>
	<g>
		<path class="st2" d="M52.1,21.6h143.6c5.1,0,9.2,4.1,9.2,9.2v106.8c0,5.1-4.1,9.2-9.2,9.2H52.1c-5.1,0-9.2-4.1-9.2-9.2V30.8
			C42.9,25.7,47.1,21.6,52.1,21.6z"/>
		<path class="st1" d="M195.7,23.6c4,0,7.2,3.2,7.2,7.2v106.8c0,4-3.2,7.2-7.2,7.2H52.2c-4,0-7.2-3.2-7.2-7.2V30.8
			c0-4,3.2-7.2,7.2-7.2L195.7,23.6 M195.7,19.6H52.2c-6.2,0-11.2,5-11.2,11.2v106.8c0,6.2,5,11.2,11.2,11.2h143.6
			c6.2,0,11.2-5,11.2-11.2V30.8C206.9,24.6,201.9,19.6,195.7,19.6L195.7,19.6z"/>
	</g>
	<g>
		<path class="st2" d="M38,35.7h143.6c5.1,0,9.2,4.1,9.2,9.2v106.8c0,5.1-4.1,9.2-9.2,9.2H38c-5.1,0-9.2-4.1-9.2-9.2V44.9
			C28.8,39.8,33,35.7,38,35.7z"/>
		<path class="st1" d="M181.6,37.7c4,0,7.2,3.2,7.2,7.2v106.8c0,4-3.2,7.2-7.2,7.2H38c-4,0-7.2-3.2-7.2-7.2V44.9
			c0-4,3.2-7.2,7.2-7.2L181.6,37.7 M181.6,33.7H38c-6.2,0-11.2,5-11.2,11.2v106.8c0,6.2,5,11.2,11.2,11.2h143.6
			c6.2,0,11.2-5,11.2-11.2V44.9C192.8,38.7,187.8,33.7,181.6,33.7L181.6,33.7z"/>
	</g>
	<line class="st3" x1="30.5" y1="59.9" x2="189.1" y2="59.9"/>
	<path class="st1" d="M47,93.8l13-20.4c1-1.5,3.2-1.5,4.2,0l13,20.4c1.1,1.7-0.1,3.8-2.1,3.8h-26C47.2,97.6,46,95.4,47,93.8L47,93.8
		z"/>
	<path class="st1" d="M124.9,116.7l-13,20.4c-1,1.5-3.2,1.5-4.2,0l-13-20.4c-1.1-1.7,0.1-3.8,2.1-3.8h26
		C124.8,112.8,126,115,124.9,116.7L124.9,116.7z"/>
	<path class="st1" d="M98.5,70.1h22.6c1.4,0,2.5,1.1,2.5,2.5v22.6c0,1.4-1.1,2.5-2.5,2.5H98.5c-1.4,0-2.5-1.1-2.5-2.5V72.6
		C96.1,71.2,97.2,70.1,98.5,70.1z"/>
	<circle class="st1" cx="155.2" cy="83.8" r="13.8"/>
	<circle class="st1" cx="62.1" cy="126.6" r="13.8"/>
	<circle class="st1" cx="42.8" cy="47.3" r="4.7"/>
	<circle class="st1" cx="57.4" cy="47.3" r="4.7"/>
	<circle class="st1" cx="72" cy="47.3" r="4.7"/>
</g>
</svg>
