<?xml version="1.0" encoding="utf-8"?>
<!-- Generator: Adobe Illustrator 27.2.0, SVG Export Plug-In . SVG Version: 6.00 Build 0)  -->
<svg version="1.1" id="Ebene_3" xmlns="http://www.w3.org/2000/svg" xmlns:xlink="http://www.w3.org/1999/xlink" x="0px" y="0px"
	 viewBox="0 0 233.8 233.8" style="enable-background:new 0 0 233.8 233.8;" xml:space="preserve">
<style type="text/css">
	.st0{enable-background:new    ;}
	.st1{fill:#353230;}
	.st2{fill:#FCF4E4;}
</style>
<g class="st0">
	<path class="st1" d="M54.5,217.6v-12.3h-2.3v-2.5h2.3v-1.4c0-1.6,0.5-2.9,1.4-3.8c0.9-0.9,2.2-1.3,3.8-1.3c0.6,0,1.2,0.1,1.9,0.2
		l-0.1,2.6c-0.4-0.1-0.8-0.1-1.3-0.1c-1.6,0-2.4,0.8-2.4,2.4v1.3h3v2.5h-3v12.3H54.5z"/>
	<path class="st1" d="M63.2,199c0-0.5,0.2-0.9,0.5-1.3c0.3-0.3,0.8-0.5,1.4-0.5s1.1,0.2,1.4,0.5s0.5,0.8,0.5,1.3
		c0,0.5-0.2,0.9-0.5,1.3s-0.8,0.5-1.4,0.5s-1.1-0.2-1.4-0.5C63.4,199.9,63.2,199.5,63.2,199z M66.8,217.6h-3.3v-14.8h3.3V217.6z"/>
</g>
<g class="st0">
	<path class="st1" d="M78.1,205.9c-0.4-0.1-0.9-0.1-1.4-0.1c-1.5,0-2.5,0.6-3.1,1.8v10.1h-3.3v-14.8h3.2l0.1,1.7
		c0.8-1.3,1.9-1.9,3.3-1.9c0.5,0,0.9,0.1,1.2,0.2L78.1,205.9z"/>
</g>
<g class="st0">
	<path class="st1" d="M79.1,210.1c0-1.4,0.3-2.8,0.9-3.9s1.4-2.1,2.4-2.7s2.2-0.9,3.6-0.9c2,0,3.6,0.6,4.9,1.9s1.9,3,2,5.1l0,0.8
		c0,1.5-0.3,2.8-0.8,3.9s-1.4,2-2.4,2.7c-1,0.6-2.2,0.9-3.6,0.9c-2.1,0-3.8-0.7-5-2.1c-1.3-1.4-1.9-3.2-1.9-5.6V210.1z M82.4,210.4
		c0,1.5,0.3,2.7,0.9,3.6s1.5,1.3,2.6,1.3s2-0.4,2.6-1.3c0.6-0.9,0.9-2.2,0.9-3.8c0-1.5-0.3-2.7-1-3.6s-1.5-1.3-2.6-1.3
		c-1.1,0-1.9,0.4-2.6,1.3C82.8,207.4,82.4,208.7,82.4,210.4z"/>
	<path class="st1" d="M104.6,216.2c-1,1.1-2.4,1.7-4.2,1.7c-1.6,0-2.8-0.5-3.6-1.4c-0.8-0.9-1.2-2.3-1.2-4.1v-9.6h3.3v9.5
		c0,1.9,0.8,2.8,2.3,2.8c1.6,0,2.7-0.6,3.3-1.7v-10.6h3.3v14.8h-3.1L104.6,216.2z"/>
	<path class="st1" d="M114.8,215h7.9v2.7h-12v-2.2l7.5-9.9h-7.4v-2.7h11.6v2.1L114.8,215z"/>
	<path class="st1" d="M128.8,202.8v16.1c0,1.5-0.4,2.7-1.1,3.5s-1.9,1.2-3.3,1.2c-0.6,0-1.2-0.1-1.8-0.2v-2.6
		c0.3,0.1,0.7,0.1,1.2,0.1c1.1,0,1.7-0.6,1.7-1.8v-16.2H128.8z M125.2,199c0-0.5,0.2-0.9,0.5-1.3c0.3-0.3,0.8-0.5,1.4-0.5
		s1.1,0.2,1.4,0.5s0.5,0.8,0.5,1.3c0,0.5-0.2,0.9-0.5,1.3s-0.8,0.5-1.4,0.5s-1.1-0.2-1.4-0.5C125.3,199.9,125.2,199.5,125.2,199z"/>
	<path class="st1" d="M141.2,217.6c-0.1-0.3-0.3-0.7-0.4-1.4c-1.1,1.1-2.4,1.7-3.9,1.7c-1.5,0-2.7-0.4-3.6-1.3
		c-0.9-0.8-1.4-1.9-1.4-3.1c0-1.6,0.6-2.8,1.8-3.6c1.2-0.8,2.8-1.3,5-1.3h2v-1c0-0.8-0.2-1.4-0.6-1.8c-0.4-0.5-1.1-0.7-2-0.7
		c-0.8,0-1.4,0.2-1.9,0.6c-0.5,0.4-0.7,0.9-0.7,1.4h-3.3c0-0.8,0.3-1.6,0.8-2.3c0.5-0.7,1.3-1.3,2.2-1.7c0.9-0.4,2-0.6,3.1-0.6
		c1.7,0,3.1,0.4,4.1,1.3c1,0.9,1.6,2.1,1.6,3.7v6.7c0,1.3,0.2,2.4,0.6,3.2v0.2H141.2z M137.5,215.2c0.7,0,1.3-0.2,1.9-0.5
		c0.6-0.3,1-0.7,1.3-1.3v-2.8h-1.8c-1.2,0-2.2,0.2-2.8,0.6c-0.6,0.4-0.9,1-0.9,1.8c0,0.6,0.2,1.1,0.6,1.5S136.8,215.2,137.5,215.2z"
		/>
	<path class="st1" d="M149.6,214.1c0.6,0,1.1,0.2,1.4,0.5c0.3,0.4,0.5,0.8,0.5,1.3c0,0.5-0.2,1-0.5,1.3c-0.3,0.3-0.8,0.5-1.4,0.5
		c-0.6,0-1.1-0.2-1.4-0.5c-0.3-0.3-0.5-0.8-0.5-1.3s0.2-1,0.5-1.3C148.5,214.3,148.9,214.1,149.6,214.1z"/>
	<path class="st1" d="M159.5,199.2v3.6h2.6v2.5h-2.6v8.3c0,0.6,0.1,1,0.3,1.2c0.2,0.3,0.6,0.4,1.2,0.4c0.4,0,0.8,0,1.2-0.1v2.6
		c-0.8,0.2-1.5,0.3-2.2,0.3c-2.6,0-3.8-1.4-3.8-4.2v-8.4h-2.4v-2.5h2.4v-3.6H159.5z"/>
	<path class="st1" d="M168.8,199.2v3.6h2.6v2.5h-2.6v8.3c0,0.6,0.1,1,0.3,1.2c0.2,0.3,0.6,0.4,1.2,0.4c0.4,0,0.8,0,1.2-0.1v2.6
		c-0.8,0.2-1.5,0.3-2.2,0.3c-2.6,0-3.8-1.4-3.8-4.2v-8.4H163v-2.5h2.4v-3.6H168.8z"/>
	<path class="st1" d="M175.1,217.6v-12.3h-2.3v-2.5h2.3v-1.4c0-1.6,0.5-2.9,1.4-3.8c0.9-0.9,2.2-1.3,3.8-1.3c0.6,0,1.2,0.1,1.9,0.2
		l-0.1,2.6c-0.4-0.1-0.8-0.1-1.3-0.1c-1.6,0-2.4,0.8-2.4,2.4v1.3h3v2.5h-3v12.3H175.1z"/>
</g>
<g>
	<g>
		<polygon class="st2" points="55.3,173.8 55.3,18.2 147.2,18.2 178.5,46.5 178.5,173.8 		"/>
		<path class="st1" d="M146.4,20.2l30.1,27.1v124.4H57.3V20.2H146.4 M147.9,16.2H53.3v159.6h127.2V45.6L147.9,16.2L147.9,16.2
			L147.9,16.2z"/>
	</g>
	<g>
		<polygon class="st2" points="149.9,43.6 149.9,20.7 175.3,43.6 		"/>
		<path class="st1" d="M151.9,25.2l18.1,16.4h-18.1V25.2 M147.9,16.2v29.4h32.6L147.9,16.2L147.9,16.2z"/>
	</g>
</g>
<g class="st0">
	<path class="st1" d="M124.9,116.9H97.4v-2.8c1.3-0.1,2.8-0.3,4.5-0.7c1.7-0.4,2.6-0.8,2.6-1.4c0-0.2,0-0.4-0.1-0.6s-0.1-0.6-0.3-1
		L99.9,100H82.5c-0.4,1-0.8,2.1-1.3,3.4c-0.5,1.3-0.9,2.5-1.3,3.5c-0.4,1.3-0.7,2.3-0.8,2.9c-0.1,0.6-0.1,1-0.1,1.2
		c0,0.8,0.6,1.4,1.7,1.9c1.1,0.5,3.1,0.9,5.7,1.2v2.8H65.8v-2.8c0.8,0,1.7-0.2,2.6-0.4c1-0.2,1.8-0.5,2.3-0.8c1-0.6,1.8-1.3,2.5-2.1
		c0.7-0.8,1.2-1.8,1.7-2.9c2.7-6.6,5.5-13.3,8.2-20c2.8-6.7,5.8-14,9.1-22.1h7.1c4.6,11.4,8.3,20.4,10.9,27
		c2.6,6.6,4.9,12.1,6.7,16.5c0.3,0.7,0.7,1.4,1.2,1.9c0.5,0.6,1.1,1.1,2,1.7c0.7,0.4,1.4,0.7,2.3,0.9c0.9,0.2,1.7,0.3,2.4,0.4V116.9
		z M98.4,96.5l-7.3-18.2l-7.2,18.2H98.4z"/>
	<path class="st1" d="M165.5,116.1c-1,0.4-2.3,0.9-3.7,1.2c-1.4,0.4-2.9,0.6-4.5,0.6c-2.9,0-5-0.4-6.4-1.3s-2.3-2.1-2.8-3.7h-0.2
		c-0.8,0.8-1.6,1.5-2.3,2.1s-1.5,1.1-2.4,1.5c-1.1,0.5-2.2,0.9-3.2,1.2c-1,0.3-2.5,0.4-4.3,0.4c-2.7,0-5.1-0.8-7-2.4
		c-1.9-1.6-2.9-3.8-2.9-6.4c0-1.5,0.2-2.8,0.6-3.9c0.4-1.1,1-2,1.8-2.9c0.7-0.8,1.5-1.4,2.5-1.9c0.9-0.5,2-1,3.1-1.4
		c2.1-0.8,4.7-1.6,7.7-2.4c3-0.8,5.2-1.6,6.5-2.3V91c0-0.6,0-1.4-0.1-2.3c-0.1-1-0.3-1.8-0.6-2.4c-0.3-0.8-0.9-1.4-1.6-1.9
		c-0.7-0.5-1.6-0.8-2.8-0.8c-1,0-1.9,0.1-2.6,0.4c-0.7,0.3-1.3,0.6-1.7,0.9c0.1,0.5,0.3,1.2,0.6,2.2c0.3,1,0.5,1.9,0.5,2.8
		c0,0.4-0.1,0.9-0.3,1.5c-0.2,0.6-0.5,1.1-0.9,1.4c-0.5,0.5-1.2,0.8-1.8,1.1c-0.7,0.3-1.7,0.4-3.1,0.4c-2,0-3.5-0.5-4.5-1.4
		c-1-1-1.5-2.2-1.5-3.7c0-1.3,0.5-2.5,1.6-3.6c1.1-1.1,2.3-1.9,3.8-2.6c1.5-0.7,3.2-1.3,5.1-1.6c1.9-0.4,3.7-0.6,5.4-0.6
		c2.3,0,4.4,0.1,6.3,0.4c1.9,0.3,3.6,0.8,5.2,1.7c1.5,0.8,2.6,2,3.5,3.6c0.9,1.6,1.3,3.6,1.3,6.2c0,2.7-0.1,5.8-0.2,9.5
		s-0.2,6.1-0.2,7.2c0,1.1,0.2,1.9,0.5,2.5c0.3,0.6,0.8,1.1,1.5,1.4c0.4,0.2,1,0.3,1.9,0.3s1.6,0.1,2.4,0.1V116.1z M147.9,97.7
		c-1.3,0.5-2.6,1-4,1.5c-1.3,0.6-2.4,1.2-3.2,1.8c-0.9,0.7-1.6,1.5-2.1,2.5c-0.5,1-0.7,2.2-0.7,3.6c0,1.8,0.4,3.2,1.3,4
		c0.8,0.8,1.9,1.2,3.1,1.2c1.3,0,2.4-0.3,3.2-0.8c0.8-0.5,1.6-1.2,2.2-2L147.9,97.7z"/>
</g>
</svg>
