<?xml version="1.0" encoding="utf-8"?>
<!-- Generator: Adobe Illustrator 27.2.0, SVG Export Plug-In . SVG Version: 6.00 Build 0)  -->
<svg version="1.1" id="Ebene_2_00000013167026137290111180000007475346012227304613_"
	 xmlns="http://www.w3.org/2000/svg" xmlns:xlink="http://www.w3.org/1999/xlink" x="0px" y="0px" viewBox="0 0 186.9 37.3"
	 style="enable-background:new 0 0 186.9 37.3;" xml:space="preserve">
<style type="text/css">
	.st0{fill:#FCF2E0;stroke:#2E2C2B;stroke-width:2;stroke-linecap:round;stroke-linejoin:round;}
	.st1{enable-background:new    ;}
	.st2{fill:#2E2C2B;}
</style>
<g id="Ebene_3">
	<g>
		<path class="st0" d="M5,1h176.9c2.2,0,4,1.8,4,4v27.3c0,2.2-1.8,4-4,4H5c-2.2,0-4-1.8-4-4V5C1,2.8,2.8,1,5,1z"/>
		<g class="st1">
			<path class="st2" d="M22.7,24.4h-1l-5-10.4l-1.8,10.4h-1L16,12.3h1l5,10.4l1.8-10.4h1L22.7,24.4z"/>
			<path class="st2" d="M26.6,24.4h-1l1.6-9h1L26.6,24.4z M27.5,12.8c0-0.4,0.3-0.6,0.7-0.7c0.2,0,0.4,0.1,0.5,0.2s0.2,0.3,0.2,0.5
				c-0.1,0.2-0.1,0.4-0.2,0.5c-0.1,0.1-0.3,0.2-0.5,0.2C27.6,13.4,27.4,13.2,27.5,12.8z"/>
			<path class="st2" d="M32.8,23.8c0.7,0,1.2-0.2,1.7-0.5s0.8-0.9,1-1.6h0.9c-0.2,0.9-0.6,1.6-1.3,2.2s-1.5,0.8-2.4,0.8
				c-0.7,0-1.3-0.2-1.8-0.6c-0.5-0.4-0.9-0.9-1.1-1.6c-0.2-0.7-0.3-1.4-0.2-2.3l0-0.4c0.1-0.6,0.2-1.2,0.4-1.7s0.5-1,0.9-1.5
				c0.4-0.4,0.8-0.8,1.3-1c0.5-0.2,1.1-0.4,1.7-0.3c0.9,0,1.7,0.3,2.2,0.9s0.8,1.4,0.8,2.3l-0.9,0c0-0.7-0.2-1.3-0.5-1.7
				c-0.4-0.4-0.9-0.7-1.5-0.7c-0.7,0-1.3,0.2-1.8,0.6c-0.5,0.4-0.9,1-1.2,1.8c-0.3,0.8-0.4,1.6-0.4,2.5c0,0.9,0.2,1.6,0.6,2.1
				C31.5,23.5,32.1,23.8,32.8,23.8z"/>
			<path class="st2" d="M40.1,16.9c0.9-1.2,1.9-1.7,3.1-1.7c0.9,0,1.5,0.3,1.9,0.9s0.5,1.4,0.4,2.4l-1,5.9h-1l1-5.9
				c0-0.3,0-0.6,0-0.9c-0.1-1-0.6-1.5-1.6-1.5c-0.6,0-1.1,0.2-1.6,0.5c-0.5,0.4-1,0.9-1.3,1.6l-1.1,6.2h-1l2.2-12.8h1L40.1,16.9z"/>
			<path class="st2" d="M50.6,13.1l-0.4,2.3H52l-0.1,0.8h-1.8l-1,6l0,0.5c0,0.6,0.3,0.9,0.8,0.9c0.2,0,0.4,0,0.8-0.1l0,0.8
				c-0.3,0.1-0.7,0.1-1,0.1c-0.6,0-1-0.2-1.3-0.6c-0.3-0.4-0.4-1-0.3-1.7l1-6h-1.6l0.2-0.8h1.6l0.4-2.3H50.6z"/>
			<path class="st2" d="M58.2,22.1c0.1-0.8-0.4-1.3-1.4-1.7L55.4,20c-1.3-0.4-1.9-1.2-1.9-2.2c0-0.8,0.4-1.4,1-1.8s1.4-0.7,2.3-0.7
				c0.9,0,1.6,0.3,2.2,0.7c0.6,0.5,0.8,1.1,0.8,2h-1c0-0.5-0.1-1-0.5-1.3c-0.4-0.3-0.9-0.5-1.5-0.5c-0.6,0-1.2,0.1-1.6,0.4
				s-0.7,0.7-0.7,1.2c-0.1,0.7,0.4,1.2,1.3,1.5l1,0.3l0.6,0.2c1.3,0.5,1.9,1.2,1.8,2.3c0,0.7-0.4,1.3-0.9,1.8S57,24.5,56,24.6
				l-0.3,0c-0.6,0-1.2-0.1-1.6-0.4s-0.9-0.5-1.1-0.9c-0.3-0.4-0.4-0.9-0.3-1.4l1,0c0,0.6,0.2,1,0.6,1.3c0.4,0.3,0.9,0.5,1.6,0.5
				c0.7,0,1.2-0.2,1.7-0.5C57.9,23,58.2,22.6,58.2,22.1z"/>
			<path class="st2" d="M66,23.6h5.7l-0.2,0.8h-6.9l0.1-0.8l6.6-7.4h-5.1l0.2-0.9h6.4l-0.1,0.8L66,23.6z"/>
			<path class="st2" d="M79.3,23.3c-0.7,0.9-1.7,1.3-3,1.3c-0.9,0-1.5-0.3-1.9-0.9c-0.4-0.6-0.6-1.4-0.5-2.5l1-5.8h1l-1,5.8
				c0,0.3,0,0.6,0,0.9c0,0.5,0.2,0.9,0.5,1.2c0.3,0.3,0.6,0.4,1.1,0.4c0.7,0,1.3-0.1,1.9-0.5c0.6-0.3,0.9-0.8,1.1-1.3l1.1-6.6h1
				l-1.6,9h-1L79.3,23.3z"/>
			<path class="st2" d="M85,15.4l-0.3,1.5c0.8-1.1,1.8-1.7,3.1-1.6c0.6,0,1.2,0.2,1.6,0.5s0.7,0.7,0.8,1.3c0.4-0.6,0.9-1,1.4-1.3
				c0.5-0.3,1.1-0.5,1.8-0.4c0.9,0,1.5,0.3,1.9,0.8c0.4,0.5,0.6,1.3,0.5,2.3l0,0.2l-1,5.9h-1l1-5.9c0-0.3,0-0.6,0-0.9
				c-0.1-1-0.7-1.5-1.7-1.5c-0.7,0-1.3,0.2-1.9,0.7c-0.6,0.5-0.9,1-1.1,1.7l-1,6h-1l1-6c0.2-1.5-0.4-2.3-1.7-2.4
				c-0.6,0-1.2,0.2-1.8,0.6c-0.6,0.4-0.9,0.9-1.1,1.5l-1.1,6.2h-1l1.6-9H85z"/>
			<path class="st2" d="M108.8,21.4c0.1-1-0.4-1.8-1.7-2.3l-1.6-0.6l-0.5-0.2c-1.6-0.7-2.3-1.7-2.2-3c0.1-0.6,0.3-1.2,0.7-1.7
				c0.4-0.5,0.9-0.9,1.6-1.1c0.7-0.3,1.4-0.4,2.1-0.4c0.7,0,1.4,0.2,1.9,0.5s1,0.7,1.3,1.3s0.4,1.2,0.3,1.8h-1
				c0.1-0.8-0.1-1.5-0.6-2c-0.5-0.5-1.1-0.8-2-0.8c-0.9,0-1.6,0.2-2.3,0.6s-1,1-1.1,1.7c-0.1,0.6,0.1,1.1,0.5,1.5
				c0.4,0.4,1.1,0.8,2.1,1.1c1.3,0.4,2.2,0.9,2.7,1.5c0.5,0.6,0.7,1.3,0.7,2.1c-0.1,0.7-0.3,1.2-0.7,1.7c-0.4,0.5-1,0.9-1.6,1.1
				c-0.7,0.3-1.4,0.4-2.2,0.4c-0.8,0-1.5-0.2-2.1-0.5s-1.1-0.7-1.4-1.3c-0.3-0.5-0.4-1.2-0.4-1.9h1c-0.1,0.8,0.1,1.5,0.7,2
				c0.5,0.5,1.3,0.8,2.2,0.8c0.9,0,1.7-0.2,2.4-0.6S108.7,22.1,108.8,21.4z"/>
			<path class="st2" d="M117.3,23.3c-0.7,0.9-1.7,1.3-3,1.3c-0.9,0-1.5-0.3-1.9-0.9c-0.4-0.6-0.6-1.4-0.5-2.5l1-5.8h1l-1,5.8
				c0,0.3,0,0.6,0,0.9c0,0.5,0.2,0.9,0.5,1.2c0.3,0.3,0.6,0.4,1.1,0.4c0.7,0,1.3-0.1,1.9-0.5c0.6-0.3,0.9-0.8,1.1-1.3l1.1-6.6h1
				l-1.6,9h-1L117.3,23.3z"/>
			<path class="st2" d="M124,23.8c0.7,0,1.2-0.2,1.7-0.5s0.8-0.9,1-1.6h0.9c-0.2,0.9-0.6,1.6-1.3,2.2s-1.5,0.8-2.4,0.8
				c-0.7,0-1.3-0.2-1.8-0.6c-0.5-0.4-0.9-0.9-1.1-1.6c-0.2-0.7-0.3-1.4-0.2-2.3l0-0.4c0.1-0.6,0.2-1.2,0.4-1.7s0.5-1,0.9-1.5
				c0.4-0.4,0.8-0.8,1.3-1c0.5-0.2,1.1-0.4,1.7-0.3c0.9,0,1.7,0.3,2.2,0.9s0.8,1.4,0.8,2.3l-0.9,0c0-0.7-0.2-1.3-0.5-1.7
				c-0.4-0.4-0.9-0.7-1.5-0.7c-0.7,0-1.3,0.2-1.8,0.6c-0.5,0.4-0.9,1-1.2,1.8c-0.3,0.8-0.4,1.6-0.4,2.5c0,0.9,0.2,1.6,0.6,2.1
				C122.8,23.5,123.3,23.8,124,23.8z"/>
			<path class="st2" d="M131.4,16.9c0.9-1.2,1.9-1.7,3.1-1.7c0.9,0,1.5,0.3,1.9,0.9s0.5,1.4,0.4,2.4l-1,5.9h-1l1-5.9
				c0-0.3,0-0.6,0-0.9c-0.1-1-0.6-1.5-1.6-1.5c-0.6,0-1.1,0.2-1.6,0.5c-0.5,0.4-1,0.9-1.3,1.6l-1.1,6.2h-1l2.2-12.8h1L131.4,16.9z"
				/>
			<path class="st2" d="M141.9,24.6c-0.7,0-1.4-0.2-1.9-0.6s-0.9-0.9-1.2-1.6c-0.2-0.7-0.3-1.4-0.3-2.2l0-0.3
				c0.1-0.8,0.3-1.6,0.7-2.4c0.4-0.8,0.9-1.3,1.6-1.7c0.6-0.4,1.3-0.6,2.1-0.6c0.7,0,1.2,0.2,1.7,0.6c0.5,0.4,0.8,0.9,1,1.5
				s0.3,1.3,0.2,2.1l-0.1,0.6h-6.3l0,0.2c-0.1,0.6,0,1.2,0.1,1.7c0.2,0.6,0.5,1,0.8,1.3s0.9,0.5,1.4,0.5c0.5,0,1-0.1,1.4-0.3
				s0.8-0.5,1.2-0.9l0.6,0.5c-0.4,0.5-0.9,0.9-1.5,1.2S142.6,24.6,141.9,24.6z M143,16.1c-0.7,0-1.4,0.2-1.9,0.8
				c-0.6,0.5-1,1.3-1.3,2.3l5.2,0l0-0.1c0.1-0.8,0-1.5-0.4-2C144.2,16.4,143.7,16.1,143,16.1z"/>
			<path class="st2" d="M149.5,15.4l-0.3,1.5c0.4-0.6,0.9-1,1.4-1.3s1.1-0.4,1.7-0.4c0.9,0,1.5,0.3,1.9,0.9s0.5,1.4,0.4,2.4l-1,5.9
				h-1l1-5.9c0-0.3,0-0.6,0-0.9c-0.1-1-0.6-1.5-1.6-1.5c-0.6,0-1.1,0.2-1.6,0.5c-0.5,0.4-1,0.9-1.3,1.6l-1.1,6.2h-1l1.6-9H149.5z"/>
			<path class="st2" d="M160.3,23.8c0-0.2,0.1-0.4,0.2-0.5c0.1-0.1,0.3-0.2,0.5-0.2c0.2,0,0.4,0.1,0.5,0.2c0.1,0.1,0.2,0.3,0.2,0.5
				c0,0.2-0.1,0.4-0.2,0.5c-0.1,0.1-0.3,0.2-0.5,0.2c-0.2,0-0.4-0.1-0.5-0.2C160.4,24.2,160.3,24,160.3,23.8z"/>
			<path class="st2" d="M164.4,23.8c0-0.2,0.1-0.4,0.2-0.5c0.1-0.1,0.3-0.2,0.5-0.2c0.2,0,0.4,0.1,0.5,0.2c0.1,0.1,0.2,0.3,0.2,0.5
				c0,0.2-0.1,0.4-0.2,0.5c-0.1,0.1-0.3,0.2-0.5,0.2c-0.2,0-0.4-0.1-0.5-0.2C164.4,24.2,164.4,24,164.4,23.8z"/>
			<path class="st2" d="M168.4,23.8c0-0.2,0.1-0.4,0.2-0.5c0.1-0.1,0.3-0.2,0.5-0.2c0.2,0,0.4,0.1,0.5,0.2c0.1,0.1,0.2,0.3,0.2,0.5
				c0,0.2-0.1,0.4-0.2,0.5c-0.1,0.1-0.3,0.2-0.5,0.2c-0.2,0-0.4-0.1-0.5-0.2C168.5,24.2,168.4,24,168.4,23.8z"/>
		</g>
	</g>
</g>
</svg>
