<?xml version="1.0" encoding="utf-8"?>
<!-- Generator: Adobe Illustrator 27.2.0, SVG Export Plug-In . SVG Version: 6.00 Build 0)  -->
<svg version="1.1" id="Ebene_3" xmlns="http://www.w3.org/2000/svg" xmlns:xlink="http://www.w3.org/1999/xlink" x="0px" y="0px"
	 viewBox="0 0 233.8 233.8" style="enable-background:new 0 0 233.8 233.8;" xml:space="preserve">
<style type="text/css">
	.st0{enable-background:new    ;}
	.st1{fill:#353230;}
	.st2{fill:#FCF4E4;}
</style>
<g class="st0">
	<path class="st1" d="M15.5,213.6c0-0.6-0.2-1-0.7-1.4c-0.5-0.3-1.3-0.6-2.4-0.8c-1.1-0.2-2.1-0.5-2.8-0.9c-1.7-0.8-2.5-2-2.5-3.5
		c0-1.3,0.5-2.3,1.6-3.2c1.1-0.9,2.4-1.3,4.1-1.3c1.8,0,3.2,0.4,4.3,1.3c1.1,0.9,1.6,2,1.6,3.4h-3.3c0-0.6-0.2-1.2-0.7-1.6
		c-0.5-0.4-1.1-0.6-1.9-0.6c-0.7,0-1.3,0.2-1.8,0.5c-0.5,0.3-0.7,0.8-0.7,1.4c0,0.5,0.2,0.9,0.6,1.2c0.4,0.3,1.3,0.6,2.6,0.9
		c1.3,0.3,2.3,0.6,3.1,1c0.7,0.4,1.3,0.9,1.7,1.4c0.4,0.6,0.5,1.2,0.5,2c0,1.3-0.6,2.4-1.7,3.2c-1.1,0.8-2.5,1.2-4.3,1.2
		c-1.2,0-2.3-0.2-3.2-0.7c-0.9-0.4-1.7-1-2.2-1.8c-0.5-0.8-0.8-1.6-0.8-2.5h3.2c0,0.8,0.3,1.4,0.9,1.8s1.3,0.6,2.2,0.6
		c0.9,0,1.5-0.2,2-0.5C15.3,214.6,15.5,214.1,15.5,213.6z"/>
	<path class="st1" d="M25,204.4c1.1-1.3,2.5-1.9,4.1-1.9c3.2,0,4.8,1.8,4.8,5.4v9.7h-3.3v-9.5c0-1-0.2-1.7-0.7-2.2
		c-0.4-0.4-1.1-0.6-1.9-0.6c-1.3,0-2.3,0.6-3,1.8v10.6h-3.3v-21H25V204.4z"/>
	<path class="st1" d="M36.6,210.1c0-1.4,0.3-2.8,0.9-3.9s1.4-2.1,2.4-2.7s2.2-0.9,3.6-0.9c2,0,3.6,0.6,4.9,1.9s1.9,3,2,5.1l0,0.8
		c0,1.5-0.3,2.8-0.8,3.9s-1.4,2-2.4,2.7c-1,0.6-2.2,0.9-3.6,0.9c-2.1,0-3.8-0.7-5-2.1c-1.3-1.4-1.9-3.2-1.9-5.6V210.1z M39.9,210.4
		c0,1.5,0.3,2.7,0.9,3.6s1.5,1.3,2.6,1.3s2-0.4,2.6-1.3c0.6-0.9,0.9-2.2,0.9-3.8c0-1.5-0.3-2.7-1-3.6s-1.5-1.3-2.6-1.3
		c-1.1,0-1.9,0.4-2.6,1.3C40.3,207.4,39.9,208.7,39.9,210.4z"/>
	<path class="st1" d="M66.2,213l2.4-10.2h3.2l-4,14.8H65l-3.2-10.2l-3.1,10.2H56l-4-14.8h3.2l2.4,10.1l3-10.1h2.5L66.2,213z"/>
</g>
<g class="st0">
	<path class="st1" d="M81.7,205.9c-0.4-0.1-0.9-0.1-1.4-0.1c-1.5,0-2.5,0.6-3.1,1.8v10.1H74v-14.8h3.2l0.1,1.7
		c0.8-1.3,1.9-1.9,3.3-1.9c0.5,0,0.9,0.1,1.2,0.2L81.7,205.9z"/>
</g>
<g class="st0">
	<path class="st1" d="M90.1,217.9c-2.1,0-3.8-0.7-5.1-2c-1.3-1.3-2-3.1-2-5.3v-0.4c0-1.5,0.3-2.8,0.9-4c0.6-1.2,1.4-2.1,2.4-2.7
		c1-0.6,2.2-1,3.4-1c2,0,3.6,0.6,4.7,1.9c1.1,1.3,1.6,3.1,1.6,5.5v1.3h-9.7c0.1,1.2,0.5,2.2,1.2,2.9c0.7,0.7,1.6,1.1,2.7,1.1
		c1.5,0,2.8-0.6,3.7-1.8l1.8,1.7c-0.6,0.9-1.4,1.6-2.4,2.1C92.4,217.6,91.3,217.9,90.1,217.9z M89.7,205.2c-0.9,0-1.6,0.3-2.2,1
		s-0.9,1.5-1.1,2.7h6.3v-0.2c-0.1-1.1-0.4-2-0.9-2.5S90.6,205.2,89.7,205.2z"/>
	<path class="st1" d="M105.1,217.9c-2.1,0-3.8-0.7-5.1-2c-1.3-1.3-2-3.1-2-5.3v-0.4c0-1.5,0.3-2.8,0.9-4c0.6-1.2,1.4-2.1,2.4-2.7
		c1-0.6,2.2-1,3.4-1c2,0,3.6,0.6,4.7,1.9c1.1,1.3,1.6,3.1,1.6,5.5v1.3h-9.7c0.1,1.2,0.5,2.2,1.2,2.9c0.7,0.7,1.6,1.1,2.7,1.1
		c1.5,0,2.8-0.6,3.7-1.8l1.8,1.7c-0.6,0.9-1.4,1.6-2.4,2.1C107.5,217.6,106.4,217.9,105.1,217.9z M104.7,205.2c-0.9,0-1.6,0.3-2.2,1
		s-0.9,1.5-1.1,2.7h6.3v-0.2c-0.1-1.1-0.4-2-0.9-2.5S105.6,205.2,104.7,205.2z"/>
	<path class="st1" d="M117.2,217.6h-3.3v-21h3.3V217.6z"/>
	<path class="st1" d="M131.7,220.2h-12.5v-2.6h12.5V220.2z"/>
	<path class="st1" d="M134.6,217.6v-12.3h-2.3v-2.5h2.3v-1.4c0-1.6,0.5-2.9,1.4-3.8s2.2-1.3,3.8-1.3c0.6,0,1.2,0.1,1.9,0.2l-0.1,2.6
		c-0.4-0.1-0.8-0.1-1.3-0.1c-1.6,0-2.4,0.8-2.4,2.4v1.3h3v2.5h-3v12.3H134.6z"/>
	<path class="st1" d="M143.3,199c0-0.5,0.2-0.9,0.5-1.3s0.8-0.5,1.4-0.5s1.1,0.2,1.4,0.5s0.5,0.8,0.5,1.3c0,0.5-0.2,0.9-0.5,1.3
		s-0.8,0.5-1.4,0.5s-1.1-0.2-1.4-0.5S143.3,199.5,143.3,199z M146.9,217.6h-3.3v-14.8h3.3V217.6z"/>
	<path class="st1" d="M153.6,202.8l0.1,1.7c1.1-1.3,2.5-2,4.3-2c3.1,0,4.6,1.8,4.7,5.3v9.8h-3.3V208c0-0.9-0.2-1.6-0.6-2.1
		s-1.1-0.7-2-0.7c-1.3,0-2.3,0.6-3,1.8v10.5h-3.3v-14.8H153.6z"/>
	<path class="st1" d="M168.1,214.1c0.6,0,1.1,0.2,1.4,0.5s0.5,0.8,0.5,1.3c0,0.5-0.2,1-0.5,1.3s-0.8,0.5-1.4,0.5
		c-0.6,0-1.1-0.2-1.4-0.5s-0.5-0.8-0.5-1.3s0.2-1,0.5-1.3S167.5,214.1,168.1,214.1z"/>
	<path class="st1" d="M177,202.8l0.1,1.5c1-1.2,2.5-1.8,4.3-1.8c2,0,3.3,0.8,4.1,2.3c1.1-1.5,2.6-2.3,4.5-2.3c1.6,0,2.8,0.5,3.6,1.4
		s1.2,2.2,1.2,4v9.7h-3.3V208c0-0.9-0.2-1.6-0.6-2.1s-1.1-0.7-2-0.7c-0.8,0-1.4,0.2-1.9,0.6s-0.8,0.9-1,1.6l0,10.1h-3.3v-9.7
		c0-1.7-0.9-2.6-2.7-2.6c-1.3,0-2.3,0.5-2.8,1.6v10.7h-3.3v-14.8H177z"/>
	<path class="st1" d="M211.2,210.4c0,2.3-0.5,4.1-1.6,5.5s-2.4,2-4.2,2c-1.6,0-2.9-0.5-3.9-1.6v7h-3.3v-20.5h3.1l0.1,1.5
		c1-1.2,2.3-1.8,4-1.8c1.8,0,3.2,0.7,4.2,2s1.5,3.2,1.5,5.6V210.4z M207.9,210.1c0-1.5-0.3-2.6-0.9-3.5s-1.4-1.3-2.5-1.3
		c-1.4,0-2.3,0.6-2.9,1.7v6.6c0.6,1.1,1.6,1.7,3,1.7c1.1,0,1.9-0.4,2.5-1.3S207.9,211.8,207.9,210.1z"/>
	<path class="st1" d="M225,210.5h2.5v2.7H225v4.4h-3.3v-4.4h-8.6l-0.1-2l8.6-13.5h3.4V210.5z M216.5,210.5h5.2v-8.3l-0.2,0.4
		L216.5,210.5z"/>
</g>
<g>
	<g>
		<g>
			<polygon class="st2" points="55.3,173.8 55.3,18.2 147.2,18.2 178.5,46.5 178.5,173.8 			"/>
			<path class="st1" d="M146.4,20.2l30.1,27.1v124.4H57.3V20.2H146.4 M147.9,16.2H53.3v159.6h127.2V45.6L147.9,16.2L147.9,16.2
				L147.9,16.2z"/>
		</g>
		<g>
			<polygon class="st2" points="149.9,43.6 149.9,20.7 175.3,43.6 			"/>
			<path class="st1" d="M151.9,25.2l18.1,16.4h-18.1V25.2 M147.9,16.2v29.4h32.6L147.9,16.2L147.9,16.2z"/>
		</g>
	</g>
	<g>
		<path class="st2" d="M84.1,132.3V59.8h65.6v72.5L84.1,132.3L84.1,132.3z M136.4,117.3c-1.1,0-2,0.9-2,2v9.6c0,1.1,0.9,2,2,2h9.6
			c1.1,0,2-0.9,2-2v-9.6c0-1.1-0.9-2-2-2C146,117.3,136.4,117.3,136.4,117.3z M101.5,96.7c-1,0.1-1.8,1-1.8,2V129c0,1.1,0.9,2,2,2
			H132c1.1,0,2-0.9,2-2V98.7c0-1-0.8-1.9-1.8-2c1-0.1,1.8-1,1.8-2V63.1c0-1.1-0.9-2-2-2h-30.2c-1.1,0-2,0.9-2,2v31.7
			C99.8,95.8,100.5,96.6,101.5,96.7z M88,117.3c-1.1,0-2,0.9-2,2v9.6c0,1.1,0.9,2,2,2h9.6c1.1,0,2-0.9,2-2v-9.6c0-1.1-0.9-2-2-2
			C97.6,117.3,88,117.3,88,117.3z M136.4,103.3c-1.1,0-2,0.9-2,2v9.6c0,1.1,0.9,2,2,2h9.6c1.1,0,2-0.9,2-2v-9.6c0-1.1-0.9-2-2-2
			H136.4z M88,103.3c-1.1,0-2,0.9-2,2v9.6c0,1.1,0.9,2,2,2h9.6c1.1,0,2-0.9,2-2v-9.6c0-1.1-0.9-2-2-2H88z M136.4,89.2
			c-1.1,0-2,0.9-2,2v9.6c0,1.1,0.9,2,2,2h9.6c1.1,0,2-0.9,2-2v-9.6c0-1.1-0.9-2-2-2H136.4z M88,89.2c-1.1,0-2,0.9-2,2v9.6
			c0,1.1,0.9,2,2,2h9.6c1.1,0,2-0.9,2-2v-9.6c0-1.1-0.9-2-2-2H88z M136.4,75.1c-1.1,0-2,0.9-2,2v9.6c0,1.1,0.9,2,2,2h9.6
			c1.1,0,2-0.9,2-2v-9.6c0-1.1-0.9-2-2-2H136.4z M88,75.1c-1.1,0-2,0.9-2,2v9.6c0,1.1,0.9,2,2,2h9.6c1.1,0,2-0.9,2-2v-9.6
			c0-1.1-0.9-2-2-2H88z M136.4,61.1c-1.1,0-2,0.9-2,2v9.6c0,1.1,0.9,2,2,2h9.6c1.1,0,2-0.9,2-2v-9.6c0-1.1-0.9-2-2-2
			C146,61.1,136.4,61.1,136.4,61.1z M88,61.1c-1.1,0-2,0.9-2,2v9.6c0,1.1,0.9,2,2,2h9.6c1.1,0,2-0.9,2-2v-9.6c0-1.1-0.9-2-2-2
			C97.6,61.1,88,61.1,88,61.1z"/>
		<path class="st1" d="M151.7,57.8H82.1v76.5h69.6V57.8L151.7,57.8z M136.4,72.7v-9.6h9.6v9.6H136.4z M101.8,94.7V63.1H132v31.7
			H101.8z M88,72.7v-9.6h9.6v9.6H88z M136.4,86.8v-9.6h9.6v9.6H136.4z M88,86.8v-9.6h9.6v9.6H88z M136.4,100.8v-9.6h9.6v9.6H136.4z
			 M88,100.8v-9.6h9.6v9.6H88z M101.8,129V98.7H132V129C132,129,101.8,129,101.8,129z M136.4,114.9v-9.6h9.6v9.6H136.4z M88,114.9
			v-9.6h9.6v9.6H88z M136.4,129v-9.6h9.6v9.6H136.4z M88,129v-9.6h9.6v9.6H88z"/>
	</g>
</g>
</svg>
