<?xml version="1.0" encoding="UTF-8"?>
<svg id="Ebene_3" data-name="Ebene 3" xmlns="http://www.w3.org/2000/svg" viewBox="0 0 233.76 233.76">
  <defs>
    <style>
      .cls-1 {
        letter-spacing: 0em;
      }

      .cls-2 {
        fill: #fcf4e4;
      }

      .cls-3, .cls-4 {
        fill: #353230;
      }

      .cls-4 {
        font-family: Roboto-Medium, Roboto;
        font-size: 28px;
        font-weight: 500;
      }
    </style>
  </defs>
  <text class="cls-4" transform="translate(5.55 217.62)"><tspan x="0" y="0">show</tspan><tspan class="cls-1" x="66.75" y="0">r</tspan><tspan x="76.33" y="0">eel_fin.mp4</tspan></text>
  <g>
    <g>
      <g>
        <polygon class="cls-2" points="55.28 173.81 55.28 18.23 147.16 18.23 178.49 46.49 178.49 173.81 55.28 173.81"/>
        <path class="cls-3" d="m146.39,20.23l30.09,27.14v124.44H57.28V20.23h89.11m1.54-4H53.28v159.58h127.21V45.6l-32.56-29.36h0Z"/>
      </g>
      <g>
        <polygon class="cls-2" points="149.93 43.6 149.93 20.73 175.28 43.6 149.93 43.6"/>
        <path class="cls-3" d="m151.93,25.23l18.15,16.37h-18.15v-16.37m-4-8.99v29.36h32.56l-32.56-29.36h0Z"/>
      </g>
    </g>
    <g>
      <path class="cls-2" d="m84.1,132.26V59.79h65.56v72.46h-65.56Zm52.28-14.91c-1.1,0-2,.9-2,2v9.62c0,1.1.9,2,2,2h9.62c1.1,0,2-.9,2-2v-9.62c0-1.1-.9-2-2-2h-9.62Zm-34.85-20.62c-1,.11-1.77.96-1.77,1.99v30.25c0,1.1.9,2,2,2h30.25c1.1,0,2-.9,2-2v-30.25c0-1.03-.78-1.87-1.77-1.99,1-.11,1.77-.96,1.77-1.99v-31.65c0-1.1-.9-2-2-2h-30.25c-1.1,0-2,.9-2,2v31.65c0,1.03.78,1.87,1.77,1.99Zm-13.53,20.62c-1.1,0-2,.9-2,2v9.62c0,1.1.9,2,2,2h9.62c1.1,0,2-.9,2-2v-9.62c0-1.1-.9-2-2-2h-9.62Zm48.38-14.07c-1.1,0-2,.9-2,2v9.62c0,1.1.9,2,2,2h9.62c1.1,0,2-.9,2-2v-9.62c0-1.1-.9-2-2-2h-9.62Zm-48.38,0c-1.1,0-2,.9-2,2v9.62c0,1.1.9,2,2,2h9.62c1.1,0,2-.9,2-2v-9.62c0-1.1-.9-2-2-2h-9.62Zm48.38-14.07c-1.1,0-2,.9-2,2v9.62c0,1.1.9,2,2,2h9.62c1.1,0,2-.9,2-2v-9.62c0-1.1-.9-2-2-2h-9.62Zm-48.38,0c-1.1,0-2,.9-2,2v9.62c0,1.1.9,2,2,2h9.62c1.1,0,2-.9,2-2v-9.62c0-1.1-.9-2-2-2h-9.62Zm48.38-14.07c-1.1,0-2,.9-2,2v9.62c0,1.1.9,2,2,2h9.62c1.1,0,2-.9,2-2v-9.62c0-1.1-.9-2-2-2h-9.62Zm-48.38,0c-1.1,0-2,.9-2,2v9.62c0,1.1.9,2,2,2h9.62c1.1,0,2-.9,2-2v-9.62c0-1.1-.9-2-2-2h-9.62Zm48.38-14.07c-1.1,0-2,.9-2,2v9.62c0,1.1.9,2,2,2h9.62c1.1,0,2-.9,2-2v-9.62c0-1.1-.9-2-2-2h-9.62Zm-48.38,0c-1.1,0-2,.9-2,2v9.62c0,1.1.9,2,2,2h9.62c1.1,0,2-.9,2-2v-9.62c0-1.1-.9-2-2-2h-9.62Z"/>
      <path class="cls-3" d="m151.66,57.79h-69.56v76.47h69.56V57.79h0Zm-15.28,14.91v-9.62h9.62v9.62h-9.62Zm-34.62,22.04v-31.65h30.25v31.65h-30.25Zm-13.76-22.04v-9.62h9.62v9.62h-9.62Zm48.38,14.07v-9.62h9.62v9.62h-9.62Zm-48.38,0v-9.62h9.62v9.62h-9.62Zm48.38,14.07v-9.62h9.62v9.62h-9.62Zm-48.38,0v-9.62h9.62v9.62h-9.62Zm13.76,28.13v-30.25h30.25v30.25h-30.25Zm34.62-14.07v-9.62h9.62v9.62h-9.62Zm-48.38,0v-9.62h9.62v9.62h-9.62Zm48.38,14.07v-9.62h9.62v9.62h-9.62Zm-48.38,0v-9.62h9.62v9.62h-9.62Z"/>
    </g>
  </g>
</svg>