<?xml version="1.0" encoding="UTF-8"?>
<svg id="Ebene_2" data-name="Ebene 2" xmlns="http://www.w3.org/2000/svg" viewBox="0 0 211.1 150.5">
  <defs>
    <style>
      .cls-1 {
        fill: #fcf2e0;
      }

      .cls-2 {
        fill: #2e2c2b;
      }

      .cls-3 {
        fill: none;
        stroke: #2e2c2b;
        stroke-linecap: round;
        stroke-linejoin: round;
        stroke-width: 4px;
      }
    </style>
  </defs>
  <g id="Ebene_3" data-name="Ebene 3">
    <g>
      <path class="cls-2" d="m208.29,65.93c-1.26-1.26-2.86-2.16-4.66-2.56-.1-.02-.21-.05-.31-.07-.59-.11-1.19-.18-1.81-.18H45.12c-1.96,0-3.77.6-5.28,1.61h-.03S3.86,85.72,3.86,85.72l31.68,7.91v26.59c0,.99.15,1.95.43,2.85.09.3.2.59.32.88.19.46.43.9.7,1.32.39.63.84,1.21,1.36,1.73,1.73,1.73,4.13,2.81,6.78,2.81h101.27l25.02,19,34.67-20.16v-.02c.94-.51,1.79-1.17,2.5-1.96.4-.43.75-.9,1.06-1.4.26-.42.5-.86.7-1.32.12-.29.23-.58.32-.88.28-.9.43-1.86.43-2.85v-47.51h0c0-2.65-1.07-5.04-2.81-6.78Z"/>
      <g>
        <rect class="cls-1" x="2" y="85.82" width="171.56" height="62.68" rx="7.58" ry="7.58"/>
        <path class="cls-2" d="m165.98,87.82c3.08,0,5.58,2.5,5.58,5.58v47.52c0,3.08-2.5,5.58-5.58,5.58H9.58c-3.08,0-5.58-2.5-5.58-5.58v-47.52c0-3.08,2.5-5.58,5.58-5.58h156.4m0-4H9.58c-5.29,0-9.58,4.29-9.58,9.58v47.52c0,5.29,4.29,9.58,9.58,9.58h156.4c5.29,0,9.58-4.29,9.58-9.58v-47.52c0-5.29-4.29-9.58-9.58-9.58h0Z"/>
      </g>
      <g>
        <line class="cls-3" x1="143.81" y1="101.73" x2="157.87" y2="101.73"/>
        <line class="cls-3" x1="18.3" y1="117.16" x2="157.87" y2="117.16"/>
        <line class="cls-3" x1="18.3" y1="132.59" x2="157.87" y2="132.59"/>
      </g>
      <path class="cls-2" d="m208.29,2.81c-1.26-1.26-2.86-2.16-4.66-2.56-.1-.02-.21-.05-.31-.07-.59-.11-1.19-.18-1.81-.18H45.12c-1.96,0-3.77.6-5.28,1.61h-.03S3.86,22.59,3.86,22.59l31.68,7.91v26.59c0,.99.15,1.95.43,2.85.09.3.2.59.32.88.19.46.43.9.7,1.32.39.63.84,1.21,1.36,1.73,1.73,1.73,4.13,2.81,6.78,2.81h101.27l25.02,19,34.67-20.16v-.02c.94-.51,1.79-1.17,2.5-1.96.4-.43.75-.9,1.06-1.4.26-.42.5-.86.7-1.32.12-.29.23-.58.32-.88.28-.9.43-1.86.43-2.85V9.58h0c0-2.65-1.07-5.04-2.81-6.78Z"/>
      <g>
        <rect class="cls-1" x="2" y="22.7" width="171.56" height="62.68" rx="7.58" ry="7.58"/>
        <path class="cls-2" d="m165.98,24.7c3.08,0,5.58,2.5,5.58,5.58v47.52c0,3.08-2.5,5.58-5.58,5.58H9.58c-3.08,0-5.58-2.5-5.58-5.58V30.28c0-3.08,2.5-5.58,5.58-5.58h156.4m0-4H9.58c-5.29,0-9.58,4.29-9.58,9.58v47.52c0,5.29,4.29,9.58,9.58,9.58h156.4c5.29,0,9.58-4.29,9.58-9.58V30.28c0-5.29-4.29-9.58-9.58-9.58h0Z"/>
      </g>
      <g>
        <line class="cls-3" x1="143.81" y1="38.61" x2="157.87" y2="38.61"/>
        <line class="cls-3" x1="18.3" y1="54.04" x2="157.87" y2="54.04"/>
        <line class="cls-3" x1="18.3" y1="69.47" x2="157.87" y2="69.47"/>
      </g>
    </g>
  </g>
</svg>