<?xml version="1.0" encoding="utf-8"?>
<!-- Generator: Adobe Illustrator 27.2.0, SVG Export Plug-In . SVG Version: 6.00 Build 0)  -->
<svg version="1.1" id="Ebene_2_00000167380034045049500700000006573108225426848677_"
	 xmlns="http://www.w3.org/2000/svg" xmlns:xlink="http://www.w3.org/1999/xlink" x="0px" y="0px" viewBox="0 0 601 37.3"
	 style="enable-background:new 0 0 601 37.3;" xml:space="preserve">
<style type="text/css">
	.st0{fill:#FCF2E0;stroke:#2E2C2B;stroke-width:2;stroke-linecap:round;stroke-linejoin:round;}
	.st1{fill:#2E2C2B;}
	.st2{enable-background:new    ;}
	.st3{fill:#FAD2D1;}
	.st4{fill:none;stroke:#FCD1B4;stroke-width:2;stroke-miterlimit:10;}
</style>
<g id="Ebene_3">
	<g>
		<g>
			<path class="st0" d="M60.6,1h137.6c2.2,0,4,1.8,4,4v27.3c0,2.2-1.8,4-4,4H60.6c-2.2,0-4-1.8-4-4V5C56.6,2.8,58.4,1,60.6,1z"/>
			<path class="st1" d="M189.2,22l-4.1-4.1c-0.4-0.4-0.1-1.1,0.4-1.1h8.3c0.6,0,0.8,0.7,0.4,1.1L190,22
				C189.8,22.3,189.4,22.3,189.2,22L189.2,22z"/>
			<g class="st2">
				<path class="st1" d="M75,15.5c-0.5,0-0.9-0.3-1.1-0.8c-0.1-0.2-0.2-0.4-0.3-0.5c-0.1,0-0.3-0.1-0.7-0.1c-0.7,0-1.5,0.5-2.4,1.6
					c-1.3,1.5-1.9,3-1.9,4.3c0,0.6,0.2,1.1,0.6,1.6c0.4,0.4,0.9,0.7,1.5,0.7c0.6,0,1.1-0.1,1.7-0.4c0.2-0.1,0.6-0.4,1.3-0.8
					c0.4-0.3,0.8-0.4,1-0.4c0.3,0,0.6,0.1,0.9,0.4c0.2,0.2,0.3,0.5,0.3,0.8c0,0.3-0.1,0.6-0.4,0.9c-1.5,1.3-3.1,1.9-4.7,1.9
					c-1.3,0-2.3-0.5-3.2-1.4c-0.8-0.9-1.2-1.9-1.2-3.1c0-1.9,0.8-3.8,2.4-5.7c1.4-1.6,2.8-2.5,4.3-2.5c0.2,0,0.5,0,0.7,0
					c0.2,0,0.4,0,0.5,0.1c0.2-0.2,0.5-0.4,0.9-0.4c0.6,0,0.9,0.3,1.1,1c0.1,0.5,0.1,1,0.1,1.6c0,0.3-0.1,0.5-0.2,0.8
					C75.7,15.4,75.4,15.5,75,15.5z"/>
				<path class="st1" d="M80.6,24.9c-1,0-1.9-0.4-2.7-1.1c-0.8-0.8-1.2-1.8-1.3-3.1c0-1.2,0.3-2.3,1-3.3c0.8-1.1,2-1.7,3.5-1.7
					c1.1,0,2,0.4,2.7,1.3c0.6,0.8,0.9,1.8,0.9,3c0,1.3-0.3,2.4-1,3.3C83,24.4,81.9,24.9,80.6,24.9z M81.1,18c-0.7,0-1.2,0.3-1.6,0.9
					c-0.3,0.5-0.5,1.1-0.5,1.9c0,0.7,0.2,1.2,0.6,1.5c0.3,0.3,0.7,0.4,1.1,0.4c0.5,0,0.9-0.2,1.3-0.5c0.4-0.4,0.6-0.9,0.7-1.6
					C82.6,18.9,82.1,18,81.1,18z"/>
				<path class="st1" d="M88.3,17c0.8-1,1.6-1.5,2.4-1.5c0.9,0,1.5,0.3,1.9,1c0.3-0.3,0.7-0.5,1.1-0.7s0.9-0.2,1.3-0.2
					c1.1,0,1.8,0.5,2.2,1.6c0.1,0.2,0.2,1,0.4,2.3c0.2,0.9,0.4,2.4,0.6,4.5c0,0.3-0.1,0.6-0.3,0.8c-0.2,0.2-0.5,0.3-0.8,0.3
					c-0.6,0-1-0.3-1.1-1c-0.1-0.6-0.2-1.4-0.3-2.4c-0.1-1.1-0.2-2-0.3-2.4c-0.2-1-0.3-1.5-0.6-1.5c-0.1,0-0.4,0.1-0.9,0.4
					s-0.8,0.5-1,0.7c0,0.6,0.1,1.5,0.2,2.7c0.2,1.2,0.2,2.1,0.2,2.7c0,0.3-0.1,0.6-0.3,0.8s-0.5,0.3-0.8,0.3s-0.6-0.1-0.8-0.3
					s-0.3-0.5-0.3-0.8c0-0.6-0.1-1.6-0.2-2.8c-0.1-1.2-0.2-2.2-0.2-2.8c0-0.4,0-0.6-0.1-0.9c-0.6,0.4-1.3,1-1.9,1.9
					c0,0-0.1,0.1-0.1,0.2c0,1.1,0,2,0,2.6c0,0.2,0,0.4,0,0.6c0,0.3,0,0.5,0,0.6c0,0.3-0.1,0.5-0.4,0.7c-0.2,0.2-0.5,0.2-0.8,0.2
					c-0.5,0-0.8-0.2-1-0.6c-0.1-0.3-0.2-0.7-0.2-1.3v-3.1c0-0.3,0-0.7,0-1.2c0-0.5,0-0.9,0-1.2c0-0.5,0.1-0.9,0.3-1.3
					c0.2-0.5,0.5-0.8,0.9-0.8c0.3,0,0.6,0.1,0.8,0.4s0.4,0.5,0.4,0.8C88.4,16.2,88.4,16.5,88.3,17z"/>
				<path class="st1" d="M102.1,20.5c0,0.3,0,0.8,0,1.5c0,0.7,0,1.2,0,1.5c0,0.3-0.1,0.6-0.3,0.8s-0.5,0.3-0.8,0.3
					c-0.3,0-0.6-0.1-0.8-0.3s-0.3-0.5-0.3-0.8c0-0.3,0-0.8,0-1.5s0-1.2,0-1.5c0-0.5,0-1.1,0.1-1.9s0.1-1.4,0.1-1.9
					c0-0.3,0.1-0.6,0.3-0.8s0.5-0.3,0.8-0.3c0.3,0,0.6,0.1,0.8,0.3c0.2,0.2,0.3,0.5,0.3,0.8c0,0.5,0,1.1-0.1,1.9
					S102.1,20,102.1,20.5z M101.4,14.4c-0.4,0-0.7-0.1-0.9-0.4s-0.4-0.5-0.4-0.9c0-0.3,0.1-0.6,0.4-0.9c0.3-0.2,0.6-0.4,0.9-0.4
					s0.7,0.1,0.9,0.4c0.3,0.2,0.4,0.5,0.4,0.9c0,0.3-0.1,0.6-0.4,0.9S101.7,14.4,101.4,14.4z"/>
				<path class="st1" d="M108.1,25c-1.2,0-2.3-0.3-3.1-1c-0.9-0.7-1.3-1.7-1.3-2.9c0-1.1,0.4-2.3,1.2-3.4c0.9-1.3,1.9-2,3.1-2
					c0.6,0,1.3,0.2,2,0.5c0.9,0.4,1.4,0.8,1.4,1.3c0,0.3-0.1,0.5-0.3,0.7c-0.2,0.2-0.5,0.3-0.8,0.3c-0.2,0-0.5-0.1-0.9-0.4
					c-0.3-0.3-0.8-0.4-1.5-0.4c-0.4,0-0.9,0.4-1.4,1.3c-0.5,0.8-0.7,1.5-0.7,2.1c0,0.6,0.2,1,0.6,1.4c0.4,0.3,0.9,0.5,1.6,0.5
					c0.4,0,0.8-0.1,1.4-0.4c0.5-0.3,0.9-0.4,1-0.4c0.3,0,0.6,0.1,0.8,0.3c0.2,0.2,0.3,0.5,0.3,0.7c0,0.4-0.5,0.9-1.4,1.3
					C109.3,24.8,108.6,25,108.1,25z"/>
				<path class="st1" d="M124.4,24.9c-1.4,0-2.5-0.3-3.3-0.9c-0.7-0.5-1-1.1-1-1.8c0-0.4,0.1-0.6,0.3-0.9c0.2-0.2,0.5-0.3,0.9-0.3
					c0.5,0,0.9,0.3,1.1,0.8c0.3,0.7,1,1,2.2,1c1,0,1.9-0.2,2.8-0.6c0.9-0.4,1.4-0.9,1.4-1.4c0-0.7-0.3-1.2-0.9-1.4
					c-0.4-0.2-1.2-0.3-2.5-0.3c-1,0-1.8-0.2-2.6-0.5c-1-0.5-1.5-1.1-1.5-2c0-1.1,0.6-2.1,1.7-3c1.1-0.9,2.4-1.4,3.8-1.4
					c0.5,0,1.2,0.1,2,0.4c1,0.3,1.5,0.7,1.5,1.1c0,0.3-0.1,0.5-0.3,0.8c-0.2,0.3-0.5,0.4-0.9,0.4c-0.3,0-0.7-0.1-1.2-0.2
					c-0.5-0.1-0.9-0.2-1.2-0.2c-0.7,0-1.4,0.2-2,0.5c-0.7,0.3-1,0.7-1,1.1c0,0.2,0.1,0.4,0.3,0.5c0.2,0.1,0.5,0.2,0.9,0.3
					c0.7,0,1.4,0.1,2.1,0.1c1.2,0.1,2.2,0.4,2.9,1c0.8,0.7,1.2,1.6,1.2,2.8c0,1.4-0.8,2.5-2.5,3.3C127.4,24.7,126,24.9,124.4,24.9z"
					/>
				<path class="st1" d="M139.5,24.9c-0.3,0-0.7-0.2-1.2-0.7c-0.5,0.2-1,0.4-1.4,0.6c-0.4,0.1-0.7,0.2-1,0.2c-1.3,0-2.3-0.4-3-1.1
					c-0.7-0.7-1-1.8-1-3.2c0-1.3,0.5-2.5,1.5-3.4c1-1,2.2-1.4,3.6-1.4c0.5,0,1.1,0.1,1.8,0.4c0.8,0.4,1.3,0.8,1.3,1.2
					c0,0.2-0.1,0.4-0.2,0.5c-0.1,0.2-0.1,0.5-0.1,0.8c0,0.3,0,0.7,0,1.2c0,1.1,0.1,1.8,0.2,2.3c0,0,0.1,0.3,0.4,0.9
					c0.2,0.5,0.3,0.7,0.3,0.8c0,0.3-0.1,0.5-0.3,0.7S139.8,24.9,139.5,24.9z M137.5,19.3c0-0.2,0-0.4,0-0.6c0-0.2,0.1-0.5,0.1-0.8
					c-0.1-0.1-0.2-0.1-0.3-0.1c-0.1,0-0.2,0-0.2,0c-0.8,0-1.4,0.3-2,0.9c-0.6,0.6-0.9,1.3-0.9,2.1c0,0.7,0.1,1.3,0.4,1.7
					c0.3,0.4,0.7,0.6,1.2,0.6c0.3,0,0.7-0.1,1-0.2c0.3-0.1,0.6-0.3,0.9-0.5C137.5,20.9,137.5,19.9,137.5,19.3z"/>
				<path class="st1" d="M148.4,25c-0.7,0-1.1-0.3-1.1-1c-0.1-0.6-0.2-1.1-0.2-1.7c-0.1-0.6-0.1-1.2-0.1-1.7c0-0.1,0-0.4,0-0.7
					c0-0.4,0-0.6,0-0.7c0,0,0-0.1,0-0.3s0-0.3,0-0.4c0-0.5-0.1-0.7-0.3-0.7c-0.5,0-0.9,0.3-1.4,0.9s-0.8,1.4-1.1,2.3
					c0,0.2,0,0.4-0.1,0.8c0,0.3,0,0.5,0,0.8c0,0.2,0,0.4-0.1,0.7c0,0.3-0.1,0.6-0.1,0.7c0,0.3-0.1,0.6-0.3,0.8
					c-0.2,0.2-0.5,0.3-0.8,0.3s-0.6-0.1-0.8-0.3c-0.2-0.2-0.3-0.5-0.3-0.8c0-0.2,0-0.4-0.1-0.7c0-0.3-0.1-0.6-0.1-0.7
					c0-0.5,0-1.3,0.1-2.3c0.1-1,0.1-1.7,0.1-2.3c0-0.2,0-0.4,0-0.8s0-0.6,0-0.8c0-0.3,0.1-0.6,0.3-0.8s0.5-0.3,0.8-0.3
					c0.7,0,1.1,0.4,1.2,1.3l0,0.1c0.8-0.8,1.7-1.2,2.6-1.2c1.1,0,1.8,0.4,2.2,1.3c0.3,0.6,0.4,1.5,0.4,2.6v0.6c0,0.3,0,0.4,0,0.5
					c0,0.4,0.1,1,0.2,1.7c0.1,0.7,0.2,1.2,0.2,1.7c0,0.3-0.1,0.6-0.3,0.8C149,24.9,148.7,25,148.4,25z"/>
				<path class="st1" d="M156.7,18.3c-0.6,0-0.9-0.2-1-0.7c-0.2,0-0.5-0.1-0.7-0.1c-1.3,0-2,0.2-2,0.6c0,0.2,0.4,0.5,1.2,0.9
					c1.1,0.5,1.8,0.9,2.2,1.2c0.8,0.6,1.2,1.2,1.2,2c0,1-0.4,1.7-1.3,2.2c-0.7,0.4-1.6,0.6-2.6,0.6c-0.7,0-1.4-0.1-2-0.3
					c-0.8-0.3-1.3-0.8-1.3-1.4c0-0.6,0.3-0.8,1-0.8c0.3,0,0.6,0.1,1.1,0.2c0.5,0.2,0.9,0.2,1.1,0.2c1.1,0,1.7-0.2,1.7-0.7
					c0-0.3-0.4-0.6-1.2-0.9c-1.1-0.5-1.9-0.9-2.2-1.1c-0.8-0.6-1.2-1.2-1.2-2c0-1.1,0.6-1.9,1.8-2.3c0.7-0.2,1.8-0.3,3.2-0.3
					c0.6,0,1,0.1,1.2,0.2c0.4,0.2,0.6,0.6,0.6,1.1C157.5,17.8,157.2,18.3,156.7,18.3z"/>
			</g>
		</g>
		<g>
			<path class="st0" d="M212.1,1h51.4c2.2,0,4,1.8,4,4v27.3c0,2.2-1.8,4-4,4h-51.4c-2.2,0-4-1.8-4-4V5C208.1,2.8,209.9,1,212.1,1z"
				/>
			<path class="st1" d="M250.4,22l-4.1-4.1c-0.4-0.4-0.1-1.1,0.4-1.1h8.3c0.6,0,0.8,0.7,0.4,1.1l-4.1,4.1
				C251.1,22.3,250.7,22.3,250.4,22L250.4,22z"/>
			<path class="st1" d="M595.8,22l-4.1-4.1c-0.4-0.4-0.1-1.1,0.4-1.1h8.3c0.6,0,0.8,0.7,0.4,1.1l-4.1,4.1
				C596.4,22.3,596,22.3,595.8,22L595.8,22z"/>
			<g class="st2">
				<path class="st1" d="M223.6,24.4h-2v-9.8l-3,1V14l4.7-1.7h0.3V24.4z"/>
				<path class="st1" d="M236,24.4h-8.2V23l4.1-4.4c0.6-0.7,1-1.2,1.2-1.6c0.2-0.4,0.4-0.9,0.4-1.3c0-0.6-0.2-1-0.5-1.4
					c-0.3-0.4-0.8-0.5-1.3-0.5c-0.7,0-1.2,0.2-1.5,0.6c-0.4,0.4-0.5,0.9-0.5,1.6h-2c0-0.7,0.2-1.4,0.5-2c0.3-0.6,0.8-1.1,1.4-1.4
					c0.6-0.3,1.3-0.5,2.2-0.5c1.2,0,2.1,0.3,2.8,0.9c0.7,0.6,1,1.4,1,2.5c0,0.6-0.2,1.2-0.5,1.9c-0.3,0.7-0.9,1.4-1.7,2.3l-3,3.2
					h5.6V24.4z"/>
			</g>
		</g>
		<g class="st2">
			<path class="st1" d="M308.6,9.8v0.7c-0.7,0.1-1.1,0.2-1.4,0.3s-0.4,0.4-0.4,0.9c0,0.1,0,0.3,0,0.4s0.1,0.3,0.1,0.5l3.4,9.7h0.1
				l3.2-8.2c0,0-0.1-0.5-0.4-1.2c-0.3-0.8-0.5-1.3-0.6-1.4c-0.2-0.3-0.4-0.6-0.7-0.7s-0.7-0.2-1.4-0.3V9.8h8.7v0.7
				c-0.8,0.1-1.3,0.2-1.6,0.3c-0.3,0.1-0.4,0.4-0.4,0.7c0,0.1,0,0.3,0.1,0.5c0.1,0.3,0.2,0.6,0.3,1.1l3.2,9h-0.1l3-9.2
				c0.1-0.2,0.1-0.3,0.1-0.5c0-0.2,0.1-0.4,0.1-0.6c0-0.5-0.2-0.9-0.6-1c-0.2-0.1-0.7-0.2-1.3-0.2V9.8h5.1v0.7
				c-0.4,0.1-0.8,0.2-1,0.3c-0.4,0.3-0.7,0.8-1,1.5l-5.6,16.8H319L314.3,16h-0.2l-5.1,13.1h-0.8l-5.9-16.8c-0.3-0.7-0.5-1.2-0.8-1.4
				c-0.3-0.2-0.6-0.3-1.2-0.4V9.8H308.6z"/>
		</g>
		<g class="st2">
			<path class="st1" d="M348.2,27.9c0.9,0,1.4-0.1,1.8-0.2c0.5-0.3,0.9-0.8,1.1-1.7l4.1-14.9c-1.4,0-2.6,0.3-3.5,1
				c-1,0.7-1.8,1.7-2.4,3l-0.7-0.2l1.1-4.8h15.3l-1,5.3l-0.7-0.1c0-1.8-0.6-3-1.5-3.7c-0.5-0.4-1.3-0.6-2.3-0.6l-3.9,14.2l-0.2,1
				c0,0.1,0,0.2-0.1,0.3c0,0.1,0,0.2,0,0.2c0,0.5,0.1,0.8,0.4,0.9c0.3,0.1,0.9,0.2,1.9,0.3v0.7h-9.2V27.9z"/>
		</g>
		<g class="st2">
			<path class="st1" d="M389.6,24.2c0.7,0,1.1-0.1,1.4-0.3c0.4-0.2,0.6-0.7,0.6-1.3V11.5c0-0.7-0.2-1.1-0.6-1.3
				c-0.3-0.1-0.7-0.2-1.4-0.3V9.3h13V14H402c-0.3-1.4-0.8-2.4-1.4-3c-0.7-0.6-1.9-0.9-3.7-0.9c-0.7,0-1.1,0.1-1.3,0.2
				c-0.2,0.2-0.3,0.4-0.3,0.9v5.3c1.2,0,2.1-0.2,2.5-0.8c0.4-0.5,0.8-1.4,1-2.6h0.6v7.7h-0.6c-0.2-1.2-0.5-2.1-0.9-2.7
				s-1.3-0.8-2.6-0.8v5.3c0,0.7,0.2,1.2,0.6,1.3c0.4,0.2,1,0.3,1.9,0.3v0.6h-8.2V24.2z"/>
		</g>
		<g class="st2">
			<path class="st1" d="M565.1,23.3c0.6,0,1-0.3,1.3-0.7c0.2-0.3,0.5-0.9,0.9-1.9l5.1-12.5h0.6l5.1,12c0.6,1.3,1,2.2,1.3,2.6
				s0.7,0.6,1.2,0.6v0.6h-7.4v-0.6c0.7,0,1.2-0.1,1.5-0.2c0.2-0.1,0.4-0.3,0.4-0.7c0-0.2-0.1-0.5-0.2-0.8c-0.1-0.2-0.2-0.5-0.3-0.8
				l-0.6-1.4h-5.1c-0.3,0.9-0.6,1.5-0.6,1.8c-0.2,0.6-0.3,1-0.3,1.3c0,0.3,0.2,0.6,0.7,0.7c0.3,0.1,0.7,0.1,1.2,0.1v0.6h-4.7V23.3z
				 M573.7,18.5l-2.2-5.3h-0.2l-2.1,5.3H573.7z"/>
		</g>
		<path class="st1" d="M402.6,28.7h-12.7c-0.5,0-1-0.5-1-1s0.5-1,1-1h12.7c0.5,0,1,0.5,1,1S403.1,28.7,402.6,28.7z"/>
		<path class="st3" d="M581,28.7h-15.7c-0.5,0-1-0.5-1-1s0.5-1,1-1H581c0.5,0,1,0.5,1,1S581.6,28.7,581,28.7z"/>
		<path class="st1" d="M473.6,9.2h-27c-0.5,0-1-0.4-1-1s0.5-1,1-1h27c0.5,0,1,0.4,1,1S474.2,9.2,473.6,9.2z"/>
		<path class="st1" d="M466.2,15.9h-19.7c-0.5,0-1-0.4-1-1s0.5-1,1-1h19.7c0.5,0,1,0.4,1,1S466.8,15.9,466.2,15.9z"/>
		<path class="st1" d="M473.6,22.6h-27c-0.5,0-1-0.5-1-1s0.5-1,1-1h27c0.5,0,1,0.5,1,1S474.2,22.6,473.6,22.6z"/>
		<path class="st1" d="M466.2,29.4h-19.7c-0.5,0-1-0.5-1-1s0.5-1,1-1h19.7c0.5,0,1,0.5,1,1S466.8,29.4,466.2,29.4z"/>
		<path class="st1" d="M522.4,9.2h-27c-0.5,0-1-0.4-1-1s0.5-1,1-1h27c0.5,0,1,0.4,1,1S523,9.2,522.4,9.2z"/>
		<path class="st1" d="M518.7,15.9h-19.7c-0.5,0-1-0.4-1-1s0.5-1,1-1h19.7c0.5,0,1,0.4,1,1S519.3,15.9,518.7,15.9z"/>
		<path class="st1" d="M522.4,22.6h-27c-0.5,0-1-0.5-1-1s0.5-1,1-1h27c0.5,0,1,0.5,1,1S523,22.6,522.4,22.6z"/>
		<path class="st1" d="M518.7,29.4h-19.7c-0.5,0-1-0.5-1-1s0.5-1,1-1h19.7c0.5,0,1,0.5,1,1S519.3,29.4,518.7,29.4z"/>
		<g>
			<path class="st1" d="M24.5,8.6l-1.8-2.2c-0.2-0.3-0.6-0.2-0.6-0.2H0.8C0.4,6.1,0,6.5,0,6.9v23.5c0,0.4,0.4,0.8,0.8,0.8h23.5
				c0.4,0,0.8-0.4,0.8-0.8V9.9C25.1,9.8,25.1,9.4,24.5,8.6z M4.2,7.8h16.1v10.5H4.2C4.2,18.2,4.2,7.8,4.2,7.8z M13.2,27.8
				c-2.1,0-3.9-1.7-3.9-3.9S11,20,13.2,20s3.9,1.7,3.9,3.9S15.3,27.8,13.2,27.8z"/>
			<path class="st1" d="M18.1,16.6H14V9.7h4.1V16.6z"/>
			<path class="st1" d="M13.2,22c-1,0-1.8,0.8-1.8,1.8s0.8,1.8,1.8,1.8s1.8-0.8,1.8-1.8S14.2,22,13.2,22z"/>
		</g>
		<line class="st4" x1="280.5" y1="1" x2="280.5" y2="36.3"/>
		<line class="st4" x1="425.7" y1="1" x2="425.7" y2="36.3"/>
		<line class="st4" x1="543.6" y1="1" x2="543.6" y2="36.3"/>
	</g>
</g>
</svg>
