<?xml version="1.0" encoding="UTF-8"?>
<svg id="Ebene_2" data-name="Ebene 2" xmlns="http://www.w3.org/2000/svg" viewBox="0 0 600.95 37.26">
  <defs>
    <style>
      .cls-1 {
        font-family: ComicSansMS-Bold, 'Comic Sans MS';
      }

      .cls-1, .cls-2, .cls-3, .cls-4, .cls-5, .cls-6, .cls-7 {
        fill: #2e2c2b;
      }

      .cls-1, .cls-3, .cls-4, .cls-5, .cls-7 {
        font-weight: 700;
      }

      .cls-1, .cls-6 {
        font-size: 17.11px;
      }

      .cls-8 {
        fill: #fad2d1;
      }

      .cls-9 {
        fill: #fcf2e0;
        stroke: #2e2c2b;
        stroke-linecap: round;
        stroke-linejoin: round;
      }

      .cls-9, .cls-10 {
        stroke-width: 2px;
      }

      .cls-10 {
        fill: none;
        stroke: #fcd1b4;
        stroke-miterlimit: 10;
      }

      .cls-3 {
        letter-spacing: -.02em;
      }

      .cls-3, .cls-4, .cls-5 {
        font-family: TimesNewRomanPS-BoldMT, 'Times New Roman';
      }

      .cls-3, .cls-7 {
        font-size: 27.83px;
      }

      .cls-4 {
        letter-spacing: -.06em;
      }

      .cls-4, .cls-5 {
        font-size: 39.43px;
      }

      .cls-5 {
        letter-spacing: -.04em;
      }

      .cls-6 {
        font-family: Roboto-Medium, Roboto;
        font-weight: 500;
      }

      .cls-7 {
        font-family: TimesNewRomanPS-BoldItalicMT, 'Times New Roman';
        font-style: italic;
      }
    </style>
  </defs>
  <g id="Ebene_3" data-name="Ebene 3">
    <g>
      <g>
        <rect class="cls-9" x="56.64" y="1" width="145.63" height="35.26" rx="4" ry="4"/>
        <path class="cls-2" d="m189.17,22.05l-4.13-4.13c-.4-.4-.12-1.07.44-1.07h8.26c.56,0,.84.68.44,1.07l-4.13,4.13c-.24.24-.64.24-.89,0Z"/>
        <text class="cls-1" transform="translate(65.73 24.44)"><tspan x="0" y="0">Comic Sans </tspan></text>
      </g>
      <g>
        <rect class="cls-9" x="208.06" y="1" width="59.38" height="35.26" rx="4" ry="4"/>
        <path class="cls-2" d="m250.43,22.05l-4.13-4.13c-.4-.4-.12-1.07.44-1.07h8.26c.56,0,.84.68.44,1.07l-4.13,4.13c-.24.24-.64.24-.89,0Z"/>
        <path class="cls-2" d="m595.75,22.05l-4.13-4.13c-.4-.4-.12-1.07.44-1.07h8.26c.56,0,.84.68.44,1.07l-4.13,4.13c-.24.24-.64.24-.89,0Z"/>
        <text class="cls-6" transform="translate(217.15 24.44)"><tspan x="0" y="0">12</tspan></text>
      </g>
      <text class="cls-3" transform="translate(299.95 28.65)"><tspan x="0" y="0">W</tspan></text>
      <text class="cls-7" transform="translate(347.12 28.65)"><tspan x="0" y="0">T</tspan></text>
      <text class="cls-5" transform="translate(389.22 24.8) scale(.58)"><tspan x="0" y="0">F</tspan></text>
      <text class="cls-4" transform="translate(564.68 23.91) scale(.58)"><tspan x="0" y="0">A</tspan></text>
      <path class="cls-2" d="m402.57,28.74h-12.66c-.55,0-1-.45-1-1s.45-1,1-1h12.66c.55,0,1,.45,1,1s-.45,1-1,1Z"/>
      <path class="cls-8" d="m581.02,28.74h-15.66c-.55,0-1-.45-1-1s.45-1,1-1h15.66c.55,0,1,.45,1,1s-.45,1-1,1Z"/>
      <path class="cls-2" d="m473.64,9.21h-27.05c-.55,0-1-.45-1-1s.45-1,1-1h27.05c.55,0,1,.45,1,1s-.45,1-1,1Z"/>
      <path class="cls-2" d="m466.25,15.93h-19.67c-.55,0-1-.45-1-1s.45-1,1-1h19.67c.55,0,1,.45,1,1s-.45,1-1,1Z"/>
      <path class="cls-2" d="m473.64,22.65h-27.05c-.55,0-1-.45-1-1s.45-1,1-1h27.05c.55,0,1,.45,1,1s-.45,1-1,1Z"/>
      <path class="cls-2" d="m466.25,29.37h-19.67c-.55,0-1-.45-1-1s.45-1,1-1h19.67c.55,0,1,.45,1,1s-.45,1-1,1Z"/>
      <path class="cls-2" d="m522.44,9.21h-27.05c-.55,0-1-.45-1-1s.45-1,1-1h27.05c.55,0,1,.45,1,1s-.45,1-1,1Z"/>
      <path class="cls-2" d="m518.74,15.93h-19.67c-.55,0-1-.45-1-1s.45-1,1-1h19.67c.55,0,1,.45,1,1s-.45,1-1,1Z"/>
      <path class="cls-2" d="m522.44,22.65h-27.05c-.55,0-1-.45-1-1s.45-1,1-1h27.05c.55,0,1,.45,1,1s-.45,1-1,1Z"/>
      <path class="cls-2" d="m518.74,29.37h-19.67c-.55,0-1-.45-1-1s.45-1,1-1h19.67c.55,0,1,.45,1,1s-.45,1-1,1Z"/>
      <g>
        <path class="cls-2" d="m24.53,8.61l-1.79-2.25c-.23-.29-.58-.24-.58-.24H.8c-.44,0-.8.36-.8.8v23.47c0,.44.36.8.8.8h23.47c.44,0,.8-.36.8-.8V9.91c0-.07,0-.55-.54-1.3Zm-20.32-.85h16.11v10.46H4.21s0-10.46,0-10.46Zm8.95,20c-2.14,0-3.89-1.74-3.89-3.88s1.74-3.88,3.89-3.88,3.88,1.74,3.88,3.88-1.74,3.88-3.88,3.88Z"/>
        <path class="cls-2" d="m18.08,16.57h-4.12v-6.89h4.12v6.89Z"/>
        <path class="cls-2" d="m13.19,22.03c-1.02,0-1.84.82-1.84,1.84s.82,1.84,1.84,1.84,1.84-.82,1.84-1.84c0-1.02-.82-1.84-1.84-1.84Z"/>
      </g>
      <line class="cls-10" x1="280.51" y1="1" x2="280.51" y2="36.26"/>
      <line class="cls-10" x1="425.69" y1="1" x2="425.69" y2="36.26"/>
      <line class="cls-10" x1="543.56" y1="1" x2="543.56" y2="36.26"/>
    </g>
  </g>
</svg>