<?xml version="1.0" encoding="UTF-8"?>
<svg id="Ebene_2" data-name="Ebene 2" xmlns="http://www.w3.org/2000/svg" viewBox="0 0 106.82 87.62">
  <defs>
    <style>
      .cls-1 {
        fill: none;
        stroke: #353230;
        stroke-linecap: round;
        stroke-linejoin: round;
        stroke-width: 6px;
      }

      .cls-2 {
        fill: #353230;
      }
    </style>
  </defs>
  <g id="Ebene_3" data-name="Ebene 3">
    <g>
      <path class="cls-2" d="m53.41,6c.52,0,1.81.14,2.65,1.45l44.25,69.33c.9,1.42.38,2.71.11,3.2-.27.49-1.08,1.63-2.76,1.63H9.16c-1.68,0-2.49-1.14-2.76-1.63-.27-.49-.8-1.79.11-3.2L50.76,7.45c.84-1.31,2.13-1.45,2.65-1.45m0-6c-2.95,0-5.91,1.41-7.71,4.22L1.45,73.55c-3.88,6.09.49,14.06,7.71,14.06h88.5c7.22,0,11.59-7.98,7.71-14.06L61.12,4.22c-1.8-2.82-4.75-4.22-7.71-4.22h0Z"/>
      <g>
        <line class="cls-1" x1="53.41" y1="20.15" x2="53.41" y2="55.84"/>
        <line class="cls-1" x1="53.41" y1="66.76" x2="53.41" y2="72.01"/>
      </g>
    </g>
  </g>
</svg>