<?xml version="1.0" encoding="UTF-8"?>
<svg id="Layer_1" xmlns="http://www.w3.org/2000/svg" xmlns:xlink="http://www.w3.org/1999/xlink" version="1.1" viewBox="0 0 877.9 503.6">
  <!-- Generator: Adobe Illustrator 30.5.1, SVG Export Plug-In . SVG Version: 2.1.4 Build 3)  -->
  <defs>
    <style>
      .st0, .st1 {
        fill: none;
      }

      .st1 {
        stroke: #fff;
        stroke-miterlimit: 10;
        stroke-width: 13px;
      }

      .st2 {
        fill: #fff;
      }

      .st3 {
        clip-path: url(#clippath);
      }
    </style>
    <clipPath id="clippath">
      <path class="st0" d="M438.8,6.5h0C200.6,6.5,63.3,154.2,7.5,251.8c55.8,97.6,193.1,245.4,431.3,245.3,238.2,0,375.5-147.7,431.3-245.3,0,0-193.1-245.4-431.3-245.3h0Z"/>
    </clipPath>
  </defs>
  <g class="st3">
    <g>
      <circle class="st1" cx="438.8" cy="251.9" r="245.3"/>
      <circle class="st2" cx="438.8" cy="251.9" r="148.4"/>
    </g>
  </g>
  <path class="st1" d="M438.8,6.5h0C200.6,6.5,63.3,154.2,7.5,251.8c55.8,97.6,193.1,245.4,431.3,245.3h0c238.2,0,375.5-147.7,431.3-245.3,0,0-193.1-245.4-431.3-245.3h0Z"/>
</svg>