<svg width="490" height="300" viewBox="0 0 490 300" fill="none" xmlns="http://www.w3.org/2000/svg">
<g clip-path="url(#clip0_171_1515)">
<path d="M110.49 187.726L109.559 187.104C108 186.079 71.792 161.895 71.792 136.517C71.792 124.753 78.3292 115.661 88.4567 113.493C89.8361 113.192 91.2443 113.04 92.6568 113.039C96.1399 113.134 99.5556 114.014 102.645 115.612C105.735 117.211 108.418 119.486 110.49 122.266C110.526 122.366 110.592 122.452 110.681 122.513C110.769 122.573 110.874 122.604 110.981 122.602C111.085 122.601 111.187 122.571 111.274 122.514C111.361 122.457 111.43 122.377 111.472 122.283C113.55 119.483 116.247 117.193 119.356 115.591C122.466 113.988 125.904 113.115 129.407 113.039C130.82 113.04 132.228 113.192 133.607 113.493C141.923 115.274 147.918 121.694 149.696 130.736H144.243C143.674 127.796 142.247 125.086 140.14 122.944C138.032 120.801 135.336 119.321 132.388 118.686C131.227 118.462 130.048 118.349 128.865 118.35C122.311 118.35 116.621 122.148 110.964 130.316C105.308 122.148 99.6004 118.35 93.0632 118.35C91.8808 118.349 90.7011 118.462 89.5406 118.686C83.7994 119.778 77.0929 125.089 77.0929 136.517C77.0929 144.921 81.8518 154.332 91.2342 164.634C97.0681 170.944 103.518 176.663 110.49 181.709V187.726Z" fill="white"/>
<path d="M111.709 139.575C111.546 139.578 111.388 139.632 111.258 139.728C111.127 139.825 111.03 139.959 110.981 140.113C110.981 140.281 110.862 140.567 110.778 140.92C110.693 141.273 110.778 141.239 110.693 141.306C110.371 142.281 108.711 147.34 107.831 150.062L106.307 154.684C106.27 154.8 106.262 154.923 106.283 155.043C106.303 155.162 106.352 155.276 106.425 155.373C106.496 155.467 106.588 155.543 106.694 155.596C106.8 155.648 106.916 155.676 107.035 155.676H111.438C111.636 155.676 111.825 155.598 111.965 155.459C112.105 155.32 112.183 155.132 112.183 154.936V151.205C112.183 149.407 112.268 144.399 112.285 141.575C112.285 141.575 112.285 141.374 112.285 141.222C112.33 140.933 112.359 140.641 112.369 140.348C112.372 140.167 112.308 139.99 112.19 139.851C112.072 139.712 111.907 139.62 111.726 139.592H111.607M116.688 162.533H112.099V159.524C112.103 159.422 112.085 159.32 112.047 159.224C112.009 159.129 111.952 159.042 111.878 158.97C111.733 158.83 111.539 158.751 111.336 158.751H105.544C105.383 158.75 105.226 158.8 105.095 158.894C104.964 158.988 104.866 159.12 104.816 159.272L103.749 162.533H98.8887L108.288 139.004H115.367L116.688 162.533Z" fill="white"/>
<path d="M142.245 162.516H135.301L135.47 148.735C135.47 146.6 135.623 143.542 135.69 142.012V141.693C135.684 141.615 135.684 141.536 135.69 141.458C135.745 141.107 135.774 140.753 135.775 140.399C135.765 140.219 135.691 140.048 135.568 139.916C135.444 139.784 135.278 139.699 135.098 139.676C134.934 139.676 134.775 139.729 134.644 139.826C134.513 139.923 134.417 140.059 134.369 140.214C134.369 140.5 134.217 140.886 134.149 141.172C134.156 141.256 134.156 141.34 134.149 141.424V141.743C133.794 143.222 133.032 146.298 132.456 148.466L128.306 162.516H120.939L121.735 138.987H126.223L125.072 151.491C124.852 153.844 124.547 157.424 124.411 159.155V159.592C124.411 159.592 124.411 159.726 124.411 159.844C124.411 159.961 124.31 160.516 124.293 160.802C124.277 160.987 124.33 161.172 124.442 161.321C124.555 161.469 124.719 161.572 124.902 161.608H125.038C125.197 161.608 125.351 161.559 125.481 161.469C125.612 161.379 125.711 161.252 125.766 161.104C125.868 160.768 125.952 160.348 126.037 159.978C126.048 159.934 126.048 159.888 126.037 159.844V159.709C126.494 158.029 127.578 154.298 128.34 151.81L132.219 138.937H138.417V151.525C138.417 154.079 138.163 157.743 138.061 159.323V159.558C138.061 159.558 138.061 159.726 138.061 159.861C138.061 159.995 138.061 160.533 138.061 160.802C138.056 160.984 138.118 161.163 138.237 161.302C138.356 161.442 138.522 161.533 138.705 161.558H138.807C138.973 161.559 139.135 161.506 139.267 161.405C139.399 161.305 139.493 161.163 139.535 161.003C139.62 160.688 139.688 160.368 139.738 160.045C139.738 159.928 139.738 159.844 139.738 159.793L139.84 159.373C140.246 157.693 141.076 154.214 141.686 151.777L144.954 138.92H149.544L142.245 162.516Z" fill="white"/>
<path d="M159.959 141.861C159.391 141.844 158.829 141.969 158.323 142.225C157.817 142.48 157.383 142.858 157.063 143.323C155.725 145.373 154.37 153.407 154.37 156.163C154.37 158.919 156.064 159.524 157.097 159.524C157.581 159.562 158.067 159.496 158.523 159.33C158.979 159.165 159.393 158.904 159.739 158.566C161.263 156.886 162.838 147.928 162.838 145.424C162.838 142.432 161.28 141.794 159.959 141.794M156.267 162.919C151.999 162.919 149.814 160.667 149.814 156.197C149.814 149.961 151.508 144.079 154.031 141.222C154.889 140.309 155.944 139.6 157.117 139.148C158.291 138.697 159.552 138.516 160.806 138.617C163.228 138.617 167.275 139.508 167.275 145.525C167.275 152.835 165.04 158.348 162.821 160.65C161.948 161.46 160.914 162.081 159.785 162.471C158.657 162.862 157.458 163.014 156.267 162.919Z" fill="white"/>
<path d="M150.357 131.273C148.663 121.811 142.549 114.854 133.726 112.954C129.485 112.169 125.106 112.6 121.104 114.199C117.102 115.798 113.643 118.497 111.134 121.979C111.089 122.035 111.055 122.097 111.032 122.164C111.032 122.164 111.032 122.013 110.93 121.979C108.421 118.497 104.962 115.798 100.96 114.199C96.9578 112.6 92.5789 112.169 88.3381 112.954C78.0243 115.19 71.25 124.433 71.25 136.5C71.25 162.113 107.696 186.448 109.254 187.541L110.947 188.717V181.406C103.885 176.364 77.7025 155.777 77.7025 136.5C77.7025 125.66 83.8671 120.316 89.7099 119.223C96.4842 117.912 103.411 120.08 110.863 130.988L111.032 131.24C111.093 131.159 111.149 131.074 111.201 130.988C118.67 120.08 125.444 117.912 132.354 119.223C137.147 120.131 142.177 123.912 143.819 131.273H150.357Z" fill="white"/>
<path d="M111.421 141.526C110.879 143.207 109.372 147.728 108.559 150.299L107.035 154.921H111.438V151.19C111.438 149.223 111.438 143.476 111.523 141.56C111.523 141.425 111.641 140.635 111.641 140.333C111.557 140.619 111.404 141.392 111.354 141.526M111.32 163.257V159.492H105.545L104.291 163.257H97.7881L107.78 138.182H116.096L117.637 163.257H111.32Z" fill="white"/>
<path d="M142.803 163.255H134.522L134.708 148.718C134.708 146.399 134.895 143.071 134.962 141.693C134.962 141.559 135.081 140.886 135.064 140.483C134.945 140.87 134.844 141.542 134.81 141.676C134.471 143.021 133.658 146.399 132.964 148.684L128.662 163.255H120.194L121.024 138.181H127.138L125.902 151.525C125.681 154.062 125.343 158.079 125.224 159.608C125.224 159.726 125.072 160.415 125.038 160.819C125.173 160.432 125.309 159.76 125.343 159.625C125.749 158.13 126.901 154.146 127.68 151.558L131.728 138.113H139.162L139.078 151.558C139.078 154.264 138.807 158.13 138.705 159.625C138.705 159.777 138.603 160.466 138.603 160.835C138.704 160.442 138.783 160.044 138.841 159.642C139.196 158.163 140.111 154.281 140.771 151.626L144.158 138.181H150.357L142.803 163.255Z" fill="white"/>
<path d="M159.959 142.617C159.525 142.596 159.093 142.683 158.703 142.871C158.312 143.059 157.975 143.342 157.723 143.692C156.521 145.524 155.115 153.339 155.115 156.163C155.115 158.062 155.86 158.835 157.097 158.835C157.472 158.879 157.853 158.839 158.211 158.717C158.569 158.595 158.894 158.394 159.163 158.129C160.45 156.7 162.093 148.045 162.093 145.491C162.093 143.81 161.551 142.617 159.959 142.617ZM163.346 161.104C162.397 161.997 161.273 162.685 160.042 163.125C158.812 163.565 157.504 163.746 156.199 163.658C152.998 163.658 148.984 162.364 148.984 156.196C148.984 149.474 150.796 143.625 153.388 140.718C154.327 139.722 155.48 138.948 156.761 138.454C158.042 137.959 159.418 137.756 160.789 137.861C164.074 137.861 168.003 139.541 168.003 145.524C168.003 152.751 165.835 158.599 163.346 161.104Z" fill="white"/>
<path d="M187.853 112.518V188.751" stroke="white" stroke-width="0.8" stroke-miterlimit="10"/>
<path d="M220.809 135.003C220.872 136.157 220.657 137.31 220.182 138.365C219.788 139.153 219.162 139.803 218.387 140.23C217.512 140.699 216.549 140.984 215.559 141.071C214.315 141.197 213.066 141.259 211.816 141.255H206.447V119.508H211.816C212.948 119.503 214.079 119.57 215.203 119.71C216.129 119.815 217.029 120.083 217.862 120.5C218.579 120.884 219.168 121.468 219.555 122.18C219.986 123.076 220.189 124.063 220.148 125.054C220.175 125.795 220.049 126.533 219.776 127.222C219.557 127.75 219.234 128.23 218.827 128.634C218.44 128.988 217.993 129.273 217.506 129.474C217.05 129.656 216.58 129.802 216.101 129.911L217.676 130.314C218.222 130.486 218.732 130.754 219.183 131.104C219.664 131.536 220.04 132.071 220.284 132.667C220.617 133.43 220.773 134.257 220.741 135.087M215.66 125.39C215.684 124.907 215.597 124.424 215.406 123.979C215.235 123.652 214.97 123.383 214.644 123.205C214.269 123.018 213.861 122.904 213.442 122.869C212.878 122.838 212.312 122.838 211.748 122.869H210.58V128.499H211.901C212.422 128.507 212.944 128.467 213.459 128.382C213.872 128.33 214.267 128.18 214.61 127.945C214.945 127.709 215.194 127.374 215.322 126.987C215.511 126.447 215.597 125.877 215.576 125.306M216.202 134.835C216.23 134.261 216.131 133.688 215.914 133.155C215.75 132.755 215.466 132.415 215.101 132.18C214.689 131.929 214.227 131.768 213.747 131.709C213.135 131.623 212.518 131.583 211.901 131.592H210.58V137.995H211.799C212.476 137.995 213.069 137.995 213.611 137.995C214.169 137.965 214.714 137.81 215.203 137.541C215.595 137.322 215.909 136.987 216.101 136.583C216.32 136.051 216.424 135.478 216.405 134.903" fill="white"/>
<path d="M237.474 134.348H228.109C228.098 135.009 228.219 135.666 228.464 136.281C228.641 136.706 228.92 137.081 229.277 137.373C229.585 137.618 229.944 137.79 230.327 137.878C230.683 137.956 231.047 137.996 231.411 137.995C231.978 137.995 232.544 137.956 233.105 137.878C233.703 137.788 234.268 137.687 234.798 137.575L236.492 137.155V140.6C235.95 140.768 235.442 140.903 234.985 141.02C234.527 141.138 233.968 141.222 233.291 141.306C232.651 141.395 232.006 141.44 231.36 141.441C230.487 141.453 229.614 141.385 228.752 141.239C227.847 141.061 226.999 140.669 226.28 140.096C225.474 139.395 224.847 138.513 224.451 137.525C223.921 136.072 223.68 134.531 223.739 132.987C223.692 131.544 223.904 130.104 224.366 128.735C224.721 127.754 225.3 126.868 226.059 126.147C226.687 125.525 227.462 125.069 228.312 124.819C229.905 124.36 231.597 124.36 233.189 124.819C234.021 125.061 234.778 125.506 235.391 126.113C236.111 126.852 236.655 127.743 236.983 128.718C237.424 130.102 237.607 131.554 237.525 133.004L237.474 134.348ZM233.223 131.609C233.218 130.883 233.155 130.158 233.037 129.441C232.965 128.967 232.816 128.507 232.597 128.08C232.418 127.783 232.152 127.548 231.835 127.407C231.508 127.273 231.155 127.209 230.801 127.222C230.405 127.186 230.007 127.257 229.649 127.429C229.291 127.601 228.986 127.867 228.769 128.197C228.26 129.242 228.033 130.4 228.109 131.558L233.223 131.609Z" fill="white"/>
<path d="M251.92 141.189H239.692V138.248L246.907 128.097H239.692V124.77H252.022V127.727L244.655 137.878H252.106L251.92 141.189Z" fill="white"/>
<path d="M260.32 119.98C260.321 120.326 260.252 120.669 260.117 120.988C259.987 121.296 259.797 121.576 259.558 121.811C259.335 122.058 259.064 122.258 258.762 122.4C258.436 122.541 258.085 122.616 257.729 122.618C257.373 122.618 257.021 122.543 256.696 122.4C256.086 122.109 255.604 121.607 255.341 120.988C255.207 120.668 255.138 120.326 255.138 119.98C255.138 119.633 255.207 119.291 255.341 118.971C255.471 118.662 255.654 118.378 255.883 118.131C256.12 117.892 256.394 117.693 256.696 117.543C257.021 117.399 257.373 117.325 257.729 117.324C258.085 117.327 258.436 117.401 258.762 117.543C259.06 117.684 259.329 117.878 259.558 118.114C259.797 118.356 259.987 118.641 260.117 118.954C260.252 119.274 260.321 119.617 260.32 119.963M255.544 124.769H259.914V141.189H255.544V124.769Z" fill="white"/>
<path d="M273.733 128.768H273.293L272.294 128.6C271.944 128.579 271.593 128.579 271.244 128.6C270.91 128.602 270.579 128.653 270.261 128.751C269.984 128.827 269.712 128.923 269.448 129.037C269.329 129.071 269.215 129.122 269.11 129.188V141.323H264.74V124.785H268.246L268.805 126.466C269.033 126.113 269.3 125.786 269.601 125.491C269.892 125.231 270.216 125.01 270.566 124.836C270.971 124.616 271.426 124.506 271.887 124.516C272.507 124.527 273.124 124.589 273.733 124.701V128.768Z" fill="white"/>
<path d="M276.392 118.887H280.761V141.189H276.392V118.887ZM285.52 141.508L281.1 131.895L284.775 124.786H289.855L285.52 131.71L290.482 141.189L285.52 141.508Z" fill="white"/>
<path d="M302.727 136.198C302.767 137.166 302.57 138.129 302.151 139.004C301.801 139.66 301.28 140.211 300.644 140.601C300.013 140.982 299.309 141.229 298.577 141.324C297.81 141.438 297.034 141.494 296.257 141.492C295.724 141.493 295.192 141.454 294.665 141.374C294.123 141.29 293.632 141.206 293.192 141.105C292.683 141.004 292.18 140.875 291.685 140.719V137.223L293.378 137.643C293.852 137.761 294.327 137.861 294.818 137.946C295.22 138.019 295.628 138.058 296.037 138.063C296.616 138.074 297.192 137.971 297.731 137.761C297.955 137.662 298.142 137.494 298.264 137.283C298.386 137.071 298.436 136.826 298.408 136.584C298.424 136.354 298.374 136.125 298.263 135.922C298.152 135.72 297.985 135.553 297.781 135.441C297.295 135.167 296.785 134.936 296.257 134.752L294.953 134.282C294.508 134.131 294.077 133.939 293.666 133.71C293.229 133.473 292.83 133.173 292.481 132.82C292.109 132.43 291.816 131.974 291.617 131.475C291.393 130.867 291.284 130.223 291.295 129.576C291.265 128.71 291.451 127.85 291.837 127.072C292.182 126.443 292.676 125.906 293.277 125.509C293.906 125.109 294.608 124.835 295.343 124.702C296.129 124.547 296.929 124.469 297.731 124.467C298.447 124.464 299.162 124.532 299.865 124.669C300.38 124.76 300.889 124.884 301.389 125.038L301.965 125.24V128.601L300.423 128.248L299.102 127.979C298.712 127.905 298.315 127.866 297.917 127.862C297.284 127.815 296.65 127.924 296.071 128.181C295.887 128.303 295.738 128.47 295.639 128.666C295.54 128.862 295.494 129.08 295.506 129.299C295.518 129.518 295.588 129.73 295.708 129.914C295.827 130.098 295.993 130.248 296.19 130.349C296.739 130.618 297.305 130.853 297.883 131.055L299.441 131.643C299.867 131.804 300.276 132.006 300.661 132.248C301.06 132.496 301.415 132.809 301.711 133.173C302.026 133.554 302.272 133.986 302.439 134.45C302.63 134.99 302.728 135.558 302.727 136.13" fill="white"/>
<path d="M313.735 141.189H308.552L303.269 124.77H308.349L310.466 134.433C310.466 134.769 310.619 135.189 310.703 135.677C310.788 136.164 310.89 136.652 310.974 137.122L311.279 138.803C311.415 138.131 311.516 137.542 311.601 137.122L311.855 135.677C311.957 135.189 312.041 134.803 312.092 134.484L314.209 124.82H319.29L313.735 141.189Z" fill="white"/>
<path d="M333.753 134.349H324.405C324.394 135.01 324.515 135.667 324.76 136.281C324.937 136.706 325.216 137.081 325.573 137.374C325.874 137.618 326.228 137.79 326.606 137.878C326.968 137.958 327.337 137.997 327.707 137.996C328.274 137.996 328.84 137.956 329.401 137.878C329.988 137.788 330.552 137.688 331.094 137.576L332.788 137.155V140.601C332.246 140.769 331.755 140.903 331.28 141.021C330.806 141.138 330.264 141.223 329.587 141.307C328.953 141.395 328.313 141.44 327.673 141.441C326.786 141.432 325.902 141.342 325.031 141.172C324.131 140.994 323.289 140.602 322.576 140.029C321.756 139.339 321.127 138.455 320.746 137.458C320.211 136.006 319.963 134.465 320.018 132.92C319.979 131.478 320.191 130.039 320.645 128.668C321.005 127.69 321.584 126.805 322.338 126.08C322.972 125.458 323.752 125.002 324.608 124.752C326.195 124.293 327.881 124.293 329.468 124.752C330.3 124.994 331.057 125.439 331.67 126.046C332.395 126.782 332.939 127.674 333.262 128.651C333.711 130.034 333.895 131.487 333.804 132.937L333.753 134.349ZM329.519 131.609C329.505 130.883 329.443 130.159 329.333 129.441C329.256 128.966 329.101 128.506 328.876 128.08C328.707 127.782 328.446 127.546 328.13 127.408C327.797 127.274 327.44 127.211 327.08 127.223C326.685 127.192 326.288 127.266 325.931 127.437C325.574 127.608 325.269 127.871 325.048 128.198C324.556 129.248 324.335 130.403 324.405 131.559L329.519 131.609Z" fill="white"/>
<path d="M346.506 128.768H346.065L345.066 128.6C344.716 128.579 344.366 128.579 344.016 128.6C343.683 128.602 343.352 128.653 343.034 128.751C342.756 128.827 342.485 128.923 342.221 129.037C342.103 129.075 341.989 129.126 341.882 129.188V141.323H337.513V124.785H341.018L341.577 126.466C341.805 126.113 342.072 125.786 342.373 125.491C342.664 125.231 342.989 125.01 343.339 124.836C343.743 124.616 344.199 124.506 344.66 124.516C345.279 124.527 345.896 124.589 346.506 124.701V128.768Z" fill="white"/>
<path d="M363.51 132.886C363.529 134.017 363.409 135.146 363.154 136.248C362.961 137.083 362.635 137.883 362.189 138.617C361.83 139.212 361.359 139.731 360.8 140.147C360.284 140.523 359.713 140.818 359.106 141.021C358.558 141.211 357.99 141.34 357.413 141.407C356.85 141.47 356.285 141.498 355.719 141.491C354.951 141.491 354.172 141.458 353.382 141.39C352.592 141.323 351.909 141.217 351.333 141.071C350.689 140.987 349.978 140.869 349.165 140.718V118.887H353.534V125.945C353.689 125.805 353.853 125.676 354.026 125.559C354.451 125.268 354.912 125.031 355.397 124.853C356.044 124.6 356.734 124.474 357.43 124.483C358.068 124.489 358.704 124.562 359.326 124.702C360.079 124.874 360.769 125.245 361.325 125.777C362.046 126.483 362.582 127.355 362.883 128.315C363.358 129.797 363.57 131.349 363.51 132.903M359.14 132.903C359.159 131.959 359.103 131.015 358.971 130.08C358.91 129.525 358.724 128.991 358.429 128.517C358.215 128.184 357.882 127.944 357.497 127.844C357.065 127.744 356.621 127.699 356.176 127.71C355.71 127.703 355.246 127.777 354.805 127.928C354.482 128.048 354.171 128.194 353.873 128.365L353.534 128.601V138.332H353.941L354.906 138.432H355.905C356.306 138.427 356.703 138.347 357.074 138.197C357.493 138.013 357.851 137.716 358.107 137.34C358.474 136.837 358.733 136.265 358.869 135.659C359.074 134.733 359.165 133.784 359.14 132.836" fill="white"/>
<path d="M375.94 141.19L375.465 139.728C375.115 140.072 374.723 140.372 374.297 140.619C373.848 140.862 373.377 141.064 372.891 141.224C372.279 141.42 371.638 141.517 370.994 141.509C370.464 141.496 369.936 141.428 369.419 141.308C368.862 141.164 368.346 140.894 367.912 140.518C367.4 140.058 367.011 139.481 366.777 138.837C366.442 137.969 366.286 137.043 366.32 136.114C366.276 135.173 366.493 134.237 366.947 133.409C367.314 132.732 367.843 132.155 368.488 131.728C369.103 131.358 369.78 131.102 370.486 130.972C371.152 130.856 371.826 130.794 372.502 130.787H375.364V129.61C375.364 128.804 375.161 128.3 374.754 128.115C374.219 127.89 373.641 127.786 373.06 127.812C372.459 127.814 371.859 127.864 371.265 127.963C370.656 128.047 370.097 128.165 369.572 128.283C369.047 128.4 368.488 128.552 367.878 128.753V125.392C368.556 125.19 369.148 125.022 369.69 124.905C370.316 124.754 370.949 124.636 371.587 124.552C372.333 124.449 373.086 124.398 373.84 124.401C374.612 124.397 375.383 124.465 376.143 124.602C376.824 124.72 377.472 124.983 378.04 125.375C378.622 125.805 379.074 126.387 379.344 127.056C379.682 127.929 379.837 128.861 379.801 129.795V141.19H375.94ZM375.364 133.325H374.127C373.599 133.336 373.072 133.392 372.552 133.493C372.168 133.565 371.803 133.72 371.485 133.946C371.201 134.152 370.988 134.439 370.876 134.77C370.744 135.194 370.681 135.637 370.689 136.081C370.656 136.382 370.685 136.686 370.775 136.975C370.866 137.265 371.015 137.532 371.214 137.761C371.606 138.062 372.092 138.216 372.586 138.198C373.062 138.202 373.536 138.134 373.992 137.997C374.336 137.899 374.671 137.769 374.991 137.61L375.364 137.392V133.325Z" fill="white"/>
<path d="M394.57 141.189V129.61C394.597 129.388 394.575 129.163 394.505 128.951C394.435 128.739 394.318 128.545 394.163 128.383C393.719 128.124 393.203 128.012 392.69 128.064C392.22 128.057 391.752 128.119 391.301 128.249C390.896 128.352 390.499 128.487 390.115 128.652C389.713 128.821 389.322 129.018 388.947 129.24V141.189H384.561V124.77H388.202L388.828 126.45C389.368 126.069 389.934 125.727 390.522 125.425C391.066 125.139 391.632 124.897 392.215 124.703C392.905 124.484 393.625 124.376 394.349 124.383C394.979 124.376 395.607 124.461 396.212 124.635C396.757 124.791 397.256 125.073 397.669 125.459C398.099 125.873 398.419 126.387 398.6 126.955C398.843 127.703 398.957 128.487 398.939 129.274V141.038L394.57 141.189Z" fill="white"/>
<path d="M413.977 141.189L413.469 139.861C413.102 140.182 412.699 140.458 412.266 140.684C411.816 140.898 411.352 141.084 410.878 141.239C410.29 141.414 409.679 141.499 409.066 141.491C408.374 141.487 407.685 141.397 407.016 141.222C406.245 141.009 405.544 140.598 404.984 140.029C404.283 139.291 403.756 138.407 403.443 137.441C402.989 136.001 402.783 134.495 402.833 132.987C402.767 131.437 403.032 129.89 403.612 128.449C404.038 127.483 404.681 126.626 405.492 125.945C406.141 125.393 406.913 125.001 407.745 124.803C408.381 124.64 409.035 124.55 409.692 124.534C410.346 124.522 410.996 124.637 411.606 124.87C412.013 125.031 412.4 125.24 412.758 125.492C412.891 125.593 413.016 125.706 413.13 125.828V118.887H417.5V141.189H413.977ZM413.13 128.584L412.791 128.365C412.496 128.21 412.191 128.076 411.877 127.962C411.48 127.822 411.062 127.748 410.641 127.744C410.197 127.745 409.754 127.79 409.32 127.878C408.899 127.97 408.519 128.194 408.236 128.517C407.869 128.982 407.609 129.521 407.474 130.096C407.265 131.046 407.174 132.016 407.203 132.987C407.182 133.962 407.262 134.936 407.44 135.895C407.541 136.465 407.76 137.009 408.083 137.491C408.33 137.821 408.682 138.058 409.083 138.163C409.49 138.238 409.904 138.278 410.319 138.281C410.784 138.285 411.245 138.193 411.674 138.012C412.034 137.886 412.381 137.723 412.707 137.525C412.842 137.426 412.983 137.336 413.13 137.256V128.584Z" fill="white"/>
<path d="M216.507 178.348L214.915 173.424C214.636 172.601 214.314 171.793 213.95 171.004C213.639 170.306 213.189 169.678 212.629 169.155C212.18 169.219 211.728 169.258 211.274 169.273L209.886 169.374V178.348H207.074V156.668H211.664C212.678 156.665 213.691 156.732 214.695 156.87C215.581 156.981 216.435 157.273 217.202 157.727C217.926 158.186 218.511 158.83 218.895 159.592C219.355 160.587 219.57 161.676 219.522 162.769C219.616 164.171 219.188 165.558 218.32 166.668C217.508 167.593 216.443 168.264 215.254 168.601C215.735 169.015 216.147 169.503 216.474 170.046C216.843 170.718 217.166 171.414 217.439 172.13L219.844 178.348H216.507ZM216.745 162.769C216.782 162.082 216.654 161.397 216.372 160.769C216.144 160.299 215.762 159.92 215.288 159.693C214.756 159.444 214.182 159.296 213.594 159.256C212.9 159.256 212.104 159.256 211.207 159.256H209.953V167.172C211.031 167.153 212.107 167.057 213.171 166.886C213.893 166.744 214.582 166.471 215.203 166.08C215.723 165.784 216.132 165.33 216.372 164.785C216.628 164.144 216.749 163.458 216.728 162.769" fill="white"/>
<path d="M233.917 178.348V166.432C233.934 166.008 233.865 165.585 233.714 165.188C233.604 164.911 233.409 164.675 233.155 164.516C232.899 164.356 232.609 164.258 232.308 164.23C231.958 164.212 231.608 164.212 231.258 164.23C230.683 164.229 230.111 164.32 229.564 164.499C229.072 164.658 228.591 164.848 228.125 165.071C227.614 165.315 227.122 165.596 226.651 165.911V178.415H223.925V156.062H226.736V163.928C227.225 163.503 227.746 163.115 228.294 162.768C228.832 162.451 229.399 162.187 229.988 161.978C230.632 161.74 231.315 161.621 232.003 161.625C232.643 161.623 233.28 161.702 233.9 161.861C234.454 162 234.965 162.271 235.39 162.651C235.836 163.062 236.174 163.575 236.373 164.146C236.644 164.906 236.77 165.71 236.745 166.516V178.28L233.917 178.348Z" fill="white"/>
<path d="M253.698 171.02H244.333C244.312 172.05 244.478 173.075 244.824 174.046C245.046 174.639 245.42 175.166 245.908 175.575C246.305 175.88 246.78 176.072 247.279 176.13C247.714 176.16 248.149 176.16 248.583 176.13C249.032 176.128 249.48 176.088 249.921 176.012C250.429 175.928 250.887 175.827 251.327 175.726L252.851 175.323V177.81L251.513 178.197L250.142 178.449C249.627 178.535 249.106 178.58 248.583 178.583C247.755 178.577 246.928 178.503 246.111 178.365C245.273 178.213 244.494 177.835 243.858 177.272C243.08 176.575 242.496 175.689 242.165 174.701C241.683 173.203 241.465 171.634 241.521 170.062C241.485 168.626 241.667 167.193 242.063 165.811C242.338 164.857 242.817 163.974 243.469 163.222C244.004 162.611 244.694 162.153 245.467 161.895C246.929 161.447 248.493 161.447 249.955 161.895C250.708 162.115 251.387 162.533 251.92 163.105C252.567 163.855 253.035 164.739 253.292 165.693C253.662 167.13 253.799 168.616 253.698 170.096V171.02ZM250.921 169.088C250.941 168.151 250.856 167.215 250.667 166.298C250.569 165.695 250.337 165.121 249.989 164.617C249.743 164.261 249.386 163.996 248.973 163.861C248.592 163.732 248.19 163.669 247.788 163.676C247.322 163.672 246.86 163.74 246.416 163.878C245.989 164.039 245.623 164.327 245.366 164.701C245.03 165.213 244.794 165.783 244.671 166.382C244.463 167.257 244.36 168.154 244.367 169.054L250.921 169.088Z" fill="white"/>
<path d="M262.132 157.609C262.133 157.852 262.085 158.093 261.992 158.318C261.899 158.543 261.763 158.747 261.59 158.92C261.424 159.097 261.222 159.237 260.997 159.33C260.772 159.423 260.529 159.466 260.286 159.457C260.04 159.462 259.796 159.417 259.569 159.325C259.342 159.232 259.136 159.094 258.965 158.92C258.628 158.562 258.44 158.09 258.44 157.6C258.44 157.111 258.628 156.639 258.965 156.281C259.136 156.107 259.342 155.969 259.569 155.876C259.796 155.784 260.04 155.738 260.286 155.743C260.529 155.735 260.772 155.778 260.997 155.871C261.222 155.964 261.424 156.104 261.59 156.281C261.765 156.455 261.903 156.663 261.996 156.891C262.089 157.119 262.135 157.363 262.132 157.609ZM258.88 161.945H261.691V178.348H258.88V161.945Z" fill="white"/>
<path d="M277.595 178.347V166.398C277.619 165.956 277.543 165.514 277.374 165.104C277.225 164.836 277.009 164.611 276.748 164.449C276.481 164.301 276.187 164.21 275.884 164.18C275.574 164.163 275.263 164.163 274.953 164.18C274.378 164.185 273.807 164.276 273.259 164.449C272.717 164.633 272.226 164.818 271.819 165.003C271.329 165.239 270.859 165.515 270.414 165.827V178.398H267.704V161.944H269.787L270.414 163.944C270.91 163.52 271.436 163.133 271.989 162.785C272.523 162.458 273.091 162.187 273.682 161.978C274.339 161.74 275.033 161.621 275.732 161.625C276.377 161.622 277.02 161.702 277.645 161.86C278.198 162.004 278.709 162.274 279.136 162.65C279.582 163.061 279.919 163.575 280.118 164.146C280.375 164.909 280.495 165.711 280.474 166.516V178.28L277.595 178.347Z" fill="white"/>
<path d="M288.992 156.062H286.181V178.364H288.992V156.062Z" fill="white"/>
<path d="M303.438 178.347L303.133 176.364C302.527 177.218 301.678 177.873 300.695 178.247C300.105 178.491 299.471 178.611 298.832 178.599C298.291 178.593 297.751 178.531 297.223 178.415C296.649 178.287 296.111 178.034 295.648 177.675C295.123 177.272 294.714 176.739 294.462 176.129C294.111 175.283 293.949 174.371 293.988 173.457C293.949 172.519 294.153 171.588 294.581 170.751C294.921 170.066 295.442 169.485 296.088 169.07C296.712 168.681 297.409 168.423 298.137 168.314C298.858 168.182 299.589 168.114 300.322 168.112H303.032V166.449C303.052 165.99 302.977 165.533 302.812 165.104C302.69 164.792 302.47 164.527 302.185 164.348C301.893 164.152 301.554 164.036 301.203 164.012C300.83 164.012 300.39 164.012 299.916 164.012C299.496 164.021 299.077 164.061 298.662 164.129C298.205 164.129 297.765 164.281 297.325 164.381L296.139 164.65L295.394 164.852V162.449C295.936 162.297 296.427 162.146 296.884 162.045C297.408 161.914 297.94 161.818 298.476 161.76C299.099 161.672 299.727 161.627 300.356 161.625C301.067 161.622 301.776 161.689 302.473 161.827C303.09 161.952 303.669 162.217 304.167 162.6C304.71 163.042 305.12 163.623 305.352 164.281C305.674 165.157 305.824 166.087 305.792 167.02V178.415L303.438 178.347ZM303.032 169.944H301C300.432 169.937 299.865 169.982 299.306 170.079C298.838 170.155 298.39 170.321 297.985 170.566C297.617 170.814 297.324 171.157 297.138 171.558C296.928 172.093 296.831 172.664 296.85 173.238C296.826 173.807 296.9 174.375 297.07 174.919C297.18 175.275 297.378 175.599 297.646 175.86C297.881 176.073 298.167 176.223 298.476 176.297C298.811 176.364 299.151 176.398 299.492 176.398C299.963 176.404 300.431 176.312 300.864 176.129C301.27 175.978 301.656 175.78 302.016 175.541C302.399 175.284 302.756 174.991 303.083 174.667L303.032 169.944Z" fill="white"/>
<path d="M321.898 178.347V166.398C321.918 165.955 321.837 165.512 321.661 165.104C321.522 164.829 321.304 164.601 321.034 164.449C320.775 164.3 320.486 164.208 320.187 164.18C319.872 164.163 319.555 164.163 319.239 164.18C318.664 164.182 318.093 164.273 317.546 164.449C316.987 164.633 316.512 164.818 316.089 165.003C315.603 165.247 315.133 165.522 314.683 165.827V178.398H311.872V161.944H313.972L314.599 163.944C315.094 163.52 315.621 163.133 316.174 162.785C316.709 162.46 317.277 162.189 317.867 161.978C318.529 161.74 319.229 161.62 319.933 161.625C320.573 161.622 321.211 161.702 321.83 161.86C322.388 162.003 322.904 162.274 323.338 162.65C323.773 163.07 324.109 163.581 324.32 164.146C324.577 164.909 324.697 165.711 324.675 166.516V178.28L321.898 178.347Z" fill="white"/>
<path d="M340.849 178.348L340.51 176.667C340.325 176.885 340.121 177.088 339.9 177.272C339.61 177.535 339.292 177.766 338.952 177.961C338.54 178.195 338.103 178.381 337.648 178.516C337.098 178.676 336.528 178.755 335.954 178.751C335.528 178.75 335.103 178.711 334.684 178.633C334.207 178.56 333.744 178.412 333.312 178.196C332.846 177.943 332.413 177.633 332.025 177.272C331.565 176.835 331.192 176.316 330.925 175.743C330.559 175.015 330.297 174.24 330.145 173.44C329.948 172.382 329.858 171.306 329.875 170.23C329.816 168.683 330.069 167.141 330.62 165.692C331.011 164.706 331.632 163.824 332.432 163.121C333.063 162.57 333.818 162.178 334.633 161.978C335.271 161.821 335.924 161.731 336.581 161.709C337.045 161.704 337.507 161.766 337.953 161.894C338.573 162.106 339.147 162.431 339.646 162.852L340.104 163.239V156.062H342.915V178.348H340.849ZM340.171 165.155L339.697 164.835C339.463 164.687 339.22 164.552 338.969 164.432C338.666 164.287 338.348 164.175 338.021 164.096C337.651 163.993 337.269 163.942 336.886 163.945C336.393 163.947 335.904 164.015 335.429 164.146C334.903 164.295 334.433 164.593 334.075 165.003C333.608 165.545 333.266 166.182 333.075 166.869C332.779 167.93 332.647 169.029 332.686 170.129C332.655 171.26 332.774 172.391 333.041 173.491C333.204 174.175 333.523 174.813 333.973 175.356C334.299 175.749 334.745 176.026 335.243 176.146C335.682 176.25 336.13 176.307 336.581 176.314C336.978 176.31 337.371 176.248 337.75 176.129C338.112 176.028 338.463 175.893 338.8 175.726C339.087 175.57 339.364 175.396 339.629 175.205L340.171 174.785V165.155Z" fill="white"/>
<path d="M369.471 171.02H360.105C360.084 172.05 360.251 173.075 360.596 174.046C360.819 174.639 361.192 175.166 361.68 175.575C362.078 175.88 362.552 176.072 363.052 176.13C363.486 176.16 363.922 176.16 364.356 176.13C364.804 176.128 365.252 176.088 365.694 176.012C366.202 175.928 366.659 175.827 367.1 175.726L368.624 175.323V177.81L367.286 178.197L365.914 178.449C365.399 178.535 364.878 178.58 364.356 178.583C363.527 178.577 362.7 178.503 361.883 178.365C361.045 178.213 360.266 177.835 359.631 177.272C358.852 176.575 358.269 175.689 357.937 174.701C357.455 173.203 357.238 171.634 357.294 170.062C357.257 168.626 357.44 167.193 357.836 165.811C358.11 164.857 358.59 163.974 359.241 163.222C359.777 162.611 360.467 162.153 361.24 161.895C362.702 161.447 364.266 161.447 365.728 161.895C366.481 162.115 367.159 162.533 367.692 163.105C368.339 163.855 368.808 164.739 369.064 165.693C369.435 167.13 369.572 168.616 369.471 170.096V171.02ZM366.693 169.088C366.715 168.146 366.63 167.204 366.439 166.281C366.341 165.678 366.11 165.104 365.762 164.6C365.516 164.245 365.159 163.979 364.745 163.844C364.364 163.715 363.963 163.652 363.56 163.659C363.095 163.655 362.632 163.723 362.188 163.861C361.762 164.023 361.395 164.31 361.138 164.684C360.802 165.196 360.567 165.767 360.444 166.365C360.235 167.241 360.133 168.138 360.139 169.037L366.693 169.088Z" fill="white"/>
<path d="M379.056 176.365C379.063 176.659 379.012 176.951 378.904 177.225C378.797 177.499 378.635 177.75 378.429 177.961C378.232 178.176 377.991 178.346 377.722 178.462C377.454 178.578 377.164 178.636 376.871 178.633C376.576 178.637 376.283 178.578 376.012 178.463C375.741 178.347 375.497 178.176 375.296 177.961C375.088 177.75 374.924 177.501 374.813 177.227C374.703 176.953 374.648 176.66 374.653 176.365C374.649 176.072 374.704 175.782 374.814 175.51C374.925 175.239 375.088 174.993 375.296 174.785C375.498 174.572 375.742 174.404 376.013 174.291C376.285 174.178 376.577 174.123 376.871 174.129C377.163 174.123 377.452 174.179 377.721 174.292C377.989 174.405 378.231 174.573 378.429 174.785C378.635 174.993 378.796 175.241 378.903 175.512C379.011 175.783 379.063 176.073 379.056 176.365Z" fill="white"/>
<path d="M389.844 178.348H386.355L380.614 156.668H383.883L387.016 171.222C387.134 171.794 387.253 172.399 387.389 173.071C387.524 173.743 387.626 174.365 387.727 174.936C387.829 175.508 387.947 176.18 388.1 176.953C388.252 176.18 388.371 175.491 388.472 174.936C388.574 174.382 388.693 173.743 388.811 173.071C388.93 172.399 389.065 171.794 389.201 171.222L392.317 156.668H395.585L389.844 178.348Z" fill="white"/>
<path d="M401.496 176.365C401.504 176.659 401.452 176.952 401.345 177.226C401.237 177.5 401.076 177.75 400.87 177.962C400.674 178.178 400.433 178.349 400.164 178.465C399.895 178.581 399.605 178.639 399.312 178.634C399.016 178.637 398.724 178.579 398.452 178.463C398.181 178.347 397.937 178.176 397.737 177.962C397.528 177.751 397.364 177.501 397.254 177.227C397.143 176.953 397.089 176.66 397.093 176.365C397.089 176.072 397.144 175.782 397.255 175.511C397.365 175.24 397.529 174.993 397.737 174.785C397.938 174.573 398.183 174.404 398.454 174.291C398.725 174.178 399.017 174.123 399.312 174.13C399.604 174.121 399.894 174.176 400.163 174.289C400.432 174.402 400.673 174.571 400.87 174.785C401.075 174.994 401.236 175.241 401.344 175.512C401.452 175.784 401.503 176.073 401.496 176.365Z" fill="white"/>
</g>
<defs>
<clipPath id="clip0_171_1515">
<rect width="346.25" height="76.25" fill="white" transform="translate(71.25 112.5)"/>
</clipPath>
</defs>
</svg>
