<svg width="457" height="300" viewBox="0 0 457 300" fill="none" xmlns="http://www.w3.org/2000/svg">
<g clip-path="url(#clip0_171_1520)">
<path d="M236.568 139.264H228.901V146.854H236.568V139.264Z" fill="white"/>
<path d="M236.568 152.525H228.901V160.115H236.568V152.525Z" fill="white"/>
<path d="M171.981 141.781C163.709 141.781 155.8 144.612 152.027 150.469C149.716 144.612 142.292 141.781 134.019 141.781C124.042 141.781 117.474 145.221 113.459 150.552H113.077V143.1H106.034V187.459H113.701V162.679C113.822 153.392 119.179 146.337 132.435 146.337C142.171 146.337 145.701 151.326 145.58 157.348V187.459H153.247V162.338C153.247 154.038 156.974 146.337 170.277 146.337C181.223 146.337 185.117 150.293 185.117 157.607V187.459H192.784V157.348C192.784 146.853 185.741 141.781 171.981 141.781Z" fill="white"/>
<path d="M250.561 143.1V166.386C250.561 175.414 244.841 184.185 231.696 184.185C219.53 184.185 215.272 179.97 214.928 171.974V143.1H207.261V171.882C207.261 182.211 213.465 188.75 229.284 188.75C238.655 188.75 246.928 185.393 250.943 179.454H251.185V187.458H258.237V143.1H250.561Z" fill="white"/>
<path d="M300.578 141.781C291.7 141.781 283.306 145.387 280.502 150.727H280.26V143.1H272.593V187.459H280.26V161.544C280.502 152.857 287.806 146.319 299.972 146.319C312.381 146.319 315.912 152.082 315.912 159.737V187.404H323.616V158.815C323.616 148.32 318.222 141.781 300.578 141.781Z" fill="white"/>
<path d="M341.82 182.903L383.313 146.936V143.072H335.373V147.628H373.577L332.578 183.069V187.459H385.017V182.903H341.82Z" fill="white"/>
<path fill-rule="evenodd" clip-rule="evenodd" d="M397.967 150.746C398.888 150.752 399.802 150.577 400.655 150.233C401.508 149.888 402.284 149.379 402.938 148.736C403.591 148.093 404.11 147.329 404.464 146.487C404.818 145.644 405 144.741 405 143.829C405.012 142.919 404.839 142.016 404.493 141.173C404.147 140.33 403.635 139.564 402.986 138.92C402.336 138.276 401.564 137.766 400.713 137.422C399.863 137.077 398.951 136.904 398.032 136.912C397.111 136.906 396.197 137.081 395.344 137.426C394.491 137.77 393.715 138.279 393.061 138.922C392.408 139.565 391.889 140.329 391.535 141.171C391.181 142.014 390.999 142.917 390.999 143.829C390.987 144.739 391.16 145.642 391.506 146.485C391.852 147.328 392.364 148.094 393.013 148.738C393.662 149.382 394.435 149.892 395.286 150.237C396.136 150.581 397.048 150.754 397.967 150.746ZM398.032 138.038C398.801 138.033 399.563 138.179 400.274 138.469C400.985 138.758 401.631 139.185 402.173 139.724C402.716 140.263 403.145 140.904 403.435 141.608C403.726 142.313 403.871 143.068 403.864 143.829C403.856 145.371 403.231 146.847 402.126 147.933C401.02 149.018 399.524 149.626 397.967 149.621C397.199 149.623 396.438 149.475 395.728 149.184C395.018 148.894 394.373 148.467 393.831 147.929C393.289 147.39 392.86 146.751 392.569 146.047C392.278 145.343 392.13 144.589 392.135 143.829C392.138 143.065 392.292 142.31 392.59 141.605C392.888 140.9 393.323 140.261 393.871 139.723C394.418 139.185 395.068 138.759 395.782 138.47C396.496 138.181 397.261 138.034 398.032 138.038ZM399.206 144.18C399.491 144.195 399.776 144.15 400.042 144.047C400.308 143.945 400.549 143.788 400.749 143.587C400.949 143.385 401.103 143.144 401.202 142.879C401.3 142.614 401.341 142.331 401.321 142.049C401.321 140.417 400.044 139.993 398.628 139.993H395.349V147.776H396.486V144.18H397.939L399.933 147.776H401.227L399.252 144.18H399.206ZM398.405 141.118C399.336 141.118 400.184 141.192 400.175 142.178C400.165 143.165 398.712 143.101 397.65 143.101H396.439V141.164L398.405 141.118Z" fill="white"/>
<path d="M56.25 176.088C67.4291 123.733 143.819 85 246.537 85C282.915 84.9834 319.13 89.8068 354.21 99.3406C324.673 91.9466 294.312 88.2656 263.845 88.3846C164.491 88.3846 80.8812 125.578 56.25 176.088Z" fill="white"/>
</g>
<defs>
<clipPath id="clip0_171_1520">
<rect width="348.75" height="103.75" fill="white" transform="translate(56.25 85)"/>
</clipPath>
</defs>
</svg>
